<svg id="Layer_1" data-name="Layer 1" xmlns="http://www.w3.org/2000/svg" viewBox="0 0 48.5 48.44"><defs><style>.cls-1{fill:#acab9c;}</style></defs><title>Abilities_Icon_Gideon_Infinity</title><path class="cls-1" d="M472,266.45h0.29l5.78-5.78-1.91-1.91-5.93,5.93A24.67,24.67,0,0,1,472,266.45Z" transform="translate(-429.6 -258.76)"/><path class="cls-1" d="M437.53,264.78l-6-6-1.91,1.91,5.78,5.78h0.47C436.39,265.86,437,265.31,437.53,264.78Z" transform="translate(-429.6 -258.76)"/><path class="cls-1" d="M444.56,284.17a6.4,6.4,0,0,0-4.7,1.42c-0.74-4.84-.21-11.3,8.33-10.18a6.4,6.4,0,0,0-3.58-3.36c3.82-3.06,9.68-5.83,13,2.12a6.4,6.4,0,0,0,1.12-4.78c4.56,1.78,9.89,5.47,4.65,12.3a6.4,6.4,0,0,0,4.7-1.42c0.48,3.14.41,7-2,9l5.82,5.82a21.56,21.56,0,0,0,2.31-19.84l1.68-2.91-1.73-3h-3.36a21.62,21.62,0,0,0-33.57,0H433.8l-1.73,3,1.68,2.91A21.57,21.57,0,0,0,436,294.95l6.49-6.49A9.93,9.93,0,0,1,444.56,284.17Z" transform="translate(-429.6 -258.76)"/><path class="cls-1" d="M450.56,292.24l-1.1,1.1a5.27,5.27,0,0,0-.26,3.13,20.56,20.56,0,0,1-2-.9l-5.32,5.32a21.48,21.48,0,0,0,8.62,3.4l1.68,2.91h3.47l1.68-2.91a21.48,21.48,0,0,0,8.51-3.33l-5.3-5.3C457.16,297.51,453.16,297.89,450.56,292.24Z" transform="translate(-429.6 -258.76)"/><path class="cls-1" d="M457.59,274.18" transform="translate(-429.6 -258.76)"/><path class="cls-1" d="M461.07,273.89l-0.18.18a9.83,9.83,0,0,1-1,1.81l-3,4-0.54-1.3-2.49,2.49h0l-2.39-2.39-3.65-.48-0.72-.07,4.85,4.85-7.48,7.48-8.26,8.26-6.44,6.44,1.91,1.91,18.17-18.17,1-1.31,0.1,0.24,2.93-2.93h0l7.75,7.75h0l2.55,2.55L476,307.1l1.91-1.91L455.76,283h0l6.87-6.87a2.13,2.13,0,0,0,0-.31A4.07,4.07,0,0,0,461.07,273.89Z" transform="translate(-429.6 -258.76)"/></svg>