<svg id="Layer_1" data-name="Layer 1" xmlns="http://www.w3.org/2000/svg" viewBox="0 0 48.49 48.49"><defs><style>.cls-1{fill:#fff;}</style></defs><title>Abilities_Icon_Howitzer_SlowGrenades</title><path class="cls-1" d="M391.07,728.69h0l-7-7a18.29,18.29,0,0,1-2,3.82c-0.35.41-1.14,1-2.42-.29h0l-1.85-1.85a13.64,13.64,0,0,0,0-16.68l1.85-1.85h0l0.32-.32a1.33,1.33,0,0,1,2.09,0,18.3,18.3,0,0,1,2.06,3.88l7.06-7.06,0,0s0.73-1.81-4-6.51h0c-4.7-4.7-6.51-4-6.51-4l-7,7a18.29,18.29,0,0,1,3.82,2c0.41,0.34,1,1.14-.29,2.42l-1.85,1.85a13.64,13.64,0,0,0-16.68,0L356.38,702a1.33,1.33,0,0,1,0-2.09,18.29,18.29,0,0,1,3.88-2.06l-7.06-7.06,0,0s-1.81-.73-6.51,4h0c-4.7,4.7-4,6.51-4,6.51l7,7a18.28,18.28,0,0,1,2-3.82c0.35-.41,1.14-1,2.41.29h0l1.85,1.85a13.64,13.64,0,0,0,0,16.68l-2.17,2.17a1.33,1.33,0,0,1-2.09,0,18.29,18.29,0,0,1-2.06-3.88l-7.06,7.06,0,0s-0.73,1.81,4,6.51h0c4.7,4.7,6.51,4,6.51,4l7-7a18.28,18.28,0,0,1-3.82-2c-0.41-.35-1-1.14.29-2.41h0l1.85-1.85a13.64,13.64,0,0,0,16.68,0l2.17,2.17a1.33,1.33,0,0,1,0,2.09,18.3,18.3,0,0,1-3.88,2.06l7.06,7.06,0,0s1.81,0.73,6.51-4h0C391.8,730.5,391.07,728.69,391.07,728.69Zm-24.19-23.77a10,10,0,0,1,5.74,1.81L370,709.37a6.41,6.41,0,0,0-6.19,0l-2.65-2.65A10,10,0,0,1,366.88,704.92ZM356.82,715a10,10,0,0,1,1.81-5.74l2.65,2.65a6.41,6.41,0,0,0,0,6.19l-2.65,2.65A10,10,0,0,1,356.82,715ZM366.88,725a10,10,0,0,1-5.74-1.81l2.65-2.65a6.41,6.41,0,0,0,6.19,0l2.65,2.65A10,10,0,0,1,366.88,725Zm8.26-4.32-2.65-2.65a6.41,6.41,0,0,0,0-6.19l2.65-2.65A10,10,0,0,1,375.14,720.72Z" transform="translate(-342.64 -690.74)"/></svg>