<svg id="Layer_1" data-name="Layer 1" xmlns="http://www.w3.org/2000/svg" viewBox="0 0 46.61 49.37"><defs><style>.cls-1{fill:#acab9c;}</style></defs><title>Abilities_Icon_Gadget_Haywire</title><circle class="cls-1" cx="434.51" cy="1044.11" r="3.72" transform="translate(-1117.51 -133.63) rotate(-60)"/><circle class="cls-1" cx="23.31" cy="45.64" r="3.72"/><circle class="cls-1" cx="473.2" cy="1044.11" r="3.72" transform="translate(-889.22 -655.47) rotate(-30)"/><path class="cls-1" d="M464.53,1036.78a21.41,21.41,0,0,1,2.67,1.82l1.81-1a23.28,23.28,0,0,0-30.24-.06l1.82,1A21.38,21.38,0,0,1,464.53,1036.78Z" transform="translate(-430.55 -1031.97)"/><path class="cls-1" d="M432.74,1052.14l-1.82-1a23.28,23.28,0,0,0,15.17,26.16v-2.09A21.36,21.36,0,0,1,432.74,1052.14Z" transform="translate(-430.55 -1031.97)"/><path class="cls-1" d="M476.8,1051.19l-1.82,1a21.28,21.28,0,0,1-13.19,22.84v2.1A23.25,23.25,0,0,0,476.8,1051.19Z" transform="translate(-430.55 -1031.97)"/><path class="cls-1" d="M465.45,1065.34l-1.74-1a13.45,13.45,0,0,1-7.57,4.13v-6.11a7.41,7.41,0,0,0,5-8.65l5.29-3.05a13.45,13.45,0,0,1,.21,8.62l1.74,1a15.29,15.29,0,0,0-11.59-20.07v2a13.1,13.1,0,0,1,7.38,4.48l-5.3,3.06a7.43,7.43,0,0,0-10,0l-5.29-3.05a13.39,13.39,0,0,1,7.37-4.51v-2a15.32,15.32,0,0,0-11.59,20.08l1.73-1a13.4,13.4,0,0,1,.21-8.64l5.3,3.06a7.43,7.43,0,0,0,5,8.66v6.12a13.1,13.1,0,0,1-7.57-4.14l-1.74,1A15.29,15.29,0,0,0,465.45,1065.34Z" transform="translate(-430.55 -1031.97)"/></svg>