<?xml version="1.0" encoding="utf-8"?>
<!-- Generator: Adobe Illustrator 19.2.1, SVG Export Plug-In . SVG Version: 6.00 Build 0)  -->
<svg version="1.1" id="Layer_1" xmlns="http://www.w3.org/2000/svg" xmlns:xlink="http://www.w3.org/1999/xlink" x="0px" y="0px"
	 viewBox="0 0 50 50" style="enable-background:new 0 0 50 50;" xml:space="preserve">
<style type="text/css">
	.st0{fill:#FFFFFF;}
</style>
<g id="Image_xA0_1">
	<g>
		<path class="st0" d="M38.5,3.6c2.6,2.4,4.6,5.4,5.7,8.9c1.4,2.9,2.1,6.1,2.1,9.5c0,4.2-1.2,8.1-3.3,11.4c-0.1-0.1-0.2-0.2-0.3-0.3
			c-0.7-0.7-2.2-0.7-3-1c1.9,1.3,2,3.5,0.2,3.7c-1.4,0.1-4-2.6-5.3-3.8c0.6,1.7,2.2,5.1,1.5,6.3c-1.6,3-5.2-3-5.2-3
			s-0.1,7.9-2.6,6.5c-1.7-0.9-2.5-6-3.2-8.4c-0.1,0.2-0.1,0.5-0.2,0.7c-0.1-0.3-0.1-0.5-0.2-0.7c-0.6,2.4-1.4,7.4-3.2,8.4
			c-2.5,1.3-2.6-6.5-2.6-6.5s-3.6,5.9-5.2,3c-0.7-1.3,0.9-4.7,1.5-6.3C14,33,11.4,35.8,10,35.7c-1.8-0.2-1.7-2.3,0.2-3.7
			c-0.8,0.3-2.3,0.4-3,1c-0.1,0.1-0.2,0.2-0.3,0.3C4.8,30,3.6,26.1,3.6,21.9c0-3.3,0.8-6.6,2.1-9.5C6.8,9,8.8,5.9,11.5,3.6
			C5,7.9,0.7,15.3,0.7,23.7C0.7,37,11.6,47.9,25,47.9c13.4,0,24.3-10.8,24.3-24.2C49.3,15.3,45,7.9,38.5,3.6z M16.4,41.4
			C16.4,41.4,16.4,41.4,16.4,41.4c0-0.1,0-0.1,0-0.2C16.4,41.3,16.4,41.4,16.4,41.4z M33.6,41.4c0-0.1,0-0.1,0-0.2
			C33.6,41.3,33.6,41.3,33.6,41.4C33.6,41.4,33.6,41.4,33.6,41.4z M24.8,30.5L24.8,30.5L24.8,30.5l0.1-0.3h0.2v0.3l0.1-0.1v0.1
			l6.5-6.7c1.8-2,5.7-5.3,3.2-9.7c0.9,1.6-2.4,5.2-3.7,3.9c-1.7-1.8,0.2-3.1,1.6-4.9c0.7-0.9,1-2.4,0.7-3.5c-0.3-1.3-2-2.5-2.6-3.5
			c1.2,3-0.4,5.5-2.5,4.3c-1.7-0.9-2.5-5.5-3.1-8v0h0c0-0.1-0.1-0.2-0.1-0.3v0.3h0c0-0.1-0.1-0.2-0.1-0.3v0.3h-0.2V2.1
			c0,0.1-0.1,0.2-0.1,0.3h0V2.1c0,0.1-0.1,0.2-0.1,0.3h0v0c-0.6,2.5-1.4,7.1-3.1,8c-2.2,1.2-3.7-1.4-2.5-4.3c-0.6,1-2.3,2.1-2.6,3.5
			c-0.3,1.1,0,2.5,0.7,3.5c1.4,1.8,3.3,3.1,1.6,4.9c-1.2,1.3-4.6-2.3-3.7-3.9c-2.5,4.5,1.4,7.8,3.2,9.7L24.8,30.5z"/>
	</g>
</g>
</svg>
