<svg id="Layer_1" data-name="Layer 1" xmlns="http://www.w3.org/2000/svg" viewBox="0 0 38.73 48.59"><defs><style>.cls-1{fill:#fff;}</style></defs><title>Abilities_Icon_Dekker_RocketBoots</title><polygon class="cls-1" points="0 14.32 8.93 10.69 17.86 14.32 8.93 0 0 14.32"/><polygon class="cls-1" points="38.73 14.32 29.8 0 20.87 14.32 29.8 10.69 38.73 14.32"/><path class="cls-1" d="M356.45,792.77l-7,2.85a92.41,92.41,0,0,1,6.91,30.64,0.37,0.37,0,0,0,.2,0,92.38,92.38,0,0,1,6.91-30.64Z" transform="translate(-347.52 -777.69)"/><path class="cls-1" d="M377.32,792.77l-7,2.85a92.4,92.4,0,0,1,6.9,30.62,0.39,0.39,0,0,0,.2,0,92.4,92.4,0,0,1,6.91-30.66Z" transform="translate(-347.52 -777.69)"/></svg>