<svg id="Layer_1" data-name="Layer 1" xmlns="http://www.w3.org/2000/svg" viewBox="0 0 48.83 36.34"><defs><style>.cls-1{fill:#fff;}</style></defs><title>Abilities_Icon_Murdock_Buckshot</title><circle class="cls-1" cx="19.55" cy="13.3" r="2.43"/><circle class="cls-1" cx="29.29" cy="13.3" r="2.43"/><circle class="cls-1" cx="19.55" cy="23.04" r="2.43"/><circle class="cls-1" cx="29.29" cy="23.04" r="2.43"/><path class="cls-1" d="M49.42,193.51H45.83a18.61,18.61,0,0,0-7.07-11.37,2.94,2.94,0,0,0,0-.3,3,3,0,1,0-3,3,3,3,0,0,0,1.35-.33,15.73,15.73,0,0,1,5.57,8.2L38.43,197h0l4.25,4.25a15.73,15.73,0,0,1-5.57,8.2,3,3,0,0,0-1.35-.33,3,3,0,1,0,3,3,2.94,2.94,0,0,0,0-.3,18.61,18.61,0,0,0,7.07-11.37h3.59v-1.75H46.07c0.05-.57.09-1.15,0.09-1.73s0-1.16-.09-1.73h3.35v-1.75ZM43.27,197h0Z" transform="translate(-0.58 -178.81)"/><path class="cls-1" d="M12.89,184.54a3,3,0,0,0,1.35.33,3,3,0,1,0-3-3,3,3,0,0,0,0,.3,18.61,18.61,0,0,0-7.07,11.37H0.58v1.75H3.93c-0.05.57-.09,1.15-0.09,1.73s0,1.16.09,1.73H0.58v1.75H4.17a18.61,18.61,0,0,0,7.07,11.37,3,3,0,0,0,0,.3,3,3,0,1,0,3-3,3,3,0,0,0-1.35.33,15.73,15.73,0,0,1-5.57-8.2L11.57,197h0l-4.25-4.25A15.73,15.73,0,0,1,12.89,184.54ZM6.73,197h0Z" transform="translate(-0.58 -178.81)"/></svg>