<svg id="Layer_1" data-name="Layer 1" xmlns="http://www.w3.org/2000/svg" viewBox="0 0 49 49"><defs><style>.cls-1{fill:#acab9c;}</style></defs><title>Abilities_Icons_Grux_Passive</title><path class="cls-1" d="M475.12,103.18a11.18,11.18,0,0,0-1.54-1.28l-0.51-.35-3.7,2,2.83,1.28a7.2,7.2,0,0,1,1.06,2.45h0c0,0.14.07,2-5.52,2l-11.25-.72-0.09-.06-0.06-.08L455.62,97.1c0-5.53,1.81-5.54,2-5.52a7.16,7.16,0,0,1,2.47,1.06l1.28,2.83,2-3.7-0.35-.51a11.19,11.19,0,0,0-1.28-1.54,11,11,0,0,0-16.89,1.54l-0.35.51,2,3.7,1.28-2.83a7.44,7.44,0,0,1,2.48-1.06c0.19,0,2,.08,2,5.52l-0.72,11.25-0.06.09-0.08.06-11.25.72c-5.44,0-5.54-1.77-5.52-2a7.45,7.45,0,0,1,1.06-2.48l2.83-1.28-3.7-2-0.51.35a11,11,0,0,0-1.54,16.89,11.21,11.21,0,0,0,1.54,1.29l0.51,0.35,3.7-2-2.83-1.28a7.21,7.21,0,0,1-1.06-2.45h0v0c0-.15,0-2,5.52-2l11.25,0.72,0.09,0.06,0.06,0.08,0.72,11.25c0,5.52-1.81,5.54-2,5.52a7.15,7.15,0,0,1-2.47-1.06l-1.28-2.83-2,3.7,0.35,0.51a11.2,11.2,0,0,0,1.28,1.54h0a11,11,0,0,0,16.89-1.54l0.35-.51-2-3.7-1.28,2.83a7.43,7.43,0,0,1-2.48,1.06c-0.19,0-2-.1-2-5.52l0.72-11.25,0.06-.09,0.08-.06,11.25-.72c5.41,0,5.54,1.76,5.52,2a7.43,7.43,0,0,1-1.06,2.48l-2.83,1.28,3.7,2,0.51-.35A11,11,0,0,0,475.12,103.18Z" transform="translate(-429.36 -86.48)"/></svg>