<svg id="Layer_1" data-name="Layer 1" xmlns="http://www.w3.org/2000/svg" viewBox="0 0 16.51 48.96"><defs><style>.cls-1{fill:#fff;}</style></defs><title>Abilities_Icon_Kallari_Dagger</title><path class="cls-1" d="M107.71,532.76v15.64s0.89,5.56,1.26,7.33a79.89,79.89,0,0,1,1,10.73,0.11,0.11,0,0,0,.1,0,79.88,79.88,0,0,1,1-10.72c0.37-1.77,1.26-7.33,1.26-7.33V532.76l-2.27-4Z" transform="translate(-101.72 -517.5)"/><path class="cls-1" d="M115.4,550.92c0.25-4.2,1.06-15.3,2.83-20.74l-3-3.84c-0.08-.11-5.2-6.69-5.22-8.84h0c0,2.15-5.13,8.73-5.22,8.84l-3,3.84c1.78,5.43,2.58,16.53,2.83,20.73a0.11,0.11,0,0,0,.09,0V531.37l5.33-7.44,5.33,7.44v19.54A0.1,0.1,0,0,0,115.4,550.92Z" transform="translate(-101.72 -517.5)"/></svg>