<svg id="Layer_1" data-name="Layer 1" xmlns="http://www.w3.org/2000/svg" viewBox="0 0 39.5 48.2"><defs><style>.cls-1{fill:#fff;}</style></defs><title>Abilities_Icon_Dekker_StatisBomb</title><path class="cls-1" d="M15,814.66a10.1,10.1,0,1,0,20,0A19.75,19.75,0,1,0,15,814.66Zm10-12a5,5,0,0,0,4.7-6.88A10.49,10.49,0,0,1,33.78,811a10.09,10.09,0,0,0-17.56,0,10.49,10.49,0,0,1,4.07-15.19A5,5,0,0,0,25,802.68Zm0-22.85a17.79,17.79,0,0,1,10.75,32,12.59,12.59,0,0,0-10.23-19.19l-0.52,0-0.52,0A12.59,12.59,0,0,0,14.25,811.8,17.79,17.79,0,0,1,25,779.84Z" transform="translate(-5.25 -777.88)"/><circle class="cls-1" cx="19.75" cy="8.64" r="2.52"/></svg>