<svg id="Layer_1" data-name="Layer 1" xmlns="http://www.w3.org/2000/svg" viewBox="0 0 34.61 48.93"><defs><style>.cls-1{fill:#dbbd67;}</style></defs><title>Abilities_Icon_Twinblast_Barrage</title><path class="cls-1" d="M213.25,963.15h-1.68a15.63,15.63,0,1,0-31.25,0h-1.68A17.3,17.3,0,1,1,213.25,963.15Z" transform="translate(-178.64 -945.85)"/><polygon class="cls-1" points="8.97 17.87 8.97 26.18 4.31 34.86 5.22 39.01 8.97 35.42 10.76 35.42 10.76 43.53 12.45 43.53 12.45 35.42 12.97 35.42 14.15 35.42 14.15 48.93 14.71 48.93 15.84 48.93 15.84 35.42 15.84 34.29 15.84 17.87 12.4 17.87 8.97 17.87"/><path class="cls-1" d="M193.48,962s-0.34-5.77-2.43-9.45c-2.09,3.68-2.43,9.45-2.43,9.45h4.85Z" transform="translate(-178.64 -945.85)"/><polygon class="cls-1" points="25.64 26.18 25.64 17.87 22.2 17.87 18.76 17.87 18.76 34.29 18.76 35.42 18.76 48.93 19.89 48.93 20.46 48.93 20.46 35.42 21.64 35.42 22.16 35.42 22.16 43.53 23.85 43.53 23.85 35.42 25.64 35.42 29.38 39.01 30.3 34.86 25.64 26.18"/><path class="cls-1" d="M203.27,962s-0.34-5.77-2.43-9.45c-2.09,3.68-2.43,9.45-2.43,9.45h4.85Z" transform="translate(-178.64 -945.85)"/></svg>