<svg id="Layer_1" data-name="Layer 1" xmlns="http://www.w3.org/2000/svg" viewBox="0 0 30.69 49.19"><defs><style>.cls-1{fill:#fff;}</style></defs><title>Abilities_Icon_Gideon_TornSpace</title><path class="cls-1" d="M99.78,279.48h0a11.42,11.42,0,0,0,.72,1.11,13.39,13.39,0,0,1,2-1.68,9.1,9.1,0,1,1,14.95,0,13.39,13.39,0,0,1,2,1.68,11.42,11.42,0,0,0,.72-1.11h0s2.34-4.27,5.16-5.75c-2.82-1.49-5.16-5.75-5.16-5.75h0a11.79,11.79,0,0,0-4.45-4.45h0s-4.27-2.34-5.75-5.16c-1.49,2.82-5.75,5.16-5.75,5.16h0A11.79,11.79,0,0,0,99.78,268h0s-2.34,4.27-5.16,5.75C97.45,275.22,99.78,279.48,99.78,279.48Z" transform="translate(-94.63 -258.38)"/><path class="cls-1" d="M105.37,273.73a4.58,4.58,0,0,0,.86,2.67,9.45,9.45,0,0,0,2.36-2.62l1.38-2.62,1.38,2.62a9.46,9.46,0,0,0,2.36,2.62A4.6,4.6,0,1,0,105.37,273.73Z" transform="translate(-94.63 -258.38)"/><path class="cls-1" d="M109.45,282.35v25.23h1V282.35c-0.17,0-.34,0-0.52,0S109.63,282.33,109.45,282.35Z" transform="translate(-94.63 -258.38)"/><path class="cls-1" d="M106.41,283.21V305h1V282.75a7.59,7.59,0,0,0-1,.42Z" transform="translate(-94.63 -258.38)"/><path class="cls-1" d="M112.5,282.75V305h1V283.21l-0.07,0A7.62,7.62,0,0,0,112.5,282.75Z" transform="translate(-94.63 -258.38)"/><path class="cls-1" d="M120.17,284.11h0a12,12,0,0,0-3.71-4c-0.24-.16-0.48-0.31-0.73-0.45h0s-4.27-2.34-5.75-5.16c-1.49,2.82-5.75,5.16-5.75,5.16h0c-0.25.14-.49,0.29-0.73,0.45a12,12,0,0,0-3.71,4h0s-2.34,4.27-5.16,5.75c2.82,1.49,5.16,5.75,5.16,5.75h0a11.79,11.79,0,0,0,4.44,4.44h0s0.47,0.26,1.15.7V297.7a9.1,9.1,0,1,1,9.21,0v3.05c0.68-.44,1.15-0.7,1.15-0.7h0a11.79,11.79,0,0,0,4.44-4.44h0s2.34-4.27,5.16-5.75C122.51,288.37,120.17,284.11,120.17,284.11Z" transform="translate(-94.63 -258.38)"/></svg>