<svg id="Layer_1" data-name="Layer 1" xmlns="http://www.w3.org/2000/svg" viewBox="0 0 44.98 49.2"><defs><style>.cls-1{fill:#fff;}</style></defs><title>Abilities_Icon_Kallari_Evade</title><path class="cls-1" d="M389.28,542.56l-0.14-1.32c-0.11-.63-0.23-1.2-0.35-1.74l-0.17,0c0.1,0.54.2,1.11,0.28,1.73l0.09,1.31,0,0.69,0,0.71a20.59,20.59,0,0,1-1,6.37,21.46,21.46,0,0,1-3.57,6.7,21.07,21.07,0,0,1-6.42,5.42l-1,.5-0.49.25-0.5.2-1.07.42-0.54.21-0.53.15a17.07,17.07,0,0,1-2.17.53,15.37,15.37,0,0,1-2.26.3,20.66,20.66,0,0,1-16.6-6.28,20.66,20.66,0,0,1-4.61-7.43,20.25,20.25,0,0,1,.53-15,19.26,19.26,0,0,1,3.23-5.13l0.43-.51,0.46-.45,0.87-.85c0.59-.51,1.17-0.94,1.66-1.35l1.45-.93c0.42-.28.82-0.43,1.12-0.6l0.65-.33a9.37,9.37,0,0,0,.24,2.89c-0.48.29-1.07,0.7-1.78,1.21-0.42.37-.9,0.76-1.38,1.22a17.88,17.88,0,0,0-1.44,1.61,16.48,16.48,0,0,0-2.56,4.46,17.09,17.09,0,0,0-1.17,5.91A16.55,16.55,0,0,0,369,560.32a12.11,12.11,0,0,0,1.74-.3,13.35,13.35,0,0,0,1.69-.49,13.91,13.91,0,0,0,1.55-.63,15,15,0,0,0,1.5-.8,15.9,15.9,0,0,0,7.13-9.38,15.16,15.16,0,0,0,.58-4.71,16.45,16.45,0,0,0-.17-2c-0.07-.39-0.14-0.74-0.22-1.08l-0.17,0c0.06,0.34.12,0.68,0.16,1.07a16.16,16.16,0,0,1,.07,1.94,14.72,14.72,0,0,1-.78,4.55,15.33,15.33,0,0,1-2.57,4.76,15,15,0,0,1-4.59,3.82,14,14,0,0,1-1.4.66,13,13,0,0,1-1.53.54,12.08,12.08,0,0,1-1.53.36,10.78,10.78,0,0,1-1.6.2,15.07,15.07,0,0,1-6.38-1,14.9,14.9,0,0,1-5.3-3.56,14.45,14.45,0,0,1-3.2-5.24,14.16,14.16,0,0,1,.46-10.45,13.4,13.4,0,0,1,2.27-3.55,14.66,14.66,0,0,1,1.23-1.25c0.41-.35.81-0.64,1.16-0.93s0.86-.55,1.2-0.74a9.35,9.35,0,0,0,1.9,2l-0.05,0a11.61,11.61,0,0,0-1.38.93c-0.27.24-.57,0.49-0.88,0.79a11.5,11.5,0,0,0-.92,1,10.58,10.58,0,0,0-1.61,2.88,10.75,10.75,0,0,0,.14,8,10.52,10.52,0,0,0,6.45,5.92,10.4,10.4,0,0,0,4.45.39,9.57,9.57,0,0,0,2.14-.52,8.44,8.44,0,0,0,.94-0.4,9.19,9.19,0,0,0,.93-0.51,9.79,9.79,0,0,0,4.32-5.84,9.26,9.26,0,0,0,.31-2.88,10,10,0,0,0-.12-1.2c0-.15-0.06-0.28-0.09-0.42l-0.19,0c0,0.13,0,.26.06,0.4a9.72,9.72,0,0,1,0,1.17,8.83,8.83,0,0,1-.51,2.72,9,9,0,0,1-4.34,5,8.12,8.12,0,0,1-.83.38,7.49,7.49,0,0,1-.92.31,8.32,8.32,0,0,1-1.84.29,8.81,8.81,0,0,1-3.72-.62,8.64,8.64,0,0,1-3-2.12,8.33,8.33,0,0,1-1.79-3.06,8,8,0,0,1,.38-5.93,7.5,7.5,0,0,1,1.32-2,8.29,8.29,0,0,1,.7-0.69l0.66-.5a8.24,8.24,0,0,1,1-.56l0.37-.18a21.59,21.59,0,0,1,4.63-.92A9.44,9.44,0,1,0,364,518.28a9.24,9.24,0,0,0-1.25.72h0l-7.38,5h0c-0.13.08-.25,0.14-0.38,0.23l-1.65,1.15c-0.57.49-1.22,1-1.89,1.64l-1,1-0.51.54-0.48.61a22.33,22.33,0,0,0-3.52,6,23.22,23.22,0,0,0-1.64,8,23,23,0,0,0,7,17,22.41,22.41,0,0,0,18.2,6.22A16.65,16.65,0,0,0,372,566a18.37,18.37,0,0,0,2.33-.65,19.4,19.4,0,0,0,2.16-.86l0.55-.24,0.51-.28,1-.56A22,22,0,0,0,388,552.07q0.29-.78.51-1.55a21,21,0,0,0,.85-6.54v-0.72Z" transform="translate(-344.39 -517.38)"/></svg>