<svg id="Layer_1" data-name="Layer 1" xmlns="http://www.w3.org/2000/svg" viewBox="0 0 48.9 49.49"><defs><style>.cls-1{fill:#fff;}</style></defs><title>Abilities_Icon_Gideon_Burden</title><circle class="cls-1" cx="28.57" cy="21.91" r="5.61"/><path class="cls-1" d="M390.21,258.24s-1.3,9.63-11.64,5h0a18.45,18.45,0,0,0-7.57-1.63c-0.32,0-.63,0-0.95,0l0,0s-12.07-.34-27.65,12.84c0,0,9-3.68,10.13,7.53a18.41,18.41,0,0,0,2.89,8.2h0s5.74,10.62,24.94,17.52c0,0-7.7-5.94,1.5-12.57h0a18.59,18.59,0,0,0,5.64-6.57h0S393.84,278.32,390.21,258.24ZM371,265.54a14.6,14.6,0,1,1-14.6,14.6A14.62,14.62,0,0,1,371,265.54Z" transform="translate(-342.43 -258.24)"/><path class="cls-1" d="M371.74,263.15h-1.45s-6.16,4.12-4.31,3.29,3.5,0,3.58,4.69-1.55,6.23-1.55,6.23l3-.18,3,0.18s-1.63-1.73-1.55-6.23,1.73-5.52,3.58-4.69S371.74,263.15,371.74,263.15Z" transform="translate(-342.43 -258.24)"/><path class="cls-1" d="M355.92,288l0.36,0.63,0.36,0.63s6.65,3.27,5,2.09-1.71-3.05,2.27-5.44,6.17-1.77,6.17-1.77l-1.66-2.52-1.35-2.7s-0.68,2.28-4.62,4.46-5.65,1.26-5.85-.76S355.92,288,355.92,288Z" transform="translate(-342.43 -258.24)"/><path class="cls-1" d="M385.36,289.27l0.36-.63,0.36-.63s-0.49-7.39-.69-5.38-1.79,3-5.85.76-4.62-4.46-4.62-4.46l-1.35,2.7-1.66,2.52s2.31-.55,6.17,1.77,3.91,4.26,2.27,5.44S385.36,289.27,385.36,289.27Z" transform="translate(-342.43 -258.24)"/></svg>