<svg id="Layer_1" data-name="Layer 1" xmlns="http://www.w3.org/2000/svg" viewBox="0 0 28.01 49.27"><defs><style>.cls-1{fill:#fff;}</style></defs><title>Abilities_Icon_Murdock_PlasmaBolt</title><path class="cls-1" d="M273.78,195.6v1c0,2.07,3.42,3.74,7.63,3.74s7.63-1.68,7.63-3.74v-1c-1.64,1.61-4.65,2.44-7.63,2.44S275.42,197.22,273.78,195.6Z" transform="translate(-267.41 -172.35)"/><path class="cls-1" d="M281.41,172.35c-8.71,0-14,10.83-14,15.6v10.24h1.79V187.94c0-4,4.87-13.81,12.22-13.81s12.22,9.82,12.22,13.81v10.24h1.79V187.94C295.42,183.18,290.13,172.35,281.41,172.35Z" transform="translate(-267.41 -172.35)"/><path class="cls-1" d="M281.41,178.72c-4.21,0-7.63,7.15-7.63,9.22v2.93c0,2.07,3.42,3.74,7.63,3.74s7.63-1.68,7.63-3.74v-2.93C289,185.88,285.63,178.72,281.41,178.72Z" transform="translate(-267.41 -172.35)"/><path class="cls-1" d="M273.78,201.31v1.54c0,2.07,3.42,3.74,7.63,3.74s7.63-1.68,7.63-3.74v-1.54c-1.64,1.61-4.65,2.44-7.63,2.44S275.42,202.92,273.78,201.31Z" transform="translate(-267.41 -172.35)"/><path class="cls-1" d="M280.74,209.48v12.14h1.35V209.48l-0.68,0Z" transform="translate(-267.41 -172.35)"/><path class="cls-1" d="M284.11,217.45h1.35V209c-0.44.12-.89,0.22-1.35,0.29v8.19Z" transform="translate(-267.41 -172.35)"/><path class="cls-1" d="M277.36,217.45h1.35v-8.19c-0.46-.08-0.91-0.17-1.35-0.29v8.48Z" transform="translate(-267.41 -172.35)"/></svg>