<?xml version="1.0" encoding="utf-8"?>
<!-- Generator: Adobe Illustrator 19.2.1, SVG Export Plug-In . SVG Version: 6.00 Build 0)  -->
<svg version="1.1" id="Layer_1" xmlns="http://www.w3.org/2000/svg" xmlns:xlink="http://www.w3.org/1999/xlink" x="0px" y="0px"
	 viewBox="0 0 43.3 46.9" style="enable-background:new 0 0 43.3 46.9;" xml:space="preserve">
<style type="text/css">
	.st0{fill:#ACAB9C;}
</style>
<title>Abilities_Icons_Steel_UnstoppanleForce</title>
<circle class="st0" cx="21.7" cy="21.5" r="3"/>
<rect x="36.6" y="7.2" class="st0" width="6.7" height="6.4"/>
<rect y="7.2" class="st0" width="6.7" height="6.4"/>
<rect x="18.4" y="40.5" class="st0" width="6.7" height="6.4"/>
<path class="st0" d="M18.6,27.4c-0.8-0.4-1.5-1-2.1-1.7l-4.2,2.4c0.3,1.6-0.8,3.2-2.4,3.5c-1.6,0.3-3.2-0.8-3.5-2.4s0.8-3.2,2.4-3.5
	c0.2,0,0.3,0,0.5-0.1c0.7,0,1.4,0.3,1.9,0.7l4.2-2.4c-0.3-0.8-0.5-1.6-0.5-2.4c0-0.1,0-0.1,0-0.2l-6.2-3.6C6.4,20,3.2,20.9,0,20.3
	v10.3l11.7,11.7c0.8-3.6,3.4-6.5,6.9-7.6L18.6,27.4L18.6,27.4z"/>
<path class="st0" d="M34.5,17.8l-6.3,3.6c0,0.1,0,0.1,0,0.2c0,0.8-0.2,1.6-0.5,2.4l4.4,2.5c1.3-1.1,3.2-1,4.3,0.3
	c1.1,1.3,1,3.2-0.3,4.3c-1.3,1.1-3.2,1-4.3-0.3c-0.6-0.7-0.9-1.7-0.7-2.6l-4.4-2.5c-0.5,0.7-1.2,1.3-2,1.7v7.4
	c3.5,1.1,6.1,3.9,6.9,7.5l11.7-11.6V20.3c-0.6,0.1-1.2,0.2-1.9,0.2C38.9,20.5,36.4,19.5,34.5,17.8z"/>
<path class="st0" d="M11.9,12.4l6.3,3.6c0.8-0.5,1.7-0.9,2.6-1v-5c-1.6-0.6-2.4-2.3-1.8-3.8s2.3-2.4,3.8-1.8s2.4,2.3,1.8,3.8
	c-0.3,0.9-1,1.5-1.8,1.8v5c0.9,0.1,1.7,0.5,2.5,0.9l6.3-3.5c-0.7-3.3,0.2-6.6,2.5-9.1l-3.3-3.3h-18L9.4,3.4
	C11.7,5.8,12.6,9.2,11.9,12.4z"/>
</svg>
