<svg id="Layer_1" data-name="Layer 1" xmlns="http://www.w3.org/2000/svg" viewBox="0 0 48.89 45.48"><defs><style>.cls-1{fill:#fff;}</style></defs><title>Abilities_Icons_Hero_BlockAbsorb</title><path class="cls-1" d="M365.36,634.46a2.16,2.16,0,0,0,3,0l7.1-15.87c3.24-7.25-.84-10.93-2.41-12a0.08,0.08,0,0,0-.07.08c3.34,3.06,2.78,6.42.47,9h0s-2.62,2.79-6.62,13.6h0c-4-10.82-6.62-13.6-6.62-13.6h0c-2.32-2.62-2.87-6,.47-9.05a0.08,0.08,0,0,0-.08-0.08c-1.57,1.09-5.65,4.76-2.41,12Z" transform="translate(-342.44 -606.58)"/><path class="cls-1" d="M391.18,628.78c-1.1,2.34-5.92,11.75-12,11.75-3.41,0-5.15-1.23-6-2.48l6.94-15.27h0s1.89-4.45,4.52-4.87a0.17,0.17,0,0,0,0-.12,5.66,5.66,0,0,0-6,3.36h0L370.44,639a5,5,0,0,1-7.12,0l-8.14-17.91h0a5.66,5.66,0,0,0-5.93-3.36,0.17,0.17,0,0,0,0,.12c2.62,0.43,4.5,4.86,4.5,4.86h0L360.65,638c-0.89,1.25-2.63,2.48-6,2.48-6.11,0-10.93-9.42-12-11.75a0.12,0.12,0,0,0-.14.07c0.56,3.28,4,19.5,18.33,23.19,0.16-1.31-1.68-4.07-.68-5.07,1.16-1.16,5.12,1.31,6.76,1.31s5.6-2.47,6.76-1.31c1,1-.83,3.78-0.68,5.09,14.38-3.66,17.85-20,18.4-23.23A0.12,0.12,0,0,0,391.18,628.78Z" transform="translate(-342.44 -606.58)"/></svg>