<svg id="Layer_1" data-name="Layer 1" xmlns="http://www.w3.org/2000/svg" viewBox="0 0 49.17 44.23"><defs><style>.cls-1{fill:#fff;}</style></defs><title>Abilities_Icon_Muriel_Drain</title><path class="cls-1" d="M37.67,894.72l-9-1.41,13.39,8.3L40.26,896C39.34,895.6,38.48,895.17,37.67,894.72Z" transform="translate(-0.42 -860.87)"/><path class="cls-1" d="M41.24,888.41l-8.82,2.31,15,2.36L44,888.56C43.06,888.55,42.13,888.5,41.24,888.41Z" transform="translate(-0.42 -860.87)"/><path class="cls-1" d="M31.54,881.56l0,0.12a9.76,9.76,0,0,1-.12,6l18.12-4.27-3.86-3.51C39.5,882.53,34.8,882.43,31.54,881.56Z" transform="translate(-0.42 -860.87)"/><path class="cls-1" d="M9.74,896l-1.85,5.6,13.39-8.3-9,1.41C11.52,895.18,10.66,895.61,9.74,896Z" transform="translate(-0.42 -860.87)"/><path class="cls-1" d="M8.76,888.42c-0.89.09-1.81,0.15-2.8,0.16l-3.35,4.51,15-2.36Z" transform="translate(-0.42 -860.87)"/><path class="cls-1" d="M18.42,881.69l0-.12c-3.26.87-8,1-14.19-1.64l-3.86,3.51,18.12,4.27A9.76,9.76,0,0,1,18.42,881.69Z" transform="translate(-0.42 -860.87)"/><path class="cls-1" d="M28.82,885.34l0-.12h0a5.33,5.33,0,0,0,0-2.43h0c-3.66-11-1.58-13.6-1.58-13.6h0c1.27-2.26,5,.22,5.76.73a17.26,17.26,0,0,1,5.82,9.36c0.54-.08,1.09-0.19,1.65-0.32C39,872.88,35.12,868,30.12,866h0S25,863.51,25,860.88v0h0v0c0,2.63-5.13,5.15-5.13,5.15h0c-5,2-8.89,6.84-10.33,12.9,0.56,0.13,1.11.23,1.65,0.32A17.26,17.26,0,0,1,17,869.9c0.73-.51,4.5-3,5.76-0.73h0s2.08,2.57-1.58,13.6h0a5.33,5.33,0,0,0,0,2.43h0l0,0.12a5.24,5.24,0,0,0,.24.79c0.77,2.57,2.78,9.8,1.59,11.34l-0.89,1.22L25,905.1l2.88-6.41L27,897.46c-1.19-1.53.82-8.77,1.59-11.34A5.25,5.25,0,0,0,28.82,885.34Z" transform="translate(-0.42 -860.87)"/></svg>