<svg id="Layer_1" data-name="Layer 1" xmlns="http://www.w3.org/2000/svg" viewBox="0 0 48.3 48.63"><defs><style>.cls-1{fill:#fff;}</style></defs><title>Ability_Sevarog_Siphon</title><path id="Q" class="cls-1" d="M36.59,19.6a5.61,5.61,0,0,0,1.11,1l11.46-3.15s-7.58,4-10.47,5.32c-0.67.31-.36,0.58-0.3,1.63,0,0.77-.19,1.94,1.6,1.79,2.69-.21,8.35-0.4,8.35-0.4L38.8,28.34a25.72,25.72,0,0,1-.56,3.56,14.45,14.45,0,0,1-1.15,3.22l2.78,1.23s-3.13,1.1-3.78,1.2a1.32,1.32,0,0,0-.85.69S34.12,39.8,35.09,40s5.34,0.28,5.34.28S33,41.75,32.5,44.45c-0.38,2,1.42,4.86,1.42,4.86l-6.63-4.06s2.29-1.81,2-4.25c-0.05-.52-1.62-3.5-1.71-3.92,4.74,3.76,6.22-2.33,6.71-5.66h0a3.14,3.14,0,0,0,.11-0.5s0-1.68,0-1.71c0-1.12-3.31-.95-3.31-0.95s2.42-.94,2.48-1.45a2.75,2.75,0,0,0-.21-1.44,9,9,0,0,0-4.75-4.19c3.16-1,4.32.29,9.1-14.94C37.72,6.25,36.21,19.07,36.59,19.6ZM26.52,11.13l2.39-3.9,2.39,3.9L28.91,15Zm-3.8-6.55,2.39-3.9,2.39,3.9-2.39,3.9ZM21.1,15l-2.39-3.9,2.39-3.9,2.39,3.9ZM16.64,25.37a2.74,2.74,0,0,0-.21,1.44c0.06,0.51,2.48,1.45,2.48,1.45s-3.34-.17-3.31.95c0,0,0,1.68,0,1.71a3.14,3.14,0,0,0,.11.5h0c0.49,3.34,2,9.43,6.71,5.66-0.08.42-1.66,3.4-1.71,3.92-0.24,2.44,2,4.25,2,4.25l-6.63,4.06s1.8-2.89,1.42-4.86C17,41.74,9.57,40.24,9.57,40.24s4.33-.12,5.34-0.28-0.14-1.72-.14-1.72a1.32,1.32,0,0,0-.85-0.69c-0.65-.1-3.78-1.2-3.78-1.2l2.78-1.23a14.45,14.45,0,0,1-1.15-3.22,25.73,25.73,0,0,1-.55-3.56l-9.53-2.6s5.66,0.19,8.35.4c1.79,0.14,1.56-1,1.6-1.79,0.06-1,.37-1.32-0.3-1.62C8.43,21.39.85,17.4,0.85,17.4l11.46,3.15a5.61,5.61,0,0,0,1.11-1c0.38-.53-1.14-13.35-1.14-13.35,4.79,15.23,5.94,14,9.1,14.94A9,9,0,0,0,16.64,25.37Z" transform="translate(-0.85 -0.68)"/></svg>