<svg id="Layer_1" data-name="Layer 1" xmlns="http://www.w3.org/2000/svg" viewBox="0 0 49 43.33"><defs><style>.cls-1{fill:#dbbd67;}</style></defs><title>Abilities_Icon_Gideon_BlackHole</title><circle class="cls-1" cx="6.97" cy="40.59" r="2.74"/><path class="cls-1" d="M174.73,280.3a22,22,0,0,1,5.7-9.86h0c0.76-3.63,5.18-7.58,6.91-9a0.26,0.26,0,0,0-.12-0.1c-3.75,2.25-8.57,7.33-8.57,7.33a24.49,24.49,0,0,0-3.91,29.56,5.22,5.22,0,0,1,2.16-1.3A21.86,21.86,0,0,1,174.73,280.3Z" transform="translate(-171.45 -261.32)"/><path class="cls-1" d="M219.6,279.61a24.48,24.48,0,0,0-6.35-11h0s-4.81-5.05-8.53-7.3a0.27,0.27,0,0,0-.14.1c1.75,1.45,6.14,5.38,6.89,9h0A22,22,0,0,1,215,296.9a5.22,5.22,0,0,1,2.18,1.28A24.36,24.36,0,0,0,219.6,279.61Z" transform="translate(-171.45 -261.32)"/><circle class="cls-1" cx="42.07" cy="40.59" r="2.74"/><path class="cls-1" d="M207,281.31h0a12.13,12.13,0,0,0-6.6-6.6h0s-3.56-1.41-4.57-3.62c-1,2.21-4.57,3.62-4.57,3.62h0a12.13,12.13,0,0,0-6.6,6.6h0s-1.41,3.56-3.62,4.57c2.21,1,3.62,4.57,3.62,4.57h0a12.13,12.13,0,0,0,6.6,6.6h0s3.56,1.41,4.57,3.62c1-2.21,4.57-3.62,4.57-3.62h0a12.13,12.13,0,0,0,6.6-6.6h0s1.41-3.56,3.62-4.57C208.45,284.87,207,281.31,207,281.31Zm-6.44,5.92a4.94,4.94,0,0,1-4.74,3.6,4.88,4.88,0,0,1-1.28-.19,4.8,4.8,0,0,1-3.2-2.7s-0.05-.09-0.07-0.13A5,5,0,1,1,200.61,287.23Z" transform="translate(-171.45 -261.32)"/></svg>