<svg id="Layer_1" data-name="Layer 1" xmlns="http://www.w3.org/2000/svg" viewBox="0 0 35.14 49.31"><defs><style>.cls-1{fill:#dbbd67;}</style></defs><title>Abilities_Icon_Sparrow_InnerFire</title><path class="cls-1" d="M213.2,353.3a8.67,8.67,0,0,1-3.25,1.07h-0.24a8.57,8.57,0,0,1-.94-0.17,4.52,4.52,0,0,0-1-.15,2.22,2.22,0,0,0-1.31.45c-1.08.75-2.43,1.63-2.45,1.64l-0.51.33,3.07,0.76a33.23,33.23,0,0,0-9.48,13.55V351.45l2.47,2,0-.6s-0.12-1.63-.18-2.94a2.47,2.47,0,0,0-1.16-2,8.56,8.56,0,0,1-.71-0.64c-0.92-1-1.28-3.39-1.28-3.41h-0.52s-0.36,2.46-1.28,3.41a8.57,8.57,0,0,1-.71.64,2.47,2.47,0,0,0-1.16,2c-0.06,1.31-.18,2.92-0.18,2.94l0,0.6,2.46-2v19.3a33.24,33.24,0,0,0-9.48-13.55l3.07-.76-0.51-.33s-1.37-.89-2.45-1.64a2.22,2.22,0,0,0-1.31-.45,4.52,4.52,0,0,0-1,.15,8.56,8.56,0,0,1-.94.17h-0.24a8.67,8.67,0,0,1-3.24-1.07l-0.32.41s1.73,1.78,1.93,3.09a8.53,8.53,0,0,1,.08,1,2.47,2.47,0,0,0,.89,2.14c1,0.84,2.21,1.92,2.22,1.93l0.45,0.4-0.07-3.16c3.06,2.53,10.89,10.43,10.89,24.84v2.39l0.86,6.83h0.52l1-6.87v-2.36c0-14.4,7.84-22.31,10.9-24.85l-0.07,3.16,0.45-.4s1.22-1.09,2.22-1.93a2.47,2.47,0,0,0,.89-2.14,8.53,8.53,0,0,1,.08-1c0.2-1.31,1.91-3.07,1.93-3.09Z" transform="translate(-178.38 -343.83)"/></svg>