<svg id="Layer_1" data-name="Layer 1" xmlns="http://www.w3.org/2000/svg" viewBox="0 0 45.01 49.1"><defs><style>.cls-1{fill:#fff;}</style></defs><title>Abilities_Icon_FengMao_BrakeCheck</title><circle class="cls-1" cx="22.89" cy="22.51" r="4.7"/><path class="cls-1" d="M132.47,626.94a22.76,22.76,0,0,0-1.81-8.66l-0.65-1.4c-0.23-.46-0.52-0.89-0.77-1.35l-0.4-.67-0.46-.64c-0.32-.42-0.61-0.86-0.95-1.26a22.4,22.4,0,0,0-10.57-7.16,24.63,24.63,0,0,0-6.5-1l-1.64.06a11.63,11.63,0,0,0-1.64.17l-0.84.12-0.42.06-0.4.1-1.61.4a24.18,24.18,0,0,0-6,2.75A24.48,24.48,0,0,0,93,612.69c-0.35.4-.66,0.85-1,1.27l-0.48.64-0.42.68c-0.27.46-.58,0.89-0.82,1.36L89.54,618a23.42,23.42,0,0,0-2,8.89v0.32s0,0.14,0,.1v0.35l0,0.7c0,0.47,0,.91.08,1.4a22.83,22.83,0,0,0,.49,2.87L88.42,634c0.14,0.44.3,0.87,0.45,1.3a22.78,22.78,0,0,0,8.82,11.26,22.58,22.58,0,0,0,6.48,3l1.37,0.37L105.8,650c0-.07,0-0.15,0-0.22V647l-0.88-.22a19.75,19.75,0,0,1-5.74-2.52,20.82,20.82,0,0,1-5.87-5.67,21.2,21.2,0,0,1-2.18-4.16l-0.43-1.15-0.33-1.21-0.17-.61c-0.05-.2-0.07-0.41-0.11-0.61l-0.21-1.24c-0.07-.41-0.07-0.91-0.11-1.36l0-.7,0-.35V627a21.27,21.27,0,0,1,1.68-8.08l0.61-1.3c0.21-.43.48-0.83,0.72-1.26l0.37-.63,0.43-.59c0.29-.39.56-0.8,0.88-1.18a20.89,20.89,0,0,1,9.86-6.68l1.48-.4,0.37-.1,0.37-.06,0.75-.12a24,24,0,0,1,3.09-.29,23.2,23.2,0,0,1,6.11.84,22.68,22.68,0,0,1,5.58,2.56,23,23,0,0,1,4.56,4c0.33,0.38.62,0.79,0.93,1.18l0.45,0.6,0.39,0.63c0.25,0.43.54,0.83,0.77,1.27l0.66,1.32a21.9,21.9,0,0,1,1.92,8.31,12.59,12.59,0,0,1,0,1.36c0,0.46,0,.91-0.08,1.36a21.46,21.46,0,0,1-9.42,15.64,21.06,21.06,0,0,1-6.05,2.82l-1.25.34v0.1l1.28-.31a21.28,21.28,0,0,0,6.17-2.71,22.33,22.33,0,0,0,6.29-6.09,22.55,22.55,0,0,0,3.68-9.71c0.08-.46.07-0.93,0.11-1.4A13.35,13.35,0,0,0,132.47,626.94Z" transform="translate(-87.47 -604.77)"/><path class="cls-1" d="M124.11,636.47a17,17,0,0,0,2.8-7.3c0.06-.35.06-0.7,0.09-1.06a10,10,0,0,0,0-1.09,17.19,17.19,0,0,0-1.34-6.54,17.58,17.58,0,0,0-2.43-4,17,17,0,0,0-8-5.44,18.66,18.66,0,0,0-4.93-.8,19.23,19.23,0,0,0-2.48.17,17.55,17.55,0,0,0-2.48.5,18.36,18.36,0,0,0-4.55,2.07,18.59,18.59,0,0,0-3.72,3.24,18.08,18.08,0,0,0-2.61,4.07A17.82,17.82,0,0,0,92.92,627v0.25s0,0.13,0,.09v0.26l0,0.52c0,0.36,0,.68.06,1.06a17.45,17.45,0,0,0,.37,2.2l0.25,1,0.34,1a17.41,17.41,0,0,0,6.71,8.62,17.28,17.28,0,0,0,5,2.32l0.2,0.05v-3a14,14,0,0,1-3.65-1.66,15.29,15.29,0,0,1-4.32-4.14,15.61,15.61,0,0,1-1.61-3l-0.32-.85-0.24-.89a15.51,15.51,0,0,1-.36-1.8c-0.06-.3-0.05-0.68-0.09-1l0-.52,0-.25v-0.2a15.67,15.67,0,0,1,1.21-6,16,16,0,0,1,2.21-3.67,15.45,15.45,0,0,1,7.27-5,16.13,16.13,0,0,1,2.19-.51,17.81,17.81,0,0,1,2.3-.23,17.22,17.22,0,0,1,4.53.6A16.85,16.85,0,0,1,119,614.2a17.1,17.1,0,0,1,3.4,3,16.54,16.54,0,0,1,2.39,3.71,16.3,16.3,0,0,1,1.45,6.19,9.43,9.43,0,0,1,0,1c0,0.34,0,.68-0.05,1a16,16,0,0,1-7,11.71,15.6,15.6,0,0,1-4.32,2.06V643a15.83,15.83,0,0,0,4.47-2A16.8,16.8,0,0,0,124.11,636.47Z" transform="translate(-87.47 -604.77)"/><path class="cls-1" d="M119.59,633.45a11.25,11.25,0,0,0,1.14-10.77,11.87,11.87,0,0,0-1.63-2.74,11.48,11.48,0,0,0-5.4-3.73,12.88,12.88,0,0,0-3.31-.57l-0.89,0a6,6,0,0,0-.85.08,12,12,0,0,0-1.68.33,12.51,12.51,0,0,0-3.12,1.39,12.68,12.68,0,0,0-2.56,2.2,12.36,12.36,0,0,0-1.81,2.78,11.57,11.57,0,0,0-1,3.11,12.05,12.05,0,0,0-.16,1.49v0.81c0,0.26,0,.51,0,0.76a12.1,12.1,0,0,0,5.25,8.88,11.19,11.19,0,0,0,2.18,1.18V635.6a7.58,7.58,0,0,1-.67-0.38,9.71,9.71,0,0,1-2.78-2.62,9.91,9.91,0,0,1-1.67-4.23c0-.2,0-0.41-0.06-0.62l0-.31v-0.16a0.16,0.16,0,1,0,0,0h0v-0.13a10,10,0,0,1,.08-1.35,9.56,9.56,0,0,1,.66-2.53,10.38,10.38,0,0,1,1.4-2.38,10,10,0,0,1,4.68-3.25,11.44,11.44,0,0,1,2.88-.5,11.27,11.27,0,0,1,3,.37,11,11,0,0,1,2.72,1.2,11.16,11.16,0,0,1,2.24,1.91,10.86,10.86,0,0,1,1.59,2.42,10.6,10.6,0,0,1,1,5.42,10.6,10.6,0,0,1-4.57,7.77,9.14,9.14,0,0,1-1.35.78v0.23a9.43,9.43,0,0,0,1.5-.78A11.22,11.22,0,0,0,119.59,633.45Z" transform="translate(-87.47 -604.77)"/><path class="cls-1" d="M110.36,627.28l0.23,0.3c0.14,0.19.36,0.48,0.59,0.84s0.53,0.8.83,1.31l0.46,0.81a0.5,0.5,0,0,1,0,.44,2.07,2.07,0,0,0,0,.46v18.28a2.55,2.55,0,0,0,0,.46,0.46,0.46,0,0,1-.06.44l-0.47.81c-0.28.51-.57,0.95-0.81,1.31s-0.45.65-.58,0.84l-0.22.3-0.22-.3c-0.13-.19-0.35-0.48-0.58-0.84s-0.53-.8-0.81-1.31l-0.47-.81a0.46,0.46,0,0,1-.06-0.44,2.55,2.55,0,0,0,0-.46V631.43a2.07,2.07,0,0,0,0-.46,0.5,0.5,0,0,1,0-.44l0.46-.81c0.29-.51.59-0.95,0.83-1.31s0.46-.65.59-0.84Z" transform="translate(-87.47 -604.77)"/></svg>