<svg id="Layer_1" data-name="Layer 1" xmlns="http://www.w3.org/2000/svg" viewBox="0 0 31.18 49.14"><defs><style>.cls-1{fill:#fff;}</style></defs><title>Abilities_Icon_Dekker_EnergyOrb</title><path class="cls-1" d="M281.41,787.7a14.29,14.29,0,0,1,13.41,9.4l2.18-.79a16.56,16.56,0,0,0-7.84-9h0a6.27,6.27,0,0,1-2.58-2.69h0c-0.93-2.44-2.16-4-3.93-7.21a36.36,36.36,0,0,1,1.07,6.71,1.34,1.34,0,0,1-1.61,1.28h0l-0.72,0-0.72,0h0a1.35,1.35,0,0,1-1.61-1.33,36.27,36.27,0,0,1,1.06-6.66c-1.76,3.18-3,4.77-3.93,7.21h0a6.27,6.27,0,0,1-2.58,2.69h0a16.56,16.56,0,0,0-7.84,9L268,797.1A14.29,14.29,0,0,1,281.41,787.7Z" transform="translate(-265.82 -777.41)"/><path class="cls-1" d="M281.41,816.26a14.29,14.29,0,0,1-13.41-9.4l-2.18.79a16.56,16.56,0,0,0,7.84,9h0a6.26,6.26,0,0,1,2.58,2.69h0c0.93,2.44,2.16,4,3.93,7.21a36.27,36.27,0,0,1-1.06-6.66,1.35,1.35,0,0,1,1.61-1.33h0l0.72,0,0.72,0h0a1.34,1.34,0,0,1,1.61,1.28,36.37,36.37,0,0,1-1.07,6.71c1.76-3.17,3-4.77,3.93-7.21h0a6.26,6.26,0,0,1,2.58-2.69h0a16.56,16.56,0,0,0,7.84-9l-2.18-.79A14.29,14.29,0,0,1,281.41,816.26Z" transform="translate(-265.82 -777.41)"/><circle class="cls-1" cx="15.59" cy="24.57" r="5.74"/></svg>