<?xml version="1.0" encoding="utf-8"?>
<!-- Generator: Adobe Illustrator 19.2.1, SVG Export Plug-In . SVG Version: 6.00 Build 0)  -->
<svg version="1.1" id="Layer_1" xmlns="http://www.w3.org/2000/svg" xmlns:xlink="http://www.w3.org/1999/xlink" x="0px" y="0px"
	 viewBox="0 0 50 50" style="enable-background:new 0 0 50 50;" xml:space="preserve">
<style type="text/css">
	.st0{fill:#FFFFFF;}
</style>
<path id="RMB" class="st0" d="M34.4,20.1c0,0-1.6-5.5-4.8-2.9C28.8,18,29,20.7,29,20.7c1.4,0.7,2.6,1.6,3.7,2.7
	c1.4,1.5,1.8,3.6,1.1,5.5c-0.4,1.3-1.5,2.8-3.8,4.5c-1.8,1.3,0.3,2.3,0.3,2.3l1.7,0.6c0,0-1.5,1-2.5,0.6c-2-0.9-1.8,1.3-1.9,2.2
	c-0.5,4-1.2,10.1-1.2,10.1l-0.1-13.8c0.5-0.5,0.9-1,1.3-1.5c2.4-3.2,3.6-7.4,1.8-8.7c-0.8-0.5-1.9-0.4-3.1,0.2l-0.1-12.7l0-11.9
	L32.9,12c0.9,1.1,1.6,2.4,1.9,3.8C35,17.2,34.9,18.7,34.4,20.1z M20.6,25.2c-1.8,1.3-0.7,5.5,1.8,8.7c0.4,0.5,0.8,1,1.3,1.5
	l-0.1,13.8c0,0-0.7-6.2-1.2-10.1c-0.1-0.9,0.1-3.1-1.9-2.2c-0.9,0.4-2.5-0.6-2.5-0.6l1.7-0.6c0,0,2.2-1,0.3-2.3
	c-2.3-1.7-3.4-3.2-3.8-4.5c-0.7-1.9-0.3-4,1.1-5.5c1.1-1.1,2.3-2,3.7-2.7c0,0,0.2-2.7-0.6-3.4c-3.2-2.7-4.8,2.9-4.8,2.9
	c-0.4-1.4-0.6-2.9-0.4-4.4c0.4-1.4,1-2.7,1.9-3.8l6.7-11.3l0,11.9l-0.1,12.7C22.5,24.8,21.4,24.7,20.6,25.2z M19.4,39.6l2.8,9.7
	c-0.7-1.6-1.5-3.1-2.4-4.6c-0.6-0.8-1.2-1.5-2-2.1c0.5-0.2,0.8-0.5,1.1-0.9C19.1,41,19.3,40.3,19.4,39.6z M31.2,41.7
	c0.3,0.4,0.7,0.7,1.1,0.9c-0.8,0.6-1.5,1.3-2,2.1c-0.9,1.5-1.7,3-2.4,4.6l2.7-9.7C30.7,40.3,30.9,41,31.2,41.7z"/>
</svg>
