<svg id="Layer_1" data-name="Layer 1" xmlns="http://www.w3.org/2000/svg" viewBox="0 0 45.75 49.13"><defs><style>.cls-1{fill:#fff;}</style></defs><title>Abilities_Icons_Grux_Chop</title><path class="cls-1" d="M281.41,92.66a17.58,17.58,0,0,0-14.44,7.6l-0.11.16,1.59,3,1.17-2.59c2.41-1.55,4.44-2.33,6-2.33a3.4,3.4,0,0,1,2.56,1c1.61,1.68,1.5,4.87,1.5,4.91v21.49a7.58,7.58,0,0,1-2.38,4.89l-0.22.22,4.29,4.52L285.7,131l-0.22-.22a7.5,7.5,0,0,1-2.38-4.89v-21.5s-0.11-3.21,1.5-4.9a3.4,3.4,0,0,1,2.56-1c1.59,0,3.62.78,6,2.33l1.17,2.59,1.59-3-0.11-.16A17.58,17.58,0,0,0,281.41,92.66Z" transform="translate(-258.54 -86.42)"/><path class="cls-1" d="M303.9,105a23.2,23.2,0,0,0-2.18-6.32l-0.18-.31a21.4,21.4,0,0,0-1.67-2.61l-0.07-.1a11.16,11.16,0,0,0-1-1.26L297.59,93a25.91,25.91,0,0,0-5.53-4c-0.34-.18-0.7-0.35-1-0.49l-0.53-.24-0.78-.34-0.8-.26-0.55-.18c-0.35-.12-0.69-0.23-1-0.31l-1.6-.36a24.65,24.65,0,0,0-3.87-.37h-1.06a24.79,24.79,0,0,0-3.71.37A23.2,23.2,0,0,0,270.78,89l-0.31.18a21.42,21.42,0,0,0-2.61,1.67l-0.1.07a11.3,11.3,0,0,0-1.26,1l-1.35,1.21a26,26,0,0,0-4,5.53c-0.18.33-.34,0.7-0.49,1l0,0.08-0.2.45L260,101l-0.26.8-0.18.56c-0.12.35-.23,0.68-0.31,1l-0.36,1.6a21.72,21.72,0,0,0-.28,6.2,15.19,15.19,0,0,0,.31,2.2l0.12,0.63c0.2,0.85.46,1.65,0.7,2.42l0,0.14c0.12,0.27.22,0.55,0.33,0.82a14.74,14.74,0,0,0,.62,1.43l0.38,0.7c0.23,0.43.45,0.84,0.69,1.21l1.08,1.58c0.23,0.28.45,0.54,0.66,0.78l0.51-.37-0.52-.84-0.82-1.65c-0.18-.37-0.33-0.78-0.51-1.24-0.09-.23-0.17-0.46-0.27-0.69-0.16-.44-0.29-0.89-0.43-1.37-0.08-.27-0.15-0.54-0.24-0.82l0-.23c-0.15-.71-0.3-1.44-0.4-2.2,0-.28-0.05-0.56-0.08-0.85a11.84,11.84,0,0,1-.11-1.77,23.16,23.16,0,0,1,.59-5.59,23.92,23.92,0,0,1,2.15-5.56,23.27,23.27,0,0,1,3.74-5l1.09-1a9.24,9.24,0,0,1,1.09-.89l0.11-.08a17.84,17.84,0,0,1,2.18-1.45l0.38-.23a27.76,27.76,0,0,1,4-1.7,19.57,19.57,0,0,1,10.81,0,27.82,27.82,0,0,1,4,1.72,23.27,23.27,0,0,1,5,3.74l1,1.09a9.29,9.29,0,0,1,.88,1.08l0.09,0.12a17.79,17.79,0,0,1,1.45,2.17l0.23,0.39A22.14,22.14,0,0,1,302.15,111a11.94,11.94,0,0,1-.11,1.78c0,0.28-.06.57-0.08,0.85-0.1.76-.25,1.5-0.4,2.21l0,0.22c-0.08.27-.16,0.53-0.24,0.82-0.14.48-.26,0.93-0.43,1.37-0.1.24-.19,0.48-0.28,0.72-0.16.42-.31,0.83-0.49,1.2l-0.82,1.64-0.5.82,0.51,0.37c0.21-.24.42-0.49,0.65-0.76l1.08-1.58c0.24-.37.46-0.78,0.69-1.22l0.38-.7a14.33,14.33,0,0,0,.62-1.43c0.1-.27.21-0.54,0.33-0.81l0-.14c0.24-.77.5-1.57,0.7-2.42l0.11-.6a15.37,15.37,0,0,0,.31-2.23A21.69,21.69,0,0,0,303.9,105Z" transform="translate(-258.54 -86.42)"/></svg>