<svg id="Layer_1" data-name="Layer 1" xmlns="http://www.w3.org/2000/svg" viewBox="0 0 48.29 48.29"><defs><style>.cls-1{fill:#acab9c;}</style></defs><title>Abilities_Icon_Dekker_PowerShare</title><path class="cls-1" d="M476.59,798.58a4.8,4.8,0,0,0-3.38-1.41,19.94,19.94,0,0,0-14.54-14.53,4.81,4.81,0,0,0-9.63,0,19.94,19.94,0,0,0-14.54,14.53,4.81,4.81,0,0,0,0,9.62A20,20,0,0,0,449,821.34a4.81,4.81,0,0,0,9.62,0,20,20,0,0,0,14.54-14.54A4.81,4.81,0,0,0,476.59,798.58ZM472,797.33a4.78,4.78,0,0,0-3.34,3.1h-5.29a9.58,9.58,0,0,0-8-7.94v-5.28a4.78,4.78,0,0,0,3.12-3.33A18.69,18.69,0,0,1,472,797.33Zm-31.34-8.57a18.59,18.59,0,0,1,8.57-4.88,4.78,4.78,0,0,0,3.09,3.33v5.29a9.58,9.58,0,0,0-7.93,7.94h-5.29a4.78,4.78,0,0,0-3.34-3.1A18.59,18.59,0,0,1,440.63,788.76Zm-4.9,17.88a4.78,4.78,0,0,0,3.34-3.11h5.28a9.58,9.58,0,0,0,7.93,7.95v5.29a4.78,4.78,0,0,0-3.09,3.34A18.74,18.74,0,0,1,435.74,806.64Zm31.34,8.57a18.59,18.59,0,0,1-8.57,4.9,4.78,4.78,0,0,0-3.12-3.35v-5.28a9.58,9.58,0,0,0,8-8h5.28a4.78,4.78,0,0,0,3.34,3.11A18.59,18.59,0,0,1,467.08,815.21Z" transform="translate(-429.71 -777.84)"/></svg>