<svg id="Layer_1" data-name="Layer 1" xmlns="http://www.w3.org/2000/svg" viewBox="0 0 48.17 48.17"><defs><style>.cls-1{fill:#acab9c;}</style></defs><title>Abilities_Icon_Sparrow_DeadEye</title><path class="cls-1" d="M437.36,368.36l-7.59,9.5s4.6-.35,8.4-0.52,4.31-2.45,7.06-5.12c2.93-2.84,10.13-3.85,10.13-3.85s-7.2-1-10.13-3.85c-2.75-2.66-3.27-4.95-7.06-5.12s-8.4-.52-8.4-0.52Z" transform="translate(-429.77 -344.4)"/><path class="cls-1" d="M470.35,368.36l7.59-9.5s-4.6.35-8.4,0.52-4.31,2.45-7.06,5.12c-2.93,2.84-10.13,3.85-10.13,3.85s7.2,1,10.13,3.85c2.75,2.66,3.27,4.95,7.06,5.12s8.4,0.52,8.4.52Z" transform="translate(-429.77 -344.4)"/><path class="cls-1" d="M453.86,385l9.5,7.59s-0.35-4.6-.52-8.4-2.45-4.31-5.12-7.06c-2.84-2.93-3.85-10.13-3.85-10.13s-1,7.2-3.85,10.13c-2.66,2.75-4.95,3.27-5.12,7.06s-0.52,8.4-.52,8.4Z" transform="translate(-429.77 -344.4)"/><path class="cls-1" d="M453.86,352l-9.5-7.59s0.35,4.6.52,8.4,2.45,4.31,5.12,7.06c2.84,2.93,3.85,10.13,3.85,10.13s1-7.2,3.85-10.13c2.66-2.75,4.95-3.27,5.12-7.06s0.52-8.4.52-8.4Z" transform="translate(-429.77 -344.4)"/></svg>