<svg id="Layer_1" data-name="Layer 1" xmlns="http://www.w3.org/2000/svg" viewBox="0 0 48.75 49.22"><defs><style>.cls-1{fill:#fff;}</style></defs><title>Abilities_Icon_Howitzer_Rocket</title><path class="cls-1" d="M33.78,704.77L30,708.57a8.08,8.08,0,0,0-9.94,0l-3.81-3.81-1.44,1.44L18.59,710a8.08,8.08,0,0,0,0,9.94l-3.81,3.81,1.44,1.44L20,721.39a8.08,8.08,0,0,0,9.94,0l3.81,3.81,1.44-1.44L31.41,720a8.08,8.08,0,0,0,0-9.94l3.81-3.81ZM25,719A4.05,4.05,0,1,1,29.05,715,4.06,4.06,0,0,1,25,719Z" transform="translate(-0.63 -690.37)"/><path class="cls-1" d="M48.09,712.28a23.2,23.2,0,0,0-6.66-13.73l1-1a24.65,24.65,0,0,0-34.82,0l1,1a23.2,23.2,0,0,0-6.66,13.73l-1.29-.64v6.7l1.29-.64a23.2,23.2,0,0,0,6.66,13.73l-1,1a24.65,24.65,0,0,0,34.82,0l-1-1a23.2,23.2,0,0,0,6.66-13.73l1.29,0.64v-6.7Zm-7.61,18.18-0.94-.94a20.58,20.58,0,0,1-29.07,0l-0.94.94A21.83,21.83,0,0,1,3.21,717L7.3,715l-4.09-2.05a21.84,21.84,0,0,1,6.32-13.42l0.94,0.94a20.58,20.58,0,0,1,29.07,0l0.94-.94a21.84,21.84,0,0,1,6.32,13.42L42.7,715,46.79,717A21.83,21.83,0,0,1,40.47,730.46Z" transform="translate(-0.63 -690.37)"/></svg>