<svg id="Layer_1" data-name="Layer 1" xmlns="http://www.w3.org/2000/svg" viewBox="0 0 47.83 47.83"><defs><style>.cls-1{fill:#fff;}</style></defs><title>Abilities_Icon_Twinblast_VortexGrenade</title><path class="cls-1" d="M132.78,970.31a22.64,22.64,0,0,0-2-9.26l3.1-3.1L122.33,946.4l-3.1,3.1a22.6,22.6,0,0,0-18.51,0l-3.1-3.1L86.06,958l3.1,3.1a22.6,22.6,0,0,0,0,18.51l-3.1,3.1,11.56,11.56,3.1-3.1a22.6,22.6,0,0,0,18.51,0l3.1,3.1,11.56-11.56-3.1-3.1A22.64,22.64,0,0,0,132.78,970.31Zm-22.86,15.16c-1.44,1.74-2.87,3.3-4.27,4.72a20.12,20.12,0,0,1-2-.54c0.75-.81,1.49-1.64,2.22-2.49a17.31,17.31,0,0,1-5.63-2.5l6-10.55-10.55,6a17.3,17.3,0,0,1-2.56-5.87c-0.87.74-1.72,1.49-2.55,2.26a20.1,20.1,0,0,1-.55-2c1.4-1.38,2.93-2.77,4.64-4.19-1.7-1.41-3.22-2.79-4.61-4.16a20.11,20.11,0,0,1,.56-2c0.83,0.77,1.68,1.52,2.54,2.26a17.3,17.3,0,0,1,2.53-5.72l10.55,6-6-10.55a17.3,17.3,0,0,1,5.76-2.53c-0.73-.86-1.48-1.7-2.24-2.52a20.17,20.17,0,0,1,2-.53c1.36,1.39,2.75,2.91,4.15,4.6,1.41-1.7,2.8-3.23,4.17-4.62a20.13,20.13,0,0,1,2.05.55c-0.75.81-1.49,1.64-2.22,2.5A17.29,17.29,0,0,1,119.8,956l-6,10.55,10.55-6a17.34,17.34,0,0,1,2.41,5.25q1.23-1.06,2.4-2.16a20.13,20.13,0,0,1,.59,2c-1.52,1.51-3.2,3-5.07,4.59,1.88,1.56,3.56,3.1,5.09,4.61a20.11,20.11,0,0,1-.58,2q-1.18-1.1-2.41-2.16a17.33,17.33,0,0,1-2.45,5.4l-10.55-6,6,10.55a17.3,17.3,0,0,1-5.74,2.53c0.72,0.84,1.45,1.66,2.2,2.47a20.14,20.14,0,0,1-2,.56C112.8,988.79,111.37,987.22,109.92,985.48Z" transform="translate(-86.06 -946.4)"/></svg>