<svg id="Layer_1" data-name="Layer 1" xmlns="http://www.w3.org/2000/svg" viewBox="0 0 47.83 43.8"><defs><style>.cls-1{fill:#fff;}</style></defs><title>Abilities_Icon_Gadget_GateBomb</title><path class="cls-1" d="M120.37,1044.22c-0.55-.22-1.37-2.46-1.76-3.53-1-2.65-2.18-5.94-5.21-5.94-2.28,0-3.53,1.88-4.43,3.94h4.13a0.81,0.81,0,0,1,.28-0.27c0.55,0.22,1.37,2.46,1.76,3.53,1,2.65,2.18,5.94,5.21,5.94h0c2.29,0,3.53-1.88,4.43-3.94h-4.13A0.81,0.81,0,0,1,120.37,1044.22Z" transform="translate(-86.06 -1034.75)"/><path class="cls-1" d="M106.47,1044.22c-0.55-.22-1.37-2.46-1.76-3.53-1-2.65-2.18-5.94-5.2-5.94-2.28,0-3.53,1.88-4.43,3.94H99.2a0.81,0.81,0,0,1,.28-0.27c0.55,0.22,1.37,2.46,1.76,3.53,1,2.65,2.18,5.94,5.2,5.94h0c2.29,0,3.53-1.88,4.43-3.94h-4.13A0.81,0.81,0,0,1,106.47,1044.22Z" transform="translate(-86.06 -1034.75)"/><path class="cls-1" d="M92.63,1044.17v-9.42a6.57,6.57,0,0,0-.33,13.13l0.24,0h0.09c2.23,0,3.46-1.91,4.34-3.94H92.84A1,1,0,0,1,92.63,1044.17Z" transform="translate(-86.06 -1034.75)"/><path class="cls-1" d="M122.89,1038.69H127a0.8,0.8,0,0,1,.29-0.26v-3.68C125,1034.75,123.78,1036.63,122.89,1038.69Z" transform="translate(-86.06 -1034.75)"/><path class="cls-1" d="M127.32,1034.75v13.15A6.57,6.57,0,0,0,127.32,1034.75Z" transform="translate(-86.06 -1034.75)"/><rect class="cls-1" x="13" y="19.63" width="2.5" height="18.55"/><rect class="cls-1" x="22.66" y="19.63" width="2.5" height="24.17"/><rect class="cls-1" x="32.33" y="19.63" width="2.5" height="18.55"/></svg>