<svg id="Layer_1" data-name="Layer 1" xmlns="http://www.w3.org/2000/svg" viewBox="0 0 30 48.92"><defs><style>.cls-1{fill:#fff;}</style></defs><title>Abilities_Icon_FengMao_MadDash</title><path class="cls-1" d="M26.17,645.11h0c0-1,0-2.14,0-2.29V625a4.1,4.1,0,0,0-2.33,0v17.77c0,0.15,0,1.3,0,2.3h0s-1.59,3.4-3.26,4a29.17,29.17,0,0,0,3.44-.88l0.1,0.55c0.15,0.88.32,1.64,0.45,2.27,0.26,1.26.45,2.73,0.45,2.73s0.19-1.47.45-2.73c0.13-.63.29-1.39,0.45-2.27l0.1-.56a29.12,29.12,0,0,0,3.45.88C27.76,648.51,26.17,645.11,26.17,645.11Z" transform="translate(-10 -604.85)"/><path class="cls-1" d="M38.27,635a11.74,11.74,0,0,1-3.47,1.2c-0.55,0,.55-1,0.55-1h0A20.9,20.9,0,0,0,40,627.9l-0.5-.29a11.73,11.73,0,0,1-2.4,2.77c-0.45.32,0-1.16,0-1.16h0a20.9,20.9,0,0,0,.36-8.67H36.84a11.74,11.74,0,0,1-.69,3.6c-0.23.5-.61-1-0.61-1h0a20.9,20.9,0,0,0-4-7.69l-0.5.29a11.74,11.74,0,0,1,1.2,3.46c0.05,0.56-1-.55-1-0.55h0a20.43,20.43,0,0,0-2.39-2h0a6.51,6.51,0,0,1-2.63-4.85c0-.12,0-0.24,0-0.36,0-3.83,2.91-2.25,2.91-2.25L25,604.86h0l-4.1,4.37s2.91-1.58,2.91,2.26h0v0.06h0a4.43,4.43,0,0,1-4.28,4.78h0a17.7,17.7,0,0,0-3,.28v0.58a11.74,11.74,0,0,1,3.6.69c0.51,0.23-1,.61-1,0.61h0a20.9,20.9,0,0,0-7.69,4l0.29,0.5a11.74,11.74,0,0,1,3.46-1.2c0.56-.05-0.55,1-0.55,1h0A20.9,20.9,0,0,0,10,630.19l0.5,0.29a11.74,11.74,0,0,1,2.4-2.77c0.46-.33,0,1.16,0,1.16h0a20.9,20.9,0,0,0-.36,8.67h0.58a11.74,11.74,0,0,1,.69-3.6c0.23-.51.61,1,0.61,1h0a20.9,20.9,0,0,0,4,7.69l0.5-.29a11.74,11.74,0,0,1-1.2-3.46c0-.56,1,0.55,1,0.55h0a20.68,20.68,0,0,0,2.88,2.35v-6.37a7.14,7.14,0,1,1,6.57,0v6.29a19.94,19.94,0,0,0,5.22-.21v-0.58a11.73,11.73,0,0,1-3.6-.69c-0.5-.23,1-0.61,1-0.61h0a20.9,20.9,0,0,0,7.69-4Z" transform="translate(-10 -604.85)"/></svg>