<svg id="Layer_1" data-name="Layer 1" xmlns="http://www.w3.org/2000/svg" viewBox="0 0 49.35 33"><defs><style>.cls-1{fill:#fff;}</style></defs><title>Abilities_Icon_Muriel_ShieldHeal</title><path class="cls-1" d="M109.93,899.48c-12.35,0-22.4-4.51-22.4-10a22.35,22.35,0,0,1,1.12-7v0h0c0.58,0.24,1.2.47,1.84,0.68h0v0a20.29,20.29,0,0,0-1,6.3c0,3.79,8.72,8,20.38,8s20.38-4.24,20.38-8a20.29,20.29,0,0,0-1-6.27v0h0c0.65-.21,1.27-0.44,1.84-0.68h0v0a22.35,22.35,0,0,1,1.11,7C132.33,895,122.28,899.48,109.93,899.48Z" transform="translate(-85.3 -866.48)"/><path class="cls-1" d="M127.79,875l-0.26-.35Z" transform="translate(-85.3 -866.48)"/><path class="cls-1" d="M128.29,875.63l-0.13-.18Z" transform="translate(-85.3 -866.48)"/><path class="cls-1" d="M91.6,875.63l0.15-.2Z" transform="translate(-85.3 -866.48)"/><path class="cls-1" d="M92.09,875l0.26-.35Z" transform="translate(-85.3 -866.48)"/><path class="cls-1" d="M125.39,869.21a25.53,25.53,0,0,1,3.1,2.81c2.78,1,4.29,2.13,4.29,3.11a2,2,0,0,1-.88,1.38h-0.08s-1.69,1.57-3.53-.9a23,23,0,0,0-36.66,0h0c-1.48,2-2.86,1.36-3.35,1a2.15,2.15,0,0,1-1.07-1.53c0-1,1.46-2.08,4.16-3.07a25.53,25.53,0,0,1,3.1-2.83c-5.36,1.26-9.13,3.24-9.13,5.9,0,3.4,6.2,5.71,14,6.79h0a9.64,9.64,0,0,1,6.41,3.77c-4.21.53-7.19,1.82-7.19,3.34,0,2,5.13,3.59,11.45,3.59S121.42,891,121.42,889c0-1.51-3-2.8-7.19-3.34a9.65,9.65,0,0,1,6.42-3.77h0c7.81-1.08,14-3.39,14-6.79C134.65,872.46,130.82,870.47,125.39,869.21Zm-5.68,11-1.42.17a83.74,83.74,0,0,1-17,0l-1-.12-1.7-.24c-5.38-1-3.92-3.1-3.78-3.29h0a19.79,19.79,0,0,1,30.28,0S127.29,879.36,119.71,880.18Z" transform="translate(-85.3 -866.48)"/></svg>