<svg id="Layer_1" data-name="Layer 1" xmlns="http://www.w3.org/2000/svg" viewBox="0 0 28.37 49.37"><defs><style>.cls-1{fill:#fff;}</style></defs><title>Abilities_Icon_Muriel_Orb</title><path class="cls-1" d="M281.52,907.65a96,96,0,0,1,2.31-15.22l-0.57.59-1.86,1.86L279.55,893l-0.39-.41a95.4,95.4,0,0,1,2.27,15A0.07,0.07,0,0,0,281.52,907.65Z" transform="translate(-267.23 -858.3)"/><path class="cls-1" d="M281.41,887.53l-2.18-2.45c-0.5-.56-0.94-1.13-1.35-1.7,0,2.3.88,5,3.53,8,2.65-3,3.53-5.7,3.53-8-0.41.57-.86,1.14-1.35,1.7Z" transform="translate(-267.23 -858.3)"/><path class="cls-1" d="M291.85,876h0a17.71,17.71,0,0,0-6.14-12s-4.3-4-4.3-5.74c0,1.78-4.3,5.74-4.3,5.74l0,0A17.72,17.72,0,0,0,271,876s-0.48,8.74-3.74,12a17.28,17.28,0,0,0,5.71-11.85,14.32,14.32,0,0,1,3-7.56s2.71-2.79,2.71,7.56h0a9.36,9.36,0,0,0,2.8,7.57,9.36,9.36,0,0,0,2.8-7.57h0c0-9.76,2.4-7.84,2.68-7.59a14.33,14.33,0,0,1,3,7.59h0A17.28,17.28,0,0,0,295.6,888C292.33,884.77,291.85,876,291.85,876Zm-13.67-12.79h0Z" transform="translate(-267.23 -858.3)"/></svg>