<svg id="Layer_1" data-name="Layer 1" xmlns="http://www.w3.org/2000/svg" viewBox="0 0 19.99 48.3"><defs><style>.cls-1{fill:#fff;}</style></defs><title>Abilities_Icon_Gadget_PlasmaBlast</title><path class="cls-1" d="M290.17,1047.29l0,0a10,10,0,0,0-8.76-14.75h0a10,10,0,0,0-8.78,14.75l0,0a5.68,5.68,0,0,1-1,7.29l3.82,6.64-2.14-6.31c3.2-3.7.78-8,.54-8.36a8.56,8.56,0,0,1,7.51-12.62h0.06a8.56,8.56,0,0,1,7.51,12.62c-0.24.4-2.65,4.65,0.54,8.36l-2.14,6.31,3.82-6.63h0A5.71,5.71,0,0,1,290.17,1047.29Z" transform="translate(-271.42 -1032.5)"/><path class="cls-1" d="M281.41,1036.55a5.93,5.93,0,0,0-4.78,9.46h0l0.13,0.16,0,0c0.6,0.8,2.74,4,.93,7.24l-0.46.81,2.29,4,0.83-1.44-1.47-2.56,2.54-4.48,2.54,4.48-2.54,4.48h0l-0.82,1.45h0l-3.31,5.84,0.87,1.53a30.38,30.38,0,0,1,3.26,12.1v1.14c0-.27,0-0.53,0-0.8,0,0.26,0,.53,0,0.8v-1.14a30.39,30.39,0,0,1,3.26-12.1l-0.07.08,0.91-1.61-2.11-3.72-0.81,1.47,1.28,2.25-2.49,4.39-2.49-4.39,2.49-4.39h0l0.82-1.45h0l3.36-5.93-0.79-1.4c-1.47-3.54,1.36-6.85,1.36-6.85h0A5.93,5.93,0,0,0,281.41,1036.55Zm0,9.07a3.13,3.13,0,1,1,3.13-3.13A3.13,3.13,0,0,1,281.41,1045.62Z" transform="translate(-271.42 -1032.5)"/></svg>