<svg id="Layer_1" data-name="Layer 1" xmlns="http://www.w3.org/2000/svg" viewBox="0 0 47.11 36.81"><defs><style>.cls-1{fill:#dbbd67;}</style></defs><title>Abilities_Icon_Gadget_TeslaBomb</title><path class="cls-1" d="M200.75,1038.24c0,0.15,0,.3,0,0.45a1.88,1.88,0,0,1,1.2,1.47c0,1.35-2.67,2.45-6,2.45s-6-1.1-6-2.45a1.88,1.88,0,0,1,1.2-1.47q0-.22,0-0.45a23.55,23.55,0,0,0-18.75,23.05c0,7.6,10.54,13.76,23.55,13.76s23.55-6.16,23.55-13.76A23.55,23.55,0,0,0,200.75,1038.24Zm10.42,30.32a33.63,33.63,0,0,1-30.44,0c-2.05-1.2-5.49-3.73-5.49-7.27a20.7,20.7,0,0,1,9.18-17.19c5.74-3.3,8.79,4,10.28,10.1,0.11,0.57.31,2.69-2.89,3.29h0c-3.37.67-5.71,2.12-5.71,3.8,0,2.32,4.41,4.19,9.85,4.19s9.85-1.88,9.85-4.19c0-1.69-2.34-3.14-5.71-3.8h0c-3.2-.6-3-2.72-2.89-3.29,1.49-6.09,4.53-13.4,10.28-10.1a20.71,20.71,0,0,1,9.18,17.19C216.66,1064.83,213.22,1067.37,211.17,1068.57Z" transform="translate(-172.39 -1038.24)"/></svg>