<svg id="Layer_1" data-name="Layer 1" xmlns="http://www.w3.org/2000/svg" viewBox="0 0 43.29 48.87"><defs><style>.cls-1{fill:#acab9c;}</style></defs><title>Abilities_Icon_Kallari_Stalker</title><path class="cls-1" d="M450.21,545.66c-6.23-7.07-14.2-17.53-17.78-28.12,6,2.36,12.67,6.74,19.75,13-0.77.71-1.54,1.45-2.3,2.18a86.43,86.43,0,0,0-10-7.64l-0.51.47a105.82,105.82,0,0,0,12.93,17.78C451.62,544.15,450.91,544.92,450.21,545.66Z" transform="translate(-432.21 -517.55)"/><path class="cls-1" d="M470.89,563.94l-6.37-6.84-5.68-2.46c-0.25-.23-1.54-1.43-3.41-3.34,0.71-.75,1.43-1.52,2.14-2.3,1.32,1.34,2.3,2.29,2.79,2.75l0,0,6.51,2.83-2.61-6.95,0,0c-0.92-1.12-4.22-5.06-8.81-9.63,0.81-.78,1.56-1.48,2.3-2.16a133.42,133.42,0,0,1,9.13,10.07l2.29,6.1,6.31,6.78v7.63Z" transform="translate(-432.21 -517.55)"/><path class="cls-1" d="M451.42,538.81c-0.67-.81-1.34-1.63-2-2.46,6.49-6.56,16.12-15,25.85-18.81-2.16,6.4-6.15,13.44-11.87,20.92-0.7-.76-1.42-1.53-2.16-2.29a92.47,92.47,0,0,0,7-10.61l-0.51-.47A99.78,99.78,0,0,0,451.42,538.81Z" transform="translate(-432.21 -517.55)"/><path class="cls-1" d="M432.21,558.79l6.31-6.78,2.29-6.1c0.21-.27,1.42-1.76,3.34-3.93,0.66,0.83,1.33,1.66,2,2.46-1.32,1.49-2.27,2.63-2.72,3.18l0,0-2.61,7,6.51-2.83,0,0c1.35-1.28,4.9-4.74,9.06-9.57,0.73,0.76,1.45,1.53,2.15,2.3a132.73,132.73,0,0,1-9.68,10.16l-5.68,2.46-6.37,6.85-4.61,2.48v-7.63Z" transform="translate(-432.21 -517.55)"/></svg>