<svg id="Layer_1" data-name="Layer 1" xmlns="http://www.w3.org/2000/svg" viewBox="0 0 43.93 49.26"><defs><style>.cls-1{fill:#fff;}</style></defs><title>Abilities_Icons_Hero_Cannon</title><path class="cls-1" d="M281.41,690.35a22,22,0,0,0-22,22h1.8a20.16,20.16,0,1,1,40.32,0h1.8A22,22,0,0,0,281.41,690.35Z" transform="translate(-259.45 -690.35)"/><path class="cls-1" d="M284.73,699.67a26.14,26.14,0,0,0-6.64,0c-4.35.56-7.5,2.18-7.5,4.1v0s0,0,0,0v13.75c0,1.3,1.41,2.46,3.64,3.26V707a17.67,17.67,0,0,0,2.87.73v13.86a24.22,24.22,0,0,0,2.87.32V708c0.47,0,.95,0,1.44,0s1,0,1.44,0V721.9a24.23,24.23,0,0,0,2.87-.32V707.72a17.67,17.67,0,0,0,2.87-.73v13.85c2.23-.8,3.64-2,3.64-3.26V703.83s0,0,0,0v0C292.23,701.85,289.08,700.23,284.73,699.67Zm-3.32,5.57c-3.85,0-7-.86-7-1.92s3.12-1.92,7-1.92,7,0.86,7,1.92S285.26,705.24,281.41,705.24Z" transform="translate(-259.45 -690.35)"/><path class="cls-1" d="M280.45,725.65v14h1.91v-14l-1,0Z" transform="translate(-259.45 -690.35)"/><path class="cls-1" d="M285.24,734.83h1.91v-9.76c-0.62.14-1.26,0.25-1.91,0.34v9.42Z" transform="translate(-259.45 -690.35)"/><path class="cls-1" d="M275.67,734.83h1.91v-9.42c-0.65-.09-1.29-0.2-1.91-0.34v9.76Z" transform="translate(-259.45 -690.35)"/></svg>