<svg id="Layer_1" data-name="Layer 1" xmlns="http://www.w3.org/2000/svg" viewBox="0 0 48.75 44.26"><defs><style>.cls-1{fill:#fff;}</style></defs><title>Abilities_Icon_Twinblast_Doubleshot</title><polygon class="cls-1" points="8.96 35.31 12.73 44.27 16.58 27.69 0 31.53 8.96 35.31"/><polygon class="cls-1" points="32.17 27.69 36.02 44.27 39.8 35.31 48.75 31.53 32.17 27.69"/><path class="cls-1" d="M281.41,983.74a15.66,15.66,0,0,1-6-1.19l-0.93,4a19.77,19.77,0,0,0,13.86,0l-0.93-4A15.65,15.65,0,0,1,281.41,983.74Z" transform="translate(-257.04 -948.18)"/><path class="cls-1" d="M274.48,949.44l0.93,4a15.72,15.72,0,0,1,12,0l0.93-4A19.77,19.77,0,0,0,274.48,949.44Z" transform="translate(-257.04 -948.18)"/><path class="cls-1" d="M272.12,953.7l-0.35-1.49a18.75,18.75,0,0,0-6.13,6.14l1.49,0.35A17.17,17.17,0,0,1,272.12,953.7Z" transform="translate(-257.04 -948.18)"/><path class="cls-1" d="M295.7,958.7l1.49-.35a18.75,18.75,0,0,0-6.13-6.14l-0.35,1.49A17.16,17.16,0,0,1,295.7,958.7Z" transform="translate(-257.04 -948.18)"/><path class="cls-1" d="M297.16,968a15.66,15.66,0,0,1-1.19,6l4,0.93a19.77,19.77,0,0,0,0-13.86l-4,.93A15.66,15.66,0,0,1,297.16,968Z" transform="translate(-257.04 -948.18)"/><path class="cls-1" d="M266.86,974a15.72,15.72,0,0,1,0-12l-4-.93a19.77,19.77,0,0,0,0,13.86Z" transform="translate(-257.04 -948.18)"/><circle class="cls-1" cx="268.09" cy="954.67" transform="translate(-867.87 -452.59) rotate(-46.74)"/><circle class="cls-1" cx="24.38" cy="19.81" r="3.04"/></svg>