<?xml version="1.0" encoding="utf-8"?>
<!-- Generator: Adobe Illustrator 19.2.1, SVG Export Plug-In . SVG Version: 6.00 Build 0)  -->
<svg version="1.1" id="Layer_1" xmlns="http://www.w3.org/2000/svg" xmlns:xlink="http://www.w3.org/1999/xlink" x="0px" y="0px"
	 viewBox="0 0 50 50" style="enable-background:new 0 0 50 50;" xml:space="preserve">
<style type="text/css">
	.st0{fill:#FFFFFF;}
</style>
<g id="Image_xA0_4">
	<g>
		<path class="st0" d="M29.4,12.3c0.3,0.4,0.7,0.8,1.1,1.1c0.4,0.3,0.8,0.7,1.2,1c0.4,0.3,0.8,0.6,1.1,0.9c0.3,0.3,0.6,0.6,0.8,1
			c0.2,0.4,0.3,0.8,0.3,1.2c0,0.8-0.3,1.7-0.8,2.8l0.1,0l0,0c0.8-0.3,1.4-0.7,2-1c0.6-0.4,1.2-0.8,1.7-1.3c0.6-0.5,1.1-1,1.4-1.5
			c0.4-0.5,0.7-1.2,0.9-1.9c0.2-0.7,0.3-1.5,0.3-2.3c0-0.7-0.1-1.3-0.3-1.8c-0.2-0.6-0.5-1-0.8-1.4c-0.3-0.4-0.7-0.8-1.1-1.1
			c-0.4-0.3-0.8-0.7-1.2-1c-0.4-0.3-0.8-0.6-1.1-0.9c-0.3-0.3-0.6-0.6-0.8-1c-0.2-0.4-0.3-0.8-0.3-1.2c0-0.8,0.3-1.7,0.8-2.8l0,0
			l0,0c-0.8,0.3-1.4,0.7-2,1c-0.6,0.4-1.2,0.8-1.7,1.3c-0.6,0.5-1.1,1-1.4,1.5c-0.4,0.5-0.7,1.2-0.9,1.9c-0.2,0.7-0.3,1.5-0.3,2.3
			c0,0.7,0.1,1.3,0.3,1.8C28.8,11.5,29,12,29.4,12.3z M28.5,29.1c0.2-0.5,1.9-2.4,3.9-4.5c0,0,0,0,0.1,0c0.2,0.1,0.4,0.1,0.5,0
			l1.4-1.4c0.2-0.2,0.2-0.4,0-0.6l-3-2.9c-0.2-0.2-0.4-0.2-0.6,0L29.5,21c-0.2,0.2-0.2,0.4-0.1,0.5c0.1,0.1,0,0.1,0,0.1
			c-2.1,2-3.9,3.6-4.4,3.8c-3.1,1.4-4.8-0.6-7.5,2.1l-9.8,9.7c-3.8,3.7-1.7,5.4,1,8c2.6,2.6,4.3,4.7,8.1,1l9.8-9.7
			C29.2,33.9,27.1,32.2,28.5,29.1z M7.3,27.9c0-9.8,7.9-17.7,17.7-17.7c0.2,0,0.4,0,0.6,0l0.4-3.4c-0.3,0-0.6,0-0.9,0
			c-11.6,0-21.1,9.4-21.1,21c0,2.9,0.6,5.7,1.7,8.3l2.7-2.4C7.7,31.9,7.3,29.9,7.3,27.9z M41.3,14.5c-0.2,0.8-0.4,1.8-0.6,2.6
			c0,0.2-0.1,0.3-0.2,0.5c2,3.1,3.2,6.7,3.2,10.7c0,10.9-9.1,19.8-20.4,19.8c-1.4,0-2.9-0.2-4.2-0.4L18.9,48c1.9,0.6,4,0.9,6.1,0.9
			c11.6,0,21.1-9.4,21.1-21C46.1,22.8,44.3,18.1,41.3,14.5z"/>
	</g>
</g>
</svg>
