<svg id="Layer_1" data-name="Layer 1" xmlns="http://www.w3.org/2000/svg" viewBox="0 0 37.75 47.68"><defs><style>.cls-1{fill:#fff;}</style></defs><title>Abilities_Icons_Grux_RipplingSmash</title><path class="cls-1" d="M41.06,96.63A29.75,29.75,0,0,0,36.77,94S36,93.56,34.7,92.94h0c-0.6-.29-1.29-0.61-2.05-0.93-2.4-1.14-6.21-3.13-7.63-4.86-1.42,1.72-5.23,3.71-7.63,4.86-0.76.32-1.45,0.64-2.05,0.93h0C14,93.56,13.23,94,13.23,94a29.75,29.75,0,0,0-4.29,2.59L6.13,98.51s3.78,0.21,9.81,13.3l5.39,11.7,1,2.14A42.26,42.26,0,0,1,25,134.82h0a42.26,42.26,0,0,1,2.69-9.17l1-2.14,5.39-11.7c6-13.09,9.81-13.3,9.81-13.3Zm-7.72,11.69h0q-0.51,1-1,2.2l-0.77,1.67C29.73,115.72,27,123.05,25,123.05s-4.73-7.33-6.52-10.86l-0.77-1.67q-0.53-1.16-1-2.2h0a40.08,40.08,0,0,0-6.28-9.76,27.45,27.45,0,0,1,3.87-2.25,8.72,8.72,0,0,1,7.06-.41h0l0.09,0a5.89,5.89,0,0,1,3.06,3.69h0l0.55,2,0.55-2h0a5.89,5.89,0,0,1,3.06-3.69l0.09,0h0a8.72,8.72,0,0,1,7.06.41,27.45,27.45,0,0,1,3.87,2.25A40.08,40.08,0,0,0,33.34,108.32Z" transform="translate(-6.13 -87.14)"/></svg>