<svg id="Layer_1" data-name="Layer 1" xmlns="http://www.w3.org/2000/svg" viewBox="0 0 30.82 48.48"><defs><style>.cls-1{fill:#fff;}</style></defs><title>Ability_Sevarog_Hammer</title><path id="LMB" class="cls-1" d="M38.73,24.58V11.13a1.68,1.68,0,0,1,1.68,1.68V22.9A1.68,1.68,0,0,1,38.73,24.58Zm-2.8,1.68H31.62l7.89,11.51-8.58-8.46-2,5.37,0.81-20.27a6.55,6.55,0,0,1,2.63-5h3.52a1.68,1.68,0,0,1,1.68,1.68V24.58a1.68,1.68,0,0,1-1.68,1.68h0ZM27.35,13.48L26.27,42.42,25,49.24l-1.35-7L22.37,13.48a6.89,6.89,0,0,0-1.23-4h2l1.58-8.69L26.3,9.45h2.28A6.89,6.89,0,0,0,27.35,13.48Zm-7.41.94,0.81,20.27-1.9-5.16-8.36,8.25,7.89-11.51H14.07a1.68,1.68,0,0,1-1.68-1.68h0V11.13a1.68,1.68,0,0,1,1.68-1.68h3.24a6.55,6.55,0,0,1,2.64,5h0ZM9.59,22.9V12.81a1.68,1.68,0,0,1,1.68-1.68V24.58A1.68,1.68,0,0,1,9.59,22.9Z" transform="translate(-9.59 -0.76)"/></svg>