<svg id="Layer_1" data-name="Layer 1" xmlns="http://www.w3.org/2000/svg" viewBox="0 0 49 39.24"><defs><style>.cls-1{fill:#fff;}</style></defs><title>Abilities_Icon_Rampage_Boulder</title><path class="cls-1" d="M9.51,456.86L4.33,450l6.5-8.47c-6.19-7.28-9.65-4.62-9.65-4.62s10.89,3.36-.68,13.15l8.14,10.74s8.9-5,8.9,6.54v4.58h1.93V460.88l-2.84-4H9.51Z" transform="translate(-0.5 -435.86)"/><polygon class="cls-1" points="37.78 16.61 39.83 13.91 34.51 6.88 29.7 6.88 24.54 0.1 24.54 0 24.5 0.05 24.46 0 24.46 0.1 19.3 6.88 14.49 6.88 9.18 13.91 11.22 16.61 17.99 16.61 23.54 24.63 23.54 39.24 25.46 39.24 25.46 24.63 31.01 16.61 37.78 16.61"/><path class="cls-1" d="M48.82,436.93s-3.47-2.65-9.65,4.62l6.5,8.47-5.18,6.84H33.37l-2.84,4v11.06h1.93v-4.58c0-8.94,8.9-6.54,8.9-6.54l8.14-10.74C37.93,440.28,48.82,436.93,48.82,436.93Z" transform="translate(-0.5 -435.86)"/></svg>