<svg id="Layer_1" data-name="Layer 1" xmlns="http://www.w3.org/2000/svg" viewBox="0 0 44.74 49.46"><defs><style>.cls-1{fill:#fff;}</style></defs><title>Abilities_Icon_Murdock_StaticLock</title><path class="cls-1" d="M130.09,199.8a17.42,17.42,0,0,0,0-5.64,7.11,7.11,0,0,0-7.11-12.3,19.27,19.27,0,0,0-4.87-2.81,7.11,7.11,0,0,0-14.21,0,19.28,19.28,0,0,0-4.84,2.81A7.11,7.11,0,0,0,92,194.19a17.38,17.38,0,0,0,0,5.57,7.11,7.11,0,0,0,7.1,12.31,19.28,19.28,0,0,0,4.84,2.81,7.11,7.11,0,0,0,14.21,0A19.28,19.28,0,0,0,123,212.1,7.11,7.11,0,0,0,130.09,199.8Zm-32,4.65a14.92,14.92,0,0,1,22.36-19l-7.63,7.63a4.31,4.31,0,0,0-5.74,5.74l-7.61,7.61A14.88,14.88,0,0,1,98.1,204.45Zm20.4,5.46a14.94,14.94,0,0,1-16.9-1.38l7.62-7.62a4.32,4.32,0,0,0,5.73-5.73l7.64-7.64A14.83,14.83,0,0,1,118.49,209.91Z" transform="translate(-88.63 -172.25)"/></svg>