<svg id="Layer_1" data-name="Layer 1" xmlns="http://www.w3.org/2000/svg" viewBox="0 0 35.84 49.09"><defs><style>.cls-1{fill:#fff;}</style></defs><title>Abilities_Icon_Kallari_Slash</title><path class="cls-1" d="M296.47,550l-11.21-9.56,11.21-9.56s1.91-2,1.91,4.5c0,0,2.14-7.42,0-12.67h0l-2.14-5.24s1.2,6.07-3.52,10.22L284,535.35a3.62,3.62,0,0,1-5.12,0l-8.75-7.69c-4.72-4.15-3.52-10.22-3.52-10.22l-2.14,5.24h0c-2.14,5.24,0,12.67,0,12.67,0-6.55,1.91-4.5,1.91-4.5l11.21,9.56L266.35,550c-3.83,3.26-1.91,8.17-1.91,8.17l2.14,5.24s0-.15-0.06-0.39l0.06,0.39,1.43,3.14,0.14,0c-0.74-2.16-1.81-5.76-1.39-7.6a10.56,10.56,0,0,1,3.35-5.72l8.75-7.69a3.62,3.62,0,0,1,5.13,0l8.75,7.69a10.56,10.56,0,0,1,3.35,5.72c0.41,1.82-.64,5.38-1.38,7.54l0.13,0.07,1.41-3.12,0.06-.39c0,0.24-.06.39-0.06,0.39l2.14-5.24S300.3,553.23,296.47,550Z" transform="translate(-263.49 -517.44)"/></svg>