<svg id="Layer_1" data-name="Layer 1" xmlns="http://www.w3.org/2000/svg" viewBox="0 0 28.32 49.3"><defs><style>.cls-1{fill:#fff;}</style></defs><title>Abilities_Icon_Rampage_Punch</title><path class="cls-1" d="M286.12,444.81l-6.64-14,2.8,13.79,0.9,12.65,0.59,9.19,0.31,13.68S285.48,469,288,462A47.45,47.45,0,0,1,286.12,444.81Z" transform="translate(-267.25 -430.83)"/><path class="cls-1" d="M277.13,459.26c0.11-1.39.25-6,.25-6s-1.38-4.14-1.2-5.21-2.66-12.16-2.66-12.16,0.27,3.55.4,11l-0.47,14.84,1.13,7.48a76.94,76.94,0,0,1-.5,8.29l3.76-12.08A46.86,46.86,0,0,1,277.13,459.26Z" transform="translate(-267.25 -430.83)"/><path class="cls-1" d="M269.26,449.94c0.54-3.13-.66-7.57-0.66-7.57a26.07,26.07,0,0,1-1.34,8.2l0.53,18a26.09,26.09,0,0,0,1.71-6C270.1,458.93,268.54,454.12,269.26,449.94Z" transform="translate(-267.25 -430.83)"/><path class="cls-1" d="M294,450.74a41.52,41.52,0,0,0-.31-5.77l-5.52-9.69,3.22,9.17s-0.11,8.2.39,9.67a40.69,40.69,0,0,1,1,6.17L293.31,471l2.26-12.25A27.21,27.21,0,0,1,294,450.74Z" transform="translate(-267.25 -430.83)"/></svg>