<svg id="Layer_1" data-name="Layer 1" xmlns="http://www.w3.org/2000/svg" viewBox="0 0 42.11 49.68"><defs><style>.cls-1{fill:#dbbd67;}</style></defs><title>Abilities_Icon_Muriel_ReversalofFortune</title><path class="cls-1" d="M217,870.93s-2.65,1.54-3.11,3.25h0q-0.24-.43-0.49-0.84h0s-2.09-7.36-1-11.44c0,0-3.86,3.89-2.78,6.94a48,48,0,0,1-8-10.7A23.29,23.29,0,0,0,205.41,869a17.81,17.81,0,0,0-18.93,0,23.29,23.29,0,0,0,3.77-10.84,48,48,0,0,1-8,10.7c1.08-3-2.78-6.94-2.78-6.94,1.12,4.08-1,11.44-1,11.44h0q-0.26.42-.49,0.84h0c-0.46-1.72-3.11-3.25-3.11-3.25,1.59,2.18,1.22,8,1.21,8.08a20.49,20.49,0,0,0,16.57,25.21,25.25,25.25,0,0,0-2.4-5.18,16,16,0,1,1,11.35,0,25.33,25.33,0,0,0-2.4,5.18A20.49,20.49,0,0,0,215.79,879S215.42,873.11,217,870.93Z" transform="translate(-174.89 -858.14)"/><path class="cls-1" d="M204,892.09a11.34,11.34,0,1,0-16,0s6.91,6.45,8,15.73C197.05,898.54,204,892.09,204,892.09ZM186.45,886a9.15,9.15,0,0,1-.06-3.48h2.28a7.41,7.41,0,0,1,5.49-5.6v-2.34a9.22,9.22,0,0,1,3.56,0v2.29a7.43,7.43,0,0,1,5.43,5.35h2.27a9.17,9.17,0,0,1,0,3.77h-2.32a7.42,7.42,0,0,1-5.47,5.36v2.3a9.12,9.12,0,0,1-3.48,0v-2.29a7.43,7.43,0,0,1-5.43-5.35h-2.28Z" transform="translate(-174.89 -858.14)"/></svg>