<svg id="Layer_1" data-name="Layer 1" xmlns="http://www.w3.org/2000/svg" viewBox="0 0 43.17 48.96"><defs><style>.cls-1{fill:#fff;}</style></defs><title>Abilities_Icon_FengMao_Sweep</title><path class="cls-1" d="M283.14,646.14V612.49c0-.29,0-0.57,0-0.84a2,2,0,0,0,0-.8l-0.37-1.49c-0.24-.93-0.48-1.74-0.68-2.41s-0.37-1.2-.48-1.55l-0.19-.55-0.19.55c-0.11.36-.3,0.88-0.48,1.55s-0.44,1.48-.68,2.41l-0.37,1.49a2,2,0,0,0,0,.8c0,0.27,0,.56,0,0.84v33.66c0,0.29,0,.57,0,0.84a1.8,1.8,0,0,0,0,.8l0.38,1.49c0.24,0.93.48,1.74,0.67,2.41s0.36,1.19.47,1.55l0.18,0.55,0.18-.55c0.11-.36.29-0.88,0.47-1.55s0.43-1.48.67-2.41l0.38-1.49a1.8,1.8,0,0,0,0-.8C283.13,646.71,283.14,646.43,283.14,646.14Z" transform="translate(-259.83 -604.84)"/><path class="cls-1" d="M276.89,646.78a22.91,22.91,0,0,1-2.73-1.19,17.93,17.93,0,0,1-3.82-2.89l-0.77-.84a7.9,7.9,0,0,1-.75-0.92,16.58,16.58,0,0,1-1.3-2,18.09,18.09,0,0,1-1.66-4.29,17.62,17.62,0,0,1-.46-4.31,18.15,18.15,0,0,1,.15-2c0.09-.65.22-1.28,0.35-1.88s0.32-1.16.51-1.69,0.38-1,.6-1.49l0.64-1.27,0.63-1a12.37,12.37,0,0,1,.92-1.31,0.18,0.18,0,0,0-.09-0.11l-0.47.43c-0.11.1-.22,0.2-0.34,0.32l-0.35.4c-0.24.29-.52,0.6-0.81,1l-0.83,1.22c-0.29.44-.53,1-0.82,1.47s-0.48,1.13-.73,1.73-0.41,1.28-.57,2a16.42,16.42,0,0,0-.33,2.19,16.78,16.78,0,0,0,.21,4.78,18,18,0,0,0,1.68,4.87,18.59,18.59,0,0,0,1.43,2.25,9.42,9.42,0,0,0,.83,1.05l0.93,1a20.09,20.09,0,0,0,4.27,3.12c0.39,0.21.8,0.38,1.19,0.56l0.6,0.26,0.62,0.2c0.41,0.13.81,0.28,1.23,0.38l0.27,0.06-0.08-.32A4.53,4.53,0,0,1,276.89,646.78Z" transform="translate(-259.83 -604.84)"/><path class="cls-1" d="M285.79,648.52l-0.08.32a18.4,18.4,0,0,0,3.9-1.46,18.62,18.62,0,0,0,2.25-1.43,9.33,9.33,0,0,0,1.05-.83l1-.93a20.11,20.11,0,0,0,3.12-4.27c0.21-.39.37-0.8,0.56-1.19l0.26-.6,0.2-.62c0.13-.41.28-0.81,0.38-1.23l0.27-1.24a18,18,0,0,0-.12-7c-0.17-.69-0.38-1.35-0.57-2s-0.46-1.2-.73-1.73-0.54-1-.82-1.47l-0.83-1.22c-0.29-.35-0.57-0.67-0.81-1l-0.35-.4c-0.12-.12-0.24-0.22-0.34-0.32l-0.54-.5h0a0.16,0.16,0,0,0-.09.07h0a15.43,15.43,0,0,1,1,1.4l0.63,1,0.64,1.27c0.22,0.45.39,1,.6,1.49s0.33,1.1.51,1.69,0.26,1.23.34,1.88a17.88,17.88,0,0,1-.31,6.34,18.21,18.21,0,0,1-1.66,4.29,18,18,0,0,1-2.89,3.82l-0.84.77a7.85,7.85,0,0,1-.92.75,16.52,16.52,0,0,1-2,1.3,22.41,22.41,0,0,1-2.73,1.19A4.55,4.55,0,0,1,285.79,648.52Z" transform="translate(-259.83 -604.84)"/><path class="cls-1" d="M286,609.57a21.19,21.19,0,0,1,4.54,1.5,21.51,21.51,0,0,1,7.21,5.41,21,21,0,0,1,4.17,7.26,21.54,21.54,0,0,1,.9,3.77,23.48,23.48,0,0,1,.18,3.6,21.48,21.48,0,0,1-.36,3.27,20.67,20.67,0,0,1-.77,2.85,19.28,19.28,0,0,1-1.94,4.06A21.63,21.63,0,0,0,302,631.13a21.36,21.36,0,0,0-1.47-6.86,21,21,0,0,0-4.15-6.52,20.73,20.73,0,0,0-6.69-4.75,19.42,19.42,0,0,0-3.43-1.16,5,5,0,0,0-.13-1.77Z" transform="translate(-259.83 -604.84)"/><path class="cls-1" d="M276.71,610.06a4.85,4.85,0,0,0-.13,1.77,18.9,18.9,0,0,0-3.43,1.16,21.35,21.35,0,0,0-3.61,2.05,20.52,20.52,0,0,0-3.08,2.69,21,21,0,0,0-4.16,6.53,22.17,22.17,0,0,0-1,3.47,21.52,21.52,0,0,0,1.62,13.55,19.33,19.33,0,0,1-1.93-4,20.43,20.43,0,0,1-1.13-6.15,23.14,23.14,0,0,1,.18-3.58,21.28,21.28,0,0,1,.9-3.77,21,21,0,0,1,4.17-7.26,22.3,22.3,0,0,1,3.26-3,20.23,20.23,0,0,1,3.94-2.37,21.55,21.55,0,0,1,4.55-1.51Z" transform="translate(-259.83 -604.84)"/><path class="cls-1" d="M277.89,638.29l-0.65-.11a9,9,0,0,1-1.82-.6,9.55,9.55,0,0,1-2.56-1.67,10.39,10.39,0,0,1-2.47-3.28,11.2,11.2,0,0,1-1.1-4.86,11.46,11.46,0,0,1,1.45-5.63,11.94,11.94,0,0,1,4.35-4.54,12.44,12.44,0,0,1,6.33-1.77,14.45,14.45,0,0,1,1.57.12l0.91,0.14c0.29,0.06.54,0.14,0.82,0.2a11.57,11.57,0,0,1,3,1.3,11.94,11.94,0,0,1,4.36,4.54,11.45,11.45,0,0,1,1.45,5.59l0,0.68v0.21a0.14,0.14,0,0,1,0,.09v0.09l0,0.28a12.74,12.74,0,0,1-.21,1.26,11,11,0,0,1-.81,2.3,10.38,10.38,0,0,1-2.47,3.28,9.53,9.53,0,0,1-2.56,1.67,9,9,0,0,1-1.82.59l-0.66.11,0.54-.38a13,13,0,0,0,1.38-1.16,11.17,11.17,0,0,0,1.66-2.09,9.81,9.81,0,0,0,1.21-3,8.75,8.75,0,0,0,.22-1.77c0-.27,0-0.53,0-0.94v-0.37a0.51,0.51,0,1,0,0,.05v0l0-.12-0.08-.47a8.52,8.52,0,0,0-1.48-3.56,9.14,9.14,0,0,0-1.33-1.49,9.6,9.6,0,0,0-1.66-1.15,8.19,8.19,0,0,0-1.89-.72l-0.49-.12-0.42-.06c-0.17-.06-1-0.05-1.11-0.08a8.45,8.45,0,0,0-3.91,1,9.49,9.49,0,0,0-1.66,1.15,9.23,9.23,0,0,0-1.33,1.49A8.63,8.63,0,0,0,273,628a9.25,9.25,0,0,0,.07,3.69,9.79,9.79,0,0,0,1.21,3,11.15,11.15,0,0,0,1.66,2.09,12.86,12.86,0,0,0,1.38,1.15Z" transform="translate(-259.83 -604.84)"/><path class="cls-1" d="M272.92,622.46s8.49-1.06,8.49,11.94V618.9Z" transform="translate(-259.83 -604.84)"/><path class="cls-1" d="M289.9,622.46s-8.49-1.63-8.49,11.37V618.9Z" transform="translate(-259.83 -604.84)"/></svg>