<svg id="Layer_1" data-name="Layer 1" xmlns="http://www.w3.org/2000/svg" viewBox="0 0 36.17 49.68"><defs><style>.cls-1{fill:#dbbd67;}</style></defs><title>Abilities_Icon_FengMao_TenaciousFury</title><path class="cls-1" d="M197.35,610.57l-0.3-1.51c-0.2-.95-0.39-1.77-0.55-2.45-0.32-1.36-.55-2.13-0.55-2.13s-0.23.78-.55,2.13c-0.16.68-.35,1.5-0.55,2.45l-0.3,1.51a2.56,2.56,0,0,0,0,.82c0,0.28,0,.56,0,0.85v34.16c0,0.29,0,.58,0,0.85a2.24,2.24,0,0,0,0,.82l0.31,1.51c0.19,0.95.38,1.77,0.54,2.45,0.31,1.36.53,2.13,0.53,2.13s0.22-.78.53-2.13c0.16-.68.35-1.5,0.54-2.45l0.31-1.51a2.24,2.24,0,0,0,0-.82c0-.28,0-0.56,0-0.85V612.24c0-.29,0-0.58,0-0.85A2.56,2.56,0,0,0,197.35,610.57Z" transform="translate(-177.86 -604.47)"/><path class="cls-1" d="M189.36,618.46c-0.58-.29-1.15-0.59-1.74-0.86-0.3-.13-0.61-0.24-0.91-0.37a3.13,3.13,0,0,0-.93-0.34c-0.69-.08-1.37-0.17-2-0.22s-1.35-.06-2,0-1.33.1-2,.17-1.28.23-1.89,0.37l1.79,0.52c0.57,0.2,1.13.41,1.67,0.61l1.56,0.7c0.5,0.26,1,.54,1.43.8a3,3,0,0,0,.74.3c0.26,0.08.5,0.19,0.75,0.28,0.48,0.22.94,0.47,1.42,0.7l1.33,0.81,1.23,0.91,1.11,1,1,1.09,0.43,0.59v-5.08l-1.3-1C190.45,619.12,189.91,618.78,189.36,618.46Z" transform="translate(-177.86 -604.47)"/><path class="cls-1" d="M212.16,616.78c-0.64-.07-1.31-0.12-2-0.17s-1.33,0-2,0-1.35.14-2,.22a3.47,3.47,0,0,0-.92.35c-0.3.14-.61,0.25-0.91,0.38-0.59.27-1.16,0.57-1.74,0.86s-1.09.66-1.63,1l-1.3,1v5.08l0.43-.59,1-1.09,1.11-1,1.23-.91,1.33-.81c0.47-.23.94-0.48,1.42-0.7,0.25-.09.49-0.2,0.75-0.28a3.57,3.57,0,0,0,.75-0.28c0.47-.25.93-0.54,1.43-0.8l1.55-.7c0.53-.2,1.07-0.42,1.65-0.62s1.21-.34,1.81-0.54C213.41,617,212.78,616.91,212.16,616.78Z" transform="translate(-177.86 -604.47)"/><path class="cls-1" d="M189.31,627.24c-0.26-.16-0.55-0.28-0.83-0.42a3.33,3.33,0,0,0-.86-0.38c-0.64-.14-1.31-0.21-1.94-0.3s-1.3-.08-1.93-0.09-1.27.08-1.88,0.13-1.22.23-1.8,0.36l1.67,0.53c0.53,0.22,1,.41,1.53.64s1,0.47,1.39.74,0.86,0.53,1.24.84a2,2,0,0,0,.66.31,3.43,3.43,0,0,1,.66.32,13.1,13.1,0,0,1,1.24.74,12,12,0,0,1,1.14.85,11.13,11.13,0,0,1,1,.94l0.63,0.67,0.42,0.25,0.52,0.32,0.08,0.06v-4.51a16,16,0,0,0-1.42-1A17,17,0,0,0,189.31,627.24Z" transform="translate(-177.86 -604.47)"/><path class="cls-1" d="M208.14,626c-0.63,0-1.28,0-1.93.09s-1.31.15-1.94,0.31a3.76,3.76,0,0,0-.85.39c-0.27.14-.57,0.26-0.82,0.42a17,17,0,0,0-1.57.94,16.06,16.06,0,0,0-1.42,1v4.51l0.08-.06,0.52-.32,0.42-.25,0.63-.67a11.13,11.13,0,0,1,1-.94,12,12,0,0,1,1.14-.85,13.1,13.1,0,0,1,1.24-.74,3.28,3.28,0,0,1,.66-0.31,2.3,2.3,0,0,0,.67-0.3c0.38-.3.81-0.54,1.24-0.83s0.91-.47,1.39-0.74,1-.42,1.49-0.64,1.13-.35,1.7-0.55c-0.59-.14-1.17-0.26-1.77-0.38S208.8,626,208.14,626Z" transform="translate(-177.86 -604.47)"/><path class="cls-1" d="M190.52,636.54c-0.22-.14-0.46-0.25-0.69-0.38a2.69,2.69,0,0,0-.72-0.34c-0.53-.13-1.09-0.18-1.62-0.27s-1.08-.07-1.61-0.08-1.06.07-1.57,0.12-1,.2-1.5.32l1.39,0.48c0.44,0.2.87,0.37,1.28,0.57s0.79,0.42,1.16.66,0.72,0.47,1,.75a1.63,1.63,0,0,0,.55.28,2.78,2.78,0,0,1,.55.28,10.77,10.77,0,0,1,1,.66,10,10,0,0,1,1,.76,9.56,9.56,0,0,1,.87.84l0.53,0.6,0.13,0.09v-4.15l-0.46-.35A14,14,0,0,0,190.52,636.54Z" transform="translate(-177.86 -604.47)"/><path class="cls-1" d="M206,635.46c-0.53,0-1.07,0-1.61.08s-1.09.14-1.62,0.27a3,3,0,0,0-.71.35c-0.23.13-.47,0.24-0.69,0.38a14,14,0,0,0-1.31.84l-0.46.35v4.15l0.13-.09,0.53-.6a9.55,9.55,0,0,1,.87-0.84,10,10,0,0,1,1-.76,10.76,10.76,0,0,1,1-.66,2.65,2.65,0,0,1,.55-0.28,1.86,1.86,0,0,0,.56-0.27c0.32-.27.68-0.49,1-0.75s0.76-.42,1.15-0.66,0.81-.37,1.25-0.57,0.94-.31,1.42-0.49c-0.49-.13-1-0.23-1.47-0.34S206.55,635.48,206,635.46Z" transform="translate(-177.86 -604.47)"/></svg>