<svg id="Layer_1" data-name="Layer 1" xmlns="http://www.w3.org/2000/svg" viewBox="0 0 38.78 48.55"><defs><style>.cls-1{fill:#fff;}</style></defs><title>Abilities_Icon_Muriel_Boots</title><path class="cls-1" d="M386,893c-0.59-2.18-2.24-4.18-4.91-6a14.8,14.8,0,0,0-27.28-11,7.42,7.42,0,0,1-3.06-3.82,4.5,4.5,0,0,1,1.12-4.09l0.31-.29,0.22-.21,0.24-.23,0.27-.23,0.24-.21,0.29-.25,0.47-.37,0.36-.28,0.43-.31,0.42-.3,0.33-.21,0.55-.35,0.24-.14,0.66-.38,0.2-.1,0.73-.37,0.15-.06,0.84-.37,0.07,0,0.88-.34,0.07,0,0.88-.29,1.09-.29,0.91-.2,0.18,0,0.84-.15,0.32,0,0.71-.09,0.56,0,0.49,0,1.06,0,1.06,0,0.49,0,0.56,0,0.79,0.1,0.24,0,0.89,0.15,0.13,0,1,0.23a21,21,0,0,1,3.87,1.38l0.92,0.46,0.81,0.46,0.09,0.05,0.73,0.46,0.15,0.1,0.64,0.45,0.22,0.15,0.49,0.38,0.34,0.27,0.34,0.29,0.11,0.1,0.35,0.31,0.22,0.21,0.25,0.24,0.28,0.27a4.38,4.38,0,0,1-.17,6.34l-0.29.33,0.21,0.39a16.62,16.62,0,0,1,.82,1.77l0.35,0.88,0.68-.66a8.32,8.32,0,0,0,2.83-6,7.89,7.89,0,0,0-1.76-4.82l-0.46-.53-0.23-.22-0.23-.22L383.2,865l-0.27-.24-0.24-.21-0.4-.34L382,864l-0.26-.2-0.43-.33-0.24-.17-0.21-.15-0.52-.37-0.44-.28-0.57-.36L379,862l-0.72-.41-0.27-.14-0.79-.4-0.23-.1-0.85-.38-0.2-.08-0.9-.35-0.18-.06-1-.31-0.17,0-1-.27-0.2,0-1-.21-0.26,0-0.91-.16-0.5-.06-0.69-.08-0.37,0-0.37,0-0.46,0-1.21,0-1.21,0-0.46,0-0.37,0-0.37,0-0.73.09-0.46.06-0.86.15-0.31.05-0.88.2-0.28.06-0.86.24-0.28.08L359,860l-0.3.1-0.78.3-0.33.13-0.63.28-0.08,0-0.37.17-0.52.26-0.28.14-0.26.13-0.45.26-0.29.16-0.3.17-0.39.25-0.3.19-0.32.2L353,863l-0.29.21-0.33.23-0.36.28-0.25.19-0.34.27-0.32.28-0.28.24-0.31.27-0.39.37-0.23.21-0.22.21-0.47.54a7.57,7.57,0,0,0-1.51,6.62c0.59,2.18,2.24,4.18,4.91,6a14.8,14.8,0,0,0,27.28,11,7.42,7.42,0,0,1,3.06,3.82,4.49,4.49,0,0,1-1.12,4.09l-0.29.28-0.25.24-0.24.22-0.25.22-0.27.23-0.27.24-0.23.18-0.25.2-0.35.27-0.44.31-0.41.29-0.35.23-0.52.33-0.24.14-0.66.38-0.19.1-0.73.37-0.14.06-0.84.37-0.07,0-0.88.34-0.07,0-0.9.29-0.06,0-0.94.26-0.07,0-0.9.2-0.18,0-0.84.14-0.32,0L369,904l-0.57,0-0.48,0-1.06,0-1.06,0-0.47,0h-0.16l-0.41,0-0.8-.1-0.24,0-0.91-.16-0.11,0-1-.23a21,21,0,0,1-4.79-1.85l-0.82-.46-0.08,0-0.75-.48-0.13-.08-0.66-.46-0.2-.14-0.49-.38-0.34-.27L353.1,899l-0.24-.21-0.2-.17-0.26-.24-0.13-.12-0.37-.35a4.39,4.39,0,0,1,.16-6.35l0.29-.33-0.21-.39a16.7,16.7,0,0,1-.82-1.77l-0.35-.88-0.68.66a8.31,8.31,0,0,0-2.83,6,7.88,7.88,0,0,0,1.76,4.82l0.46,0.53,0.24,0.23,0.23,0.22,0.37,0.35,0.27,0.24,0.26,0.22,0.39,0.33,0.26,0.21,0.21,0.17,0.47,0.36,0.24,0.17,0.24,0.17,0.5,0.35,0.39,0.25,0.62,0.39,0.34,0.19,0.69,0.39,0.27,0.14,0.79,0.4,0.23,0.1,0.85,0.38,0.2,0.08,0.9,0.35,0.17,0.06,0.95,0.31,0.18,0,1,0.27,0.2,0,1,0.21,0.27,0,0.91,0.16,0.47,0.06,0.71,0.09,0.37,0,0.37,0,0.46,0,1.21,0,1.21,0,0.46,0,0.37,0,0.37,0,0.73-.09,0.46-.06,0.86-.15,0.31-.05,0.88-.2,0.28-.06,0.86-.24,0.28-.08,0.82-.27,0.3-.1,0.72-.27,0.39-.15,0.62-.27,0.46-.21,0.54-.27,0.11-.06,0.41-.21,0.46-.26,0.28-.16,0.29-.17,0.4-.25,0.29-.19,0.32-.21,0.36-.25,0.26-.19,0.36-.26,0.33-.26L382,902l0.34-.27,0.36-.31,0.22-.19,0.33-.29,0.35-.33,0.26-.25,0.21-.2,0.53-.61a7.84,7.84,0,0,0,1.7-4.74A7,7,0,0,0,386,893Zm-19.15,2.76a12.72,12.72,0,0,1-12.42-15.68,42.42,42.42,0,0,0,7.16,3,5.26,5.26,0,0,0,9.64,2.81,37.77,37.77,0,0,1,6.94,3A12.77,12.77,0,0,1,366.88,895.75Zm12.42-9.85a42.42,42.42,0,0,0-7.16-3,5.26,5.26,0,0,0-9.64-2.81,37.77,37.77,0,0,1-6.94-3A12.75,12.75,0,0,1,379.3,885.9Z" transform="translate(-347.49 -858.7)"/></svg>