<svg id="Layer_1" data-name="Layer 1" xmlns="http://www.w3.org/2000/svg" viewBox="0 0 36 49.29"><defs><style>.cls-1{fill:#fff;}</style></defs><title>Abilities_Icon_Gadget_StickyBomb</title><path class="cls-1" d="M21.85,1073l3.15,8.25,3.15-8.25c5.62-14.07-2.4-25.69-3.15-26.72C24.26,1047.35,16.23,1059,21.85,1073Z" transform="translate(-7 -1032.01)"/><path class="cls-1" d="M39.23,1038.58c0,1.3,0,2.6,0,3.89a12,12,0,0,1-2,4.34h0l-0.35.41c-1.44,1.51-4.14,3.72-7.13,3a32.47,32.47,0,0,1,2.57,10.41,38.39,38.39,0,0,1,4.27-8.84h0s2.25-2.75,1.83,1.73a145.18,145.18,0,0,1-3.82,20.67l4.62-8.84C47.71,1050.64,39.23,1038.58,39.23,1038.58Z" transform="translate(-7 -1032.01)"/><path class="cls-1" d="M13.12,1047.22l-0.35-.41a12,12,0,0,1-2-4.33c0-1.29,0-2.59,0-3.89,0,0-8.49,12.06,0,26.8l4.62,8.84a145.15,145.15,0,0,1-3.82-20.7c-0.4-4.44,1.83-1.7,1.83-1.7a38.37,38.37,0,0,1,4.27,8.83,32.46,32.46,0,0,1,2.57-10.4C17.26,1050.93,14.56,1048.72,13.12,1047.22Z" transform="translate(-7 -1032.01)"/><circle class="cls-1" cx="18" cy="4.55" r="4.55"/></svg>