<svg id="Layer_1" data-name="Layer 1" xmlns="http://www.w3.org/2000/svg" viewBox="0 0 41.23 48.64"><defs><style>.cls-1{fill:#fff;}</style></defs><title>Abilities_Icon_Gadget_SearchBot</title><path class="cls-1" d="M381.7,1067.21h0s-10.48-4.62-13.82-25.19a8.69,8.69,0,0,1-2,0c-3.34,20.57-13.82,25.19-13.82,25.19h0c-3.58,1.46-5.8,3.45-5.8,5.64,0,4.48,9.23,8.12,20.61,8.12s20.61-3.64,20.61-8.12C387.49,1070.65,385.28,1068.67,381.7,1067.21ZM366.88,1078c-9.21,0-16.67-2.32-16.67-5.18s7.46-5.18,16.67-5.18,16.67,2.32,16.67,5.18S376.09,1078,366.88,1078Z" transform="translate(-346.27 -1032.33)"/><circle class="cls-1" cx="20.61" cy="3.76" r="3.76"/></svg>