<svg id="Layer_1" data-name="Layer 1" xmlns="http://www.w3.org/2000/svg" viewBox="0 0 49.16 48.99"><defs><style>.cls-1{fill:#acab9c;}</style></defs><title>Abilities_Icon_Murdock_HotPursuit</title><path class="cls-1" d="M464.15,201a10.16,10.16,0,1,0-17.29-6.12l-6.65,6.65,1.81,1.81,5.58-5.58a10.09,10.09,0,0,0,1.34,2.28l-8.7,8.7,1.81,1.81,8.7-8.7a10.09,10.09,0,0,0,2.29,1.34l-5.58,5.58,1.81,1.81,6.65-6.65A10.14,10.14,0,0,0,464.15,201Z" transform="translate(-429.27 -172.49)"/><path class="cls-1" d="M478.44,191.07l-2.77-2.77a19.34,19.34,0,0,0-1.5-3.63v-3.92l-2-2-2-2h-3.92a19.29,19.29,0,0,0-3.63-1.5l-2.77-2.77h-5.63l-2.79,2.79a19.34,19.34,0,0,0-3.59,1.49h-4l-2,2-2,2v4a19.31,19.31,0,0,0-1.46,3.54l-2.82,2.82v5.63l2.15,2.15,4.16-4.16A15.15,15.15,0,1,1,456,209l-4,4,2.3,2.3h5.63l2.82-2.82a19.32,19.32,0,0,0,3.54-1.46h4l2-2,2-2v-4a19.31,19.31,0,0,0,1.49-3.59l2.79-2.79v-5.63Z" transform="translate(-429.27 -172.49)"/><rect class="cls-1" x="429.78" y="218.27" width="2.9" height="2.55" transform="translate(-458.22 196.74) rotate(-45)"/><rect class="cls-1" x="433.64" y="212.8" width="6.1" height="2.55" transform="translate(-452.74 199.03) rotate(-45)"/><rect class="cls-1" x="437.08" y="218.26" width="2.79" height="2.55" transform="translate(-456.09 201.86) rotate(-45)"/><rect class="cls-1" x="440.86" y="212.83" width="6.1" height="2.55" transform="translate(-450.64 204.16) rotate(-45.01)"/><rect class="cls-1" x="429.75" y="211.06" width="2.9" height="2.55" transform="translate(-453.13 194.61) rotate(-45)"/><rect class="cls-1" x="433.62" y="205.59" width="6.1" height="2.55" transform="translate(-447.66 196.88) rotate(-45)"/></svg>