<svg id="Layer_1" data-name="Layer 1" xmlns="http://www.w3.org/2000/svg" viewBox="0 0 48.88 48.73"><defs><style>.cls-1{fill:#fff;}</style></defs><title>Ability_Sevarog_Subjugate</title><path id="E" class="cls-1" d="M44.77,5.56l-5.58,1.7L49.33,0.64,43.19,11.42Zm0.9,19.19A20.51,20.51,0,1,1,25.15,4.23,20.52,20.52,0,0,1,45.67,24.75h0ZM36.48,12l-7.1,7.89S34.46,12,34,10.41a17,17,0,0,0-9-2.56c-0.45,0-.9,0-1.35.06A17,17,0,0,0,16,10.57c-0.16,1.91,4.62,9.35,4.62,9.35L13.76,12.3a17.15,17.15,0,0,0-2.15,2.38l7.5,6.75s-6.44-4.14-8.88-4.59a17,17,0,0,0,.2,16.43c2.35-.34,9-4.6,9-4.6L11.9,35.44a17.16,17.16,0,0,0,1.89,2l6.84-7.6S15.92,37.2,16,39.18a17,17,0,0,0,9.28,2.75c0.33,0,.65,0,1,0a16.94,16.94,0,0,0,8.05-2.71c0.08-2-4.62-9.3-4.62-9.3l7,7.72a17.2,17.2,0,0,0,1.8-1.87l-7.85-7.06s7.2,4.63,9.25,4.62A17,17,0,0,0,40,16.82c-1.77-.31-9.43,4.61-9.43,4.61l8-7.21A17.18,17.18,0,0,0,36.48,12ZM6.72,11.55L0.56,0.71,10.7,7.35,4.85,5.62Zm-1.87,33,6-1.94L0.56,49.36l6.24-11ZM43.2,38.38l6.24,11L39.12,42.61l5.73,1.94Z" transform="translate(-0.56 -0.64)"/></svg>