<?xml version="1.0" encoding="utf-8"?>
<!-- Generator: Adobe Illustrator 19.2.1, SVG Export Plug-In . SVG Version: 6.00 Build 0)  -->
<svg version="1.1" id="Layer_1" xmlns="http://www.w3.org/2000/svg" xmlns:xlink="http://www.w3.org/1999/xlink" x="0px" y="0px"
	 viewBox="0 0 50 50" style="enable-background:new 0 0 50 50;" xml:space="preserve">
<style type="text/css">
	.st0{fill:#ADAB9B;}
</style>
<g id="Image_xA0_6">
	<g>
		<path class="st0" d="M40.6,27.6c1.8,3.2-0.4,4.6-1.6,3.5c-1.6-1.5-0.5-5.1,1.5-8c1.3-1.9,1.9-4.7,1.4-6.8c-0.7-2.6-4-4.9-5.2-6.8
			c2.4,5.8-0.8,10.9-5,8.6c-3.7-2-5.2-13.2-6.5-17.4c-1.3,4.2-2.9,15.4-6.5,17.4c-4.3,2.3-7.4-2.8-5-8.6c-1.2,1.9-4.6,4.2-5.2,6.8
			c-0.5,2.1,0,4.9,1.4,6.8c2,2.9,3.2,6.5,1.5,8c-1.2,1.1-3.5-0.3-1.6-3.5c-6.3,11.3,0.2,16.3,6.4,18.5c-2.5-2.1-4.1-5-4.1-8.2
			c0-8.4,10.9-17.7,11.3-18.1l2-1.7l1.9,1.7c1.2,1,11.3,10.1,11.3,18.1c0,3.2-1.6,6.2-4.1,8.2C40.4,43.9,46.8,38.9,40.6,27.6z
			 M25,22.3l-0.8,0.8c-0.2,0.2-4.6,4.6-4.6,8.5c0,3,2.4,5.4,5.4,5.4c3,0,5.4-2.4,5.4-5.4c0-3.8-4.2-8-4.6-8.5L25,22.3z"/>
	</g>
</g>
</svg>
