<svg id="Layer_1" data-name="Layer 1" xmlns="http://www.w3.org/2000/svg" viewBox="0 0 46.72 48.67"><defs><style>.cls-1{fill:#dbbd67;}</style></defs><title>Ability_Sevarog_ColossalBlow</title><path id="R" class="cls-1" d="M48.15,38.68a22.65,22.65,0,0,0-6.4-12.86A17.6,17.6,0,0,1,43,35.2,18.17,18.17,0,0,0,24.9,19.71,18.17,18.17,0,0,0,6.78,35.2a17.55,17.55,0,0,1,1.13-9A22.63,22.63,0,0,0,1.85,38.68a22.64,22.64,0,0,1-.21-3.08A23.13,23.13,0,0,1,25,12.7,23.13,23.13,0,0,1,48.36,35.6,22.64,22.64,0,0,1,48.15,38.68ZM22.52,10.15l2-9.49,2.59,9.45C26.4,10.06,25.7,10,25,10A24.11,24.11,0,0,0,22.52,10.15ZM25,25A12.92,12.92,0,0,1,38,37.85a12.71,12.71,0,0,1-.12,1.73A12.91,12.91,0,0,0,27.57,28.75L24.7,49.33l-2.19-20.6A12.91,12.91,0,0,0,12.1,39.58,12.72,12.72,0,0,1,12,37.85,12.92,12.92,0,0,1,25,25Z" transform="translate(-1.64 -0.67)"/></svg>