<svg id="Layer_1" data-name="Layer 1" xmlns="http://www.w3.org/2000/svg" viewBox="0 0 45.24 48.48"><defs><style>.cls-1{fill:#fff;}</style></defs><title>Abilities_Icon_Murdock_ShieldingShot</title><path class="cls-1" d="M358.47,185l-1.89-1.32-2.53.89v24.9l2.53,0.89,1.89-1.32h16.83l1.89,1.32,2.53-.89v-24.9l-2.53-.89L375.29,185H358.47Zm18.13,1.87,0.83-.58v21.47l-0.83-.58-0.59-.41H357.75l-0.59.41-0.84.58V186.25l0.84,0.58,0.59,0.41H376Z" transform="translate(-344.26 -172.74)"/><path class="cls-1" d="M375.7,172.74l-3.49,2.43H361.55l-3.49-2.43-13.8,4.87v38.75l13.8,4.87,3.49-2.43h10.67l3.49,2.43,13.8-4.87V177.61Zm8.42,39.81-7.6,2.68-2.61-1.82H359.85l-2.61,1.82-7.6-2.68V181.42l7.6-2.68,2.61,1.82h14.06l2.61-1.82,7.6,2.68v31.13Z" transform="translate(-344.26 -172.74)"/></svg>