<svg id="Layer_1" data-name="Layer 1" xmlns="http://www.w3.org/2000/svg" viewBox="0 0 35.72 49.15"><defs><style>.cls-1{fill:#fff;}</style></defs><title>Abilities_Icon_Sparrow_Boost</title><polygon class="cls-1" points="17.86 9.97 17.86 9.97 17.86 9.97 17.86 9.97 17.86 9.97 0 29.72 3.48 29.41 17.86 13.51 32.24 29.41 35.72 29.72 17.86 9.97"/><polygon class="cls-1" points="17.86 19.94 17.86 19.94 17.86 19.94 17.86 19.94 17.86 19.94 0 39.69 3.48 39.38 17.86 23.48 32.24 39.38 35.72 39.69 17.86 19.94"/><polygon class="cls-1" points="17.86 0 17.86 0 17.86 0 17.86 0 17.86 0 0 19.75 3.48 19.44 17.86 3.54 32.24 19.44 35.72 19.75 17.86 0"/><path class="cls-1" d="M110,374.22h0l-5.65,6.26A28.87,28.87,0,0,1,110,393.05h0a28.86,28.86,0,0,1,5.66-12.57Z" transform="translate(-92.12 -343.91)"/></svg>