<svg id="Layer_1" data-name="Layer 1" xmlns="http://www.w3.org/2000/svg" viewBox="0 0 48.29 48.27"><defs><style>.cls-1{fill:#acab9c;}</style></defs><title>Abilities_Icon_Twinblast_OnARoll</title><path class="cls-1" d="M438.28,980.92l3.06-3.06a14.63,14.63,0,1,1,25,0l3.06,3.06A18.84,18.84,0,1,0,438.28,980.92Z" transform="translate(-429.71 -946.18)"/><path class="cls-1" d="M453.85,984.94a14.52,14.52,0,0,1-7.55-2.12l-3.06,3.06a18.8,18.8,0,0,0,21.22,0l-3.06-3.06A14.51,14.51,0,0,1,453.85,984.94Z" transform="translate(-429.71 -946.18)"/><path class="cls-1" d="M469.61,956.54l8.38-8.38-2-2-8.38,8.38A21.1,21.1,0,0,1,469.61,956.54Z" transform="translate(-429.71 -946.18)"/><path class="cls-1" d="M469.62,984.08h0l-11-11a5.49,5.49,0,0,0,0-5.55l3.18-3.18,1.84-1.84a12.61,12.61,0,0,0-2-2l-5,5a5.49,5.49,0,0,0-5.56,0l-5-5a12.62,12.62,0,0,0-2,2l3.9,3.9h0l1.11,1.12a5.49,5.49,0,0,0,0,5.57l-11,11h0l-8.38,8.38,2,2,8.38-8.38,11-11a5.49,5.49,0,0,0,5.56,0l11,11,8.38,8.38,2-2Z" transform="translate(-429.71 -946.18)"/><path class="cls-1" d="M440.08,954.55l-8.37-8.37-2,2,8.37,8.37A21.19,21.19,0,0,1,440.08,954.55Z" transform="translate(-429.71 -946.18)"/><path class="cls-1" d="M453.86,949a21.18,21.18,0,0,1,7.88,1.52l1.61-1.61a23.33,23.33,0,0,0-18.9,0l1.61,1.61A21.18,21.18,0,0,1,453.86,949Z" transform="translate(-429.71 -946.18)"/><path class="cls-1" d="M432.5,960.74a23.33,23.33,0,0,0,0,19.06l1.61-1.61a21.23,21.23,0,0,1,0-15.85Z" transform="translate(-429.71 -946.18)"/><path class="cls-1" d="M475.29,979.72a23.34,23.34,0,0,0,0-18.9l-1.61,1.61a21.23,21.23,0,0,1,0,15.68Z" transform="translate(-429.71 -946.18)"/><path class="cls-1" d="M453.86,991.61A21.19,21.19,0,0,1,446,990.1l-1.61,1.61a23.33,23.33,0,0,0,19.06,0l-1.6-1.6A21.19,21.19,0,0,1,453.86,991.61Z" transform="translate(-429.71 -946.18)"/></svg>