<?xml version="1.0" encoding="utf-8"?>
<!-- Generator: Adobe Illustrator 19.2.1, SVG Export Plug-In . SVG Version: 6.00 Build 0)  -->
<svg version="1.1" id="Layer_1" xmlns="http://www.w3.org/2000/svg" xmlns:xlink="http://www.w3.org/1999/xlink" x="0px" y="0px"
	 viewBox="0 0 50 50" style="enable-background:new 0 0 50 50;" xml:space="preserve">
<style type="text/css">
	.st0{fill:#DCBC5E;}
</style>
<g id="Image_xA0_3">
	<g>
		<path class="st0" d="M25,34.4l7.2-7.4c2-2.2,6.3-6.6,3.5-11.6c1,1.8-2.7,5.8-4.1,4.3c-1.9-1.9,0.3-3.4,1.8-5.4
			c0.8-1,1.1-2.6,0.8-3.8c-0.4-1.5-2.2-2.7-2.9-3.8c1.3,3.3-0.4,6.1-2.8,4.8c-1.9-1-2.8-6.6-3.5-9.2c-0.7,2.6-1.6,8.2-3.5,9.2
			c-2.4,1.3-4.1-1.5-2.8-4.8c-0.7,1.1-2.5,2.4-2.9,3.8c-0.3,1.2,0,2.8,0.8,3.8c1.5,2,3.6,3.4,1.8,5.4c-1.4,1.4-5.1-2.5-4.1-4.3
			c-2.7,4.9,1.5,9.4,3.5,11.6L25,34.4z M33.1,31.2c-4.4,4.2-8,8.7-8,8.7s0-0.1-0.1-0.2c-0.1,0.1-0.1,0.2-0.1,0.2s-3.6-4.5-8-8.7
			C10,24.6,1.1,16.1,1.1,16.1s10.1,12,17,21.2c4.3,5.8,6.7,10.4,6.7,10.4s0-0.1,0.1-0.2c0.1,0.2,0.1,0.2,0.1,0.2s2.4-4.7,6.7-10.4
			c6.9-9.2,17-21.2,17-21.2S40,24.6,33.1,31.2z"/>
	</g>
</g>
</svg>
