<svg id="Layer_1" data-name="Layer 1" xmlns="http://www.w3.org/2000/svg" viewBox="0 0 34.75 49.14"><defs><style>.cls-1{fill:#fff;}</style></defs><title>Abilities_Icons_Grux_Charge</title><path class="cls-1" d="M128.2,108.7a14.72,14.72,0,0,0-.41-1.94,18.2,18.2,0,0,0-.64-1.89,17.84,17.84,0,0,0-2-3.5,16.38,16.38,0,0,0-1.27-1.55l-1.33-1.43c-1.74-1.9-3.54-3.73-5.32-5.6-0.89-.93-1.8-1.84-2.7-2.76l-2.71-2.75L111,86.41l-0.86.87L107.43,90c-0.9.92-1.81,1.83-2.7,2.76-1.77,1.87-3.58,3.7-5.32,5.6L98.1,99.81a15.68,15.68,0,0,0-1.28,1.57,16.73,16.73,0,0,0-1.08,1.7,17.28,17.28,0,0,0-.88,1.8,18.3,18.3,0,0,0-.64,1.89,14.64,14.64,0,0,0-.41,1.94,16.32,16.32,0,0,0-.17,2,19,19,0,0,0,.07,1.95,18.8,18.8,0,0,1,.29-1.91,16.65,16.65,0,0,1,.46-1.85c0.18-.61.4-1.2,0.64-1.78a17.24,17.24,0,0,1,.82-1.68,17,17,0,0,1,2.13-3c0.41-.46.84-0.9,1.28-1.32l1.41-1.31c1.9-1.74,3.74-3.54,5.6-5.32,0.93-.89,1.84-1.8,2.76-2.7L111,89.84l1.89,1.87c0.92,0.9,1.83,1.81,2.76,2.7,1.87,1.77,3.7,3.58,5.6,5.32l1.4,1.3c0.48,0.46.89,0.87,1.29,1.33a16.89,16.89,0,0,1,2.13,3,17.13,17.13,0,0,1,.82,1.68c0.24,0.58.46,1.17,0.64,1.78a16.61,16.61,0,0,1,.46,1.85,19,19,0,0,1,.29,1.91,19.14,19.14,0,0,0,.07-1.95A16.41,16.41,0,0,0,128.2,108.7Z" transform="translate(-93.63 -86.41)"/><path class="cls-1" d="M121.93,106a12.77,12.77,0,0,0-1.57-2.14c-0.58-.63-1.13-1.18-1.69-1.77l-6.81-6.9L111,94.36l-0.86.87-3.41,3.45-3.4,3.45c-0.57.6-1.1,1.13-1.7,1.78a12.86,12.86,0,0,0-1.56,2.13,12.13,12.13,0,0,0-1.6,5,11.26,11.26,0,0,0-.06,1.3,12.34,12.34,0,0,0,.62,3.83,12.13,12.13,0,0,0,2.6,4.39,12.39,12.39,0,0,0,.91.87,7.66,7.66,0,0,1,.79.82,7.75,7.75,0,0,1,1.22,1.94,7.35,7.35,0,0,1,.32,2.3l0.18,2.42,0.18-2.42,0.08-1.21a3.68,3.68,0,0,0-.12-1.29,7.81,7.81,0,0,0-1.11-2.29,8.66,8.66,0,0,0-.8-1,11.39,11.39,0,0,1-.75-0.89,10.91,10.91,0,0,1-2-4.06,11.87,11.87,0,0,1-.33-2.22,10,10,0,0,1,0-1.12,9.09,9.09,0,0,1,.12-1.11,11.08,11.08,0,0,1,1.54-4.12,10.69,10.69,0,0,1,1.36-1.73c0.51-.52,1.14-1.11,1.71-1.66l3.45-3.4L111,97.79l6,6c0.57,0.56,1.19,1.13,1.72,1.67a10.63,10.63,0,0,1,1.35,1.71,10.95,10.95,0,0,1,1.66,6.35,11.8,11.8,0,0,1-.33,2.21,10.88,10.88,0,0,1-2,4.07,10.71,10.71,0,0,1-.75.89,8.77,8.77,0,0,0-.79,1A7.7,7.7,0,0,0,116.8,124a3.75,3.75,0,0,0-.12,1.3l0.08,1.21,0.18,2.42,0.18-2.42,0.08-1.21a3.11,3.11,0,0,1,.24-1.09,7.6,7.6,0,0,1,1.22-1.93,7.73,7.73,0,0,1,.79-0.82,11.83,11.83,0,0,0,.91-0.87,12.16,12.16,0,0,0,2.6-4.39,11.69,11.69,0,0,0,.55-2.54,12.85,12.85,0,0,0,0-2.6A12.1,12.1,0,0,0,121.93,106Z" transform="translate(-93.63 -86.41)"/><path class="cls-1" d="M117.85,112.6a6.82,6.82,0,0,0-2-4.85L111,102.92l-4.82,4.82a6.84,6.84,0,0,0,0,9.69s3.73,3.43,3.73,7.62l1.1,10.49,1.1-10.49c0-4.2,3.74-7.62,3.74-7.62h0A6.82,6.82,0,0,0,117.85,112.6ZM111,116.46a3.86,3.86,0,1,1,3.86-3.86A3.86,3.86,0,0,1,111,116.46Z" transform="translate(-93.63 -86.41)"/></svg>