<svg id="Layer_1" data-name="Layer 1" xmlns="http://www.w3.org/2000/svg" viewBox="0 0 24.51 49.53"><defs><style>.cls-1{fill:#fff;}</style></defs><title>Abilities_Icon_Sparrow_BowShot</title><path class="cls-1" d="M285.67,358.87l-4.26-5.55h0l-4.26,5.55s3.08,1.17,3.08,12.82v12.37h0s0.47,8.1,1.18,9.19h0c0.71-1.1,1.18-9.19,1.18-9.19h0V371.68C282.59,360,285.67,358.87,285.67,358.87Z" transform="translate(-269.16 -343.71)"/><path class="cls-1" d="M293.67,360.19l-12.25-16.47h0l-12.25,16.47s6.38,5.79,7.22,14.46a0.07,0.07,0,0,0,.11,0c-0.07-3.55-.73-11.22-4.94-14.72l9.87-13.27,9.87,13.27c-4.21,3.49-4.87,11.16-4.94,14.71a0.07,0.07,0,0,0,.11,0C287.28,366,293.67,360.19,293.67,360.19Z" transform="translate(-269.16 -343.71)"/></svg>