<svg id="Layer_1" data-name="Layer 1" xmlns="http://www.w3.org/2000/svg" viewBox="0 0 48.05 46.55"><defs><style>.cls-1{fill:#fff;}</style></defs><title>Abilities_Icon_Rampage_Roar</title><polygon class="cls-1" points="24.02 0 20.61 36.7 24.02 46.55 27.44 36.7 24.02 0"/><path class="cls-1" d="M117.85,472.87c1.8-9.24,8.32-8.56,8.32-8.56-2.25-3.74-.75-5.85.77-9.59L134,440.63,115.85,463.9l0.51,5.45" transform="translate(-85.95 -432.21)"/><path class="cls-1" d="M104.1,463.9L86,440.63,93,454.72c1.52,3.73,3,5.85.77,9.59,0,0,6.52-.68,8.32,8.56l1.49-3.52Z" transform="translate(-85.95 -432.21)"/><path class="cls-1" d="M115.85,463.9L134,440.63l-7.06,14.09c-1.52,3.73-3,5.85-.77,9.59,0,0-6.52-.68-8.32,8.56l-1.49-3.52Z" transform="translate(-85.95 -432.21)"/></svg>