<svg id="Layer_1" data-name="Layer 1" xmlns="http://www.w3.org/2000/svg" viewBox="0 0 48.88 45.86"><defs><style>.cls-1{fill:#dbbd67;}</style></defs><title>Abilities_Icon_Dekker_ContainmentField</title><path class="cls-1" d="M220.39,790.71h0c0-6.44-10.94-11.66-24.44-11.66s-24.44,5.22-24.44,11.66h0V814l2.37,5V795.73h0a13.84,13.84,0,0,0,1.82,1.51V820.4l10.13,4.26V801.33h0q1,0.22,2.1.4v23.18H204V801.73q1.07-.18,2.1-0.4h0v23.33l10.13-4.26V797.25a13.83,13.83,0,0,0,1.82-1.51h0v23.33l2.37-5V790.71h0Zm-24.44,9.6c-13.18,0-22.37-5.06-22.37-9.6s9.19-9.6,22.37-9.6,22.37,5.06,22.37,9.6S209.13,800.31,195.95,800.31Z" transform="translate(-171.51 -779.05)"/></svg>