<svg id="Layer_1" data-name="Layer 1" xmlns="http://www.w3.org/2000/svg" viewBox="0 0 33.18 47.96"><defs><style>.cls-1{fill:#fff;}</style></defs><title>Abilities_Icon_Gideon_PortalBlast</title><path class="cls-1" d="M297.89,273.82a16.41,16.41,0,0,0-5.24-10.4,16.76,16.76,0,0,0-8.16-4.12c-0.53-.08-1.09-0.18-1.59-0.23L281.5,259H281l-0.39,0-0.78,0c-0.51,0-1,.15-1.54.22a16.76,16.76,0,0,0-8.15,4.1,16.26,16.26,0,0,0-3.61,4.78,16,16,0,0,0-1.65,5.66,13.35,13.35,0,0,0-.08,1.35v0.73c0,0.24,0,.47,0,0.71a15.36,15.36,0,0,0,.43,2.76,16.73,16.73,0,0,0,.87,2.58,13.48,13.48,0,0,0,.6,1.23l0.6,1.05c1.53,2.76,3.34,5.51,4.19,8.12a24,24,0,0,1,.92,3.8,23.23,23.23,0,0,1,.18,3.54,33.49,33.49,0,0,1-.38,4.72c-0.12.94-.23,1.75-0.35,2.45a0.31,0.31,0,0,0,.33.05c0.2-.68.41-1.46,0.62-2.39a26.92,26.92,0,0,0,1-4.77,24.47,24.47,0,0,0,.12-3.75,23.42,23.42,0,0,0-.69-4.13c-0.71-2.81-2.37-5.75-3.86-8.72a14.16,14.16,0,0,1-1.76-9.11,13.36,13.36,0,0,1,1.49-4.56,14.62,14.62,0,0,1,3.06-3.89,13.73,13.73,0,0,1,6.71-3.29c0.42-.05.83-0.14,1.26-0.17l0.63,0h0.61l1.35,0.06c0.44,0,.8.12,1.2,0.17a14,14,0,0,1,11.23,11.81,14.16,14.16,0,0,1-1.77,9c-1.5,3-3.16,5.91-3.87,8.74a23.32,23.32,0,0,0-.68,4.13,15.62,15.62,0,0,0,0,2c0,0.6.08,1.21,0.13,1.79a26.85,26.85,0,0,0,1,4.77c0.2,0.92.42,1.7,0.61,2.37a0.31,0.31,0,0,0,.34,0c-0.11-.69-0.23-1.49-0.35-2.43a33.55,33.55,0,0,1-.38-4.72c0-.56,0-1.14,0-1.75a14.13,14.13,0,0,1,.16-1.79,23.47,23.47,0,0,1,.9-3.8c0.84-2.6,2.68-5.38,4.18-8.1A16.13,16.13,0,0,0,297.89,273.82Z" transform="translate(-264.82 -259)"/><path class="cls-1" d="M281.41,268.28a7.53,7.53,0,0,0-7.52,7.52,7.45,7.45,0,0,0,.72,3.2l0,0.09c0.12,0.24.24,0.47,0.42,0.75A79.91,79.91,0,0,1,279.5,289a59.36,59.36,0,0,1,1.91,12.05v0A59.88,59.88,0,0,1,283.33,289h0a80,80,0,0,1,4.43-9.16c0.17-.28.3-0.51,0.42-0.75l0-.09a7.44,7.44,0,0,0,.72-3.2A7.54,7.54,0,0,0,281.41,268.28Zm3.54,9.18,0,0.06c-0.06.12-.13,0.26-0.24,0.43l-0.05.09,0,0.09a59,59,0,0,0-3.16,6.9v0a59,59,0,0,0-3.15-6.9l0-.09-0.05-.09c-0.11-.17-0.18-0.31-0.24-0.43l0-.06a3.86,3.86,0,0,1-.38-1.66,3.91,3.91,0,0,1,7.82,0A3.85,3.85,0,0,1,284.94,277.45Z" transform="translate(-264.82 -259)"/></svg>