<svg id="Layer_1" data-name="Layer 1" xmlns="http://www.w3.org/2000/svg" viewBox="0 0 49 30.38"><defs><style>.cls-1{fill:#fff;}</style></defs><title>Abilities_Icon_Kallari_PhaseShift</title><path class="cls-1" d="M33.57,542a8.57,8.57,0,1,0-8.6,8.54A8.57,8.57,0,0,0,33.57,542ZM25,546.37A4.42,4.42,0,1,1,29.42,542,4.43,4.43,0,0,1,25,546.37Z" transform="translate(-0.5 -526.79)"/><path class="cls-1" d="M49.42,541.82c-7.21-1.28-7.3-7.19-7.3-7.19h0a19.65,19.65,0,0,0-1.1-2.17c-0.08-.15-0.19-0.28-0.25-0.43h0s-4.92-2-7.57-5.19l-0.06.05a65.3,65.3,0,0,0,5.1,6.74,2.34,2.34,0,0,1,.24.35,15.66,15.66,0,0,1,2,5.77c0,0.38.1,0.76,0.12,1.12s0,0.82,0,1.15,0,0.84-.05,1.15-0.07.74-.12,1.12a15.66,15.66,0,0,1-2.08,5.76,2.34,2.34,0,0,1-.24.35A65.22,65.22,0,0,0,33,557.12l0.06,0.05c2.67-3.23,7.61-5.15,7.61-5.15h0c0.07-.15.18-0.28,0.26-0.43a19.65,19.65,0,0,0,1.11-2.16h0s0.13-5.91,7.35-7.14A0.38,0.38,0,0,0,49.42,541.82Z" transform="translate(-0.5 -526.79)"/><path class="cls-1" d="M25,550.52a8.57,8.57,0,1,0-8.54-8.6A8.57,8.57,0,0,0,25,550.52Zm-4.39-8.58A4.42,4.42,0,1,1,25,546.37,4.43,4.43,0,0,1,20.58,541.94Z" transform="translate(-0.5 -526.79)"/><path class="cls-1" d="M0.59,541.65c7.22-1.23,7.34-7.14,7.34-7.14h0A19.65,19.65,0,0,1,9,532.37c0.08-.15.19-0.28,0.26-0.43h0s4.94-1.92,7.6-5.14L17,526.84a65.3,65.3,0,0,1-5.14,6.71,2.34,2.34,0,0,0-.24.35,15.66,15.66,0,0,0-2.08,5.76c0,0.38-.1.76-0.12,1.12s0,0.82-.05,1.15,0,0.84,0,1.15,0.07,0.74.12,1.12a15.66,15.66,0,0,0,2,5.77,2.34,2.34,0,0,0,.24.35,65.22,65.22,0,0,1,5.1,6.75l-0.06.05c-2.64-3.25-7.58-5.2-7.58-5.2h0c-0.07-.15-0.17-0.28-0.25-0.43a19.65,19.65,0,0,1-1.1-2.17h0s-0.09-5.91-7.3-7.19A0.38,0.38,0,0,1,.59,541.65Z" transform="translate(-0.5 -526.79)"/></svg>