<svg id="Layer_1" data-name="Layer 1" xmlns="http://www.w3.org/2000/svg" viewBox="0 0 48.33 41.31"><defs><style>.cls-1{fill:#fff;}</style></defs><title>Abilities_Icons_Steel_Charge</title><path class="cls-1" d="M47.72,22.81c-0.47-.76-1-1.68-1.71-2.72L45,18.44a4,4,0,0,0-.67-0.82c-0.25-.26-0.49-0.54-0.74-0.82l-3.21-3.65-1.75-2-0.91-1C37.34,9.76,37,9.38,36.62,9a16.77,16.77,0,0,0-5.25-3.41,16.9,16.9,0,0,0-18,3.29l-0.57.55L12.35,10,11.42,11,9.67,13,6.46,16.67c-0.47.59-1,1-1.42,1.63L4,20c-0.67,1-1.24,2-1.71,2.72C1.33,24.19.83,25.09,0.83,25.09S1.66,24.48,3,23.36c0.69-.56,1.54-1.24,2.48-2L7,20.05c0.53-.45.9-1.08,1.43-1.62l3.21-3.65,1.75-2,0.88-1,0.47-.51,0.44-.43A14.22,14.22,0,0,1,30.36,8.09,14.1,14.1,0,0,1,34.78,11c0.32,0.29.6,0.61,0.89,0.92l0.91,1,1.75,2,3.21,3.65c0.25,0.28.5,0.56,0.72,0.84a4,4,0,0,0,.72.77l1.51,1.27c0.94,0.8,1.78,1.48,2.48,2,1.39,1.12,2.2,1.74,2.2,1.74S48.66,24.33,47.72,22.81Z" transform="translate(-0.83 -4.35)"/><path class="cls-1" d="M24.94,13.18a7.24,7.24,0,0,0-5.44,2.46L7,29.88l8.28-1.94,7.57-8.88a2.77,2.77,0,0,1,4.22,0l7.57,8.88,8.28,1.94L30.38,15.64A7.24,7.24,0,0,0,24.94,13.18Z" transform="translate(-0.83 -4.35)"/><rect class="cls-1" x="15.15" y="27.38" width="1.75" height="8.4"/><rect class="cls-1" x="20.46" y="20.74" width="1.75" height="20.56"/><rect class="cls-1" x="25.77" y="20.74" width="1.75" height="20.56"/><rect class="cls-1" x="31.08" y="27.38" width="1.75" height="8.4"/></svg>