<?xml version="1.0" encoding="utf-8"?>
<!-- Generator: Adobe Illustrator 19.2.1, SVG Export Plug-In . SVG Version: 6.00 Build 0)  -->
<svg version="1.1" id="Layer_1" xmlns="http://www.w3.org/2000/svg" xmlns:xlink="http://www.w3.org/1999/xlink" x="0px" y="0px"
	 viewBox="0 0 50 50" style="enable-background:new 0 0 50 50;" xml:space="preserve">
<style type="text/css">
	.st0{fill:#FFFFFF;}
</style>
<g id="Image_xA0_2">
	<g>
		<path class="st0" d="M44.1,38.3c0.9,0.7,1.4,1.5,1.4,2.4c0,3.6-9.2,6.5-20.4,6.5S4.6,44.3,4.6,40.7c0-0.8,0.5-1.6,1.4-2.4
			c-2.3,1.1-3.7,2.5-3.7,3.9c0,4,10.2,7.3,22.7,7.3s22.7-3.2,22.7-7.3C47.7,40.8,46.4,39.5,44.1,38.3z M25.1,43.2
			c6.9,0,12.5-5.6,12.5-12.4c0-8.6-9.6-18.5-10.6-19.6l-1.8-1.8l-1.8,1.8c-0.4,0.4-10.7,10.5-10.7,19.6
			C12.7,37.7,18.3,43.2,25.1,43.2z M24.4,29.5l0.7-0.7l0.7,0.7c0.4,0.4,4.3,4.4,4.3,7.8c0,2.7-2.2,5-5,5c-2.8,0-5-2.2-5-5
			C20.1,33.8,24.2,29.7,24.4,29.5z M25.1,4.4c1.2,1.1,6.8,5.4,7.2,7.7c0,0,0.3-7.4-7.2-11.7C17.6,4.8,18,12.2,18,12.2
			C18.4,9.8,24,5.5,25.1,4.4z"/>
	</g>
</g>
</svg>
