<svg id="Layer_1" data-name="Layer 1" xmlns="http://www.w3.org/2000/svg" viewBox="0 0 44.05 48.24"><defs><style>.cls-1{fill:#dbbd67;}</style></defs><title>Abilities_Icon_Howitzer_MakeItRain</title><rect class="cls-1" x="0.63" width="2.54" height="30.01"/><rect class="cls-1" x="21.07" y="9.77" width="2.54" height="30.01"/><rect class="cls-1" x="31.94" y="7.82" width="2.54" height="30.01"/><rect class="cls-1" x="10.2" y="7.82" width="2.54" height="30.01"/><rect class="cls-1" x="40.88" width="2.54" height="30.01"/><rect class="cls-1" y="32.55" width="3.8" height="2.76"/><rect class="cls-1" x="40.25" y="32.55" width="3.8" height="2.76"/><rect class="cls-1" x="9.57" y="40.37" width="3.8" height="2.76"/><rect class="cls-1" x="31.31" y="40.37" width="3.8" height="2.76"/><rect class="cls-1" x="20.44" y="42.32" width="3.8" height="2.76"/><polygon class="cls-1" points="1.9 33.93 0 35.31 1.9 38.46 3.8 35.31 1.9 33.93"/><polygon class="cls-1" points="11.47 41.75 9.57 43.13 11.47 46.28 13.38 43.13 11.47 41.75"/><polygon class="cls-1" points="22.34 43.7 20.44 45.08 22.34 48.24 24.24 45.08 22.34 43.7"/><polygon class="cls-1" points="33.21 41.75 31.31 43.13 33.21 46.28 35.11 43.13 33.21 41.75"/><polygon class="cls-1" points="42.15 33.93 40.25 35.31 42.15 38.46 44.05 35.31 42.15 33.93"/></svg>