<svg id="Layer_1" data-name="Layer 1" xmlns="http://www.w3.org/2000/svg" viewBox="0 0 30 49.15"><defs><style>.cls-1{fill:#fff;}</style></defs><title>Abilities_Icon_Sparrow_HailofArrows</title><path class="cls-1" d="M25,384.09l-4.73-3.78s0.18,2.29.26,4.18a7.77,7.77,0,0,0,2.55,4.87,8.87,8.87,0,0,1,1.92,3.7,8.87,8.87,0,0,1,1.92-3.7,7.77,7.77,0,0,0,2.55-4.87c0.09-1.89.26-4.18,0.26-4.18Z" transform="translate(-10 -343.91)"/><path class="cls-1" d="M35.27,373.12l-4.73-3.78s0.18,2.29.26,4.18a7.77,7.77,0,0,0,2.55,4.87,8.87,8.87,0,0,1,1.92,3.7,8.87,8.87,0,0,1,1.92-3.7,7.77,7.77,0,0,0,2.55-4.87c0.09-1.89.26-4.18,0.26-4.18Z" transform="translate(-10 -343.91)"/><path class="cls-1" d="M14.73,373.12L10,369.33s0.18,2.29.26,4.18a7.77,7.77,0,0,0,2.55,4.87,8.87,8.87,0,0,1,1.92,3.7,8.87,8.87,0,0,1,1.92-3.7,7.77,7.77,0,0,0,2.55-4.87c0.09-1.89.26-4.18,0.26-4.18Z" transform="translate(-10 -343.91)"/><path class="cls-1" d="M15.53,377.09V351.89a55.64,55.64,0,0,0-.8-8,55.64,55.64,0,0,0-.8,8v25.19l0.8,0.64Z" transform="translate(-10 -343.91)"/><path class="cls-1" d="M25.8,388.06V356.58h0a55.5,55.5,0,0,0-.8-8,55.5,55.5,0,0,0-.8,8h0v31.48L25,388.7Z" transform="translate(-10 -343.91)"/><path class="cls-1" d="M36.07,377.09V351.89a55.64,55.64,0,0,0-.8-8,55.64,55.64,0,0,0-.8,8v25.19l0.8,0.64Z" transform="translate(-10 -343.91)"/></svg>