<svg id="Layer_1" data-name="Layer 1" xmlns="http://www.w3.org/2000/svg" viewBox="0 0 39.04 49.61"><defs><style>.cls-1{fill:#acab9c;}</style></defs><title>Abilities_Icon_Howitzer_FastReload</title><polygon class="cls-1" points="6.74 19.27 6.74 23.73 9.76 37.7 9.76 19.27 9.76 19.27 6.74 19.27"/><polygon class="cls-1" points="29.18 19.28 29.18 37.7 32.2 23.73 32.2 19.27 29.18 19.27 29.18 19.28"/><path class="cls-1" d="M453.86,690.18a19.54,19.54,0,0,0-19.52,19.52v0.38l5.13,5-0.21-1v-1.77l-3.11-3a17.69,17.69,0,0,1,.36-3.19h7.58v-6s0.41-3.71,8.2-4.13V720.4l1.51,19.38,1.51-19.38V696c7.75,0.42,8.19,4.08,8.2,4.13v6h7.68a17.67,17.67,0,0,1,.36,3.19l-3.22,3.11v1.68l-0.23,1.05,5.26-5.08V709.7A19.54,19.54,0,0,0,453.86,690.18Z" transform="translate(-434.34 -690.18)"/></svg>