<svg id="Layer_1" data-name="Layer 1" xmlns="http://www.w3.org/2000/svg" viewBox="0 0 48.18 38.79"><defs><style>.cls-1{fill:#fff;}</style></defs><title>Abilities_Icons_Steel_Punch</title><path class="cls-1" d="M281.41,5.61a24.12,24.12,0,0,0-24.09,24.09H259a22.37,22.37,0,1,1,44.74,0h1.72A24.12,24.12,0,0,0,281.41,5.61Z" transform="translate(-257.32 -5.61)"/><rect class="cls-1" x="25.74" y="12.31" width="3.73" height="11.11"/><rect class="cls-1" x="12.98" y="12.31" width="3.92" height="5.97"/><polygon class="cls-1" points="31.47 24.37 31.47 25.54 25.74 25.54 25.74 27.38 16.72 27.38 16.72 23.69 19.84 22.1 19.84 20.28 11.62 20.28 11.62 32.25 16.85 37.18 16.85 38.79 33.19 38.79 33.19 37.25 36 32.32 36 25.3 35.51 24.37 31.47 24.37"/><rect class="cls-1" x="31.47" y="12.31" width="3.86" height="9.95"/><polygon class="cls-1" points="18.76 25.35 23.62 25.35 23.62 12.3 19.03 12.3 19.03 18.28 22 18.28 22 23.69 22 23.69 18.76 25.2 18.76 25.35"/></svg>