<svg id="Layer_1" data-name="Layer 1" xmlns="http://www.w3.org/2000/svg" viewBox="0 0 48.57 35.31"><defs><style>.cls-1{fill:#fff;}</style></defs><title>Abilities_Icons_Steel_ShieldBlock</title><polygon class="cls-1" points="24.29 0 24.29 0 24.29 0 24.29 0"/><circle class="cls-1" cx="24.29" cy="18.26"/><polygon class="cls-1" points="24.29 35.31 24.29 35.31 24.29 35.31 24.29 35.31"/><path class="cls-1" d="M348.23,13.19l-3.67.86c0,4.95-2,5.37-2,5.37V31.32s2,0.9,2,5.85L348.23,38l4.16,4.62h13.52V39.29L363.74,34V17.18l2.18-5.9V8.56H352.4Zm7.4,25.49a2.1,2.1,0,1,1,2.1-2.1A2.1,2.1,0,0,1,355.64,38.67Zm3-7.35H348.16V27.07h10.49v4.26Zm0-7.65H348.16V19.42h10.49v4.26Zm-3-11.13a2.1,2.1,0,1,1-2.1,2.1A2.1,2.1,0,0,1,355.64,12.54Z" transform="translate(-342.6 -7.35)"/><path class="cls-1" d="M389.2,14l-3.67-.86-4.16-4.62H367.85v2.72l2.18,5.9V34l-2.18,5.26v3.36h13.52L385.53,38l3.67-.86c0-4.95,2-5.85,2-5.85V19.42S389.2,19,389.2,14Zm-11.07-1.51a2.1,2.1,0,1,1-2.1,2.1A2.1,2.1,0,0,1,378.13,12.54Zm0,26.13a2.1,2.1,0,1,1,2.1-2.1A2.1,2.1,0,0,1,378.13,38.67Zm7.47-7.35H375.11V27.07H385.6v4.26Zm0-7.65H375.11V19.42H385.6v4.26Z" transform="translate(-342.6 -7.35)"/></svg>