<svg id="Layer_1" data-name="Layer 1" xmlns="http://www.w3.org/2000/svg" viewBox="0 0 40.57 49.41"><defs><style>.cls-1{fill:#fff;}</style></defs><title>Abilities_Icon_Sparrow_DrawABead</title><path class="cls-1" d="M387.14,366.16c0-.44,0-0.93-0.08-1.47L386.78,363c-0.11-.61-0.32-1.25-0.49-1.93a4.17,4.17,0,0,0-.42-1c-0.17-.33-0.33-0.67-0.5-1-0.39-.66-0.79-1.36-1.26-2a21.74,21.74,0,0,0-5.8-5.63,20.48,20.48,0,0,0-4.14-2.07h0s-4.18-1.46-5.87-3.67l-1.41-1.84h0l-1.41,1.84c-1.7,2.21-5.87,3.67-5.87,3.67h0a20.48,20.48,0,0,0-4.14,2.07,21.74,21.74,0,0,0-5.8,5.63c-0.47.68-.87,1.38-1.26,2-0.17.35-.33,0.69-0.5,1a4.17,4.17,0,0,0-.42,1c-0.17.69-.38,1.32-0.49,1.93l-0.28,1.72c0,0.54-.06,1-0.08,1.47l0,0.62c0,0.2,0,.38,0,0.55l0.05,0.86,0,0.71,0.12-.71a17.1,17.1,0,0,1,.39-2c0.11-.41.22-0.87,0.36-1.36l0.56-1.55c0.46-1.08,1.06-2.24,1.66-3.54,0.36-.61.73-1.26,1.16-1.89a20.15,20.15,0,0,1,5.36-5.2,19.35,19.35,0,0,1,4.24-2.06c1.21-.36,3.39-0.65,4,1.66a31.67,31.67,0,0,1,1.12,9.51V373.4c0,1.1,0,2.11-.08,3-0.46,7.33-3.09,5.31-5.58,2.88-0.43-.45-1.9-2.41.1-6.24a17.6,17.6,0,0,0,1.7-10.65h-0.12c-0.23,9.65-6.66,13.73-6.66,13.73l11.79,17h0l11.79-17s-6.43-4.08-6.66-13.73h-0.12a17.6,17.6,0,0,0,1.7,10.64c2,3.82.53,5.78,0.1,6.24-2.49,2.43-5.12,4.45-5.58-2.88-0.05-.92-0.08-1.93-0.08-3V361.81a31.67,31.67,0,0,1,1.12-9.51c0.64-2.3,2.83-2,4-1.66a19,19,0,0,1,8.11,5.4,19.11,19.11,0,0,1,1.48,1.86c0.43,0.63.8,1.28,1.16,1.89,0.59,1.29,1.19,2.45,1.66,3.54l0.56,1.55c0.14,0.49.25,0.95,0.36,1.36a17.1,17.1,0,0,1,.39,2l0.12,0.71,0-.71,0.05-.86c0-.17,0-0.36,0-0.55Z" transform="translate(-346.6 -343.77)"/></svg>