<svg id="Layer_1" data-name="Layer 1" xmlns="http://www.w3.org/2000/svg" viewBox="0 0 44.78 49.04"><defs><style>.cls-1{fill:#acab9c;}</style></defs><title>Abilities_Icon_Rampage_Regenerate</title><path class="cls-1" d="M476.18,451.46a23.76,23.76,0,0,0-1.63-6.6,22.95,22.95,0,0,0-8-9.83,24,24,0,0,0-2.45-1.54c-0.83-.44-1.66-0.81-2.45-1.16s-1.59-.61-2.36-0.82-1.49-.41-2.18-0.54c0,0-2.29-.16-0.16.58l2.05,0.7c0.71,0.26,1.42.64,2.17,1s1.47,0.82,2.2,1.3a22.05,22.05,0,0,1,2.15,1.64,21.1,21.1,0,0,1,3.8,4.23,19.23,19.23,0,0,1,3.39,11.16,21.26,21.26,0,0,1-.32,3,19.65,19.65,0,0,1-.71,2.77,20,20,0,0,1-2.63,5,19.76,19.76,0,0,1-3.68,3.82,20.29,20.29,0,0,1-2,1.43l-0.65.37a1.67,1.67,0,0,1-1.51-2h0a12.08,12.08,0,0,0,1.07-.88,12.27,12.27,0,0,0,1.24-1.22,16.1,16.1,0,0,0,2.11-2.85c0.31-.51.54-1.06,0.81-1.59s0.43-1.11.6-1.67a15,15,0,0,0,.58-3.43,10.23,10.23,0,0,0,0-1.66l-0.06-.75c0-.36-0.08-0.56-0.12-0.84a14.19,14.19,0,0,0-2.11-5.28,14.71,14.71,0,0,0-2.63-3,14.41,14.41,0,0,0-1.19-.94,13.85,13.85,0,0,1,1,1.12,13.53,13.53,0,0,1,1.88,3.27,12.46,12.46,0,0,1,.89,5c0,0.21,0,.5,0,0.64l-0.09.75a7.6,7.6,0,0,1-.28,1.39,12.67,12.67,0,0,1-1,2.61c-0.23.41-.49,0.81-0.74,1.2s-0.55.75-.87,1.09a12.43,12.43,0,0,1-2,1.81,8.66,8.66,0,0,1-1,.67l-1.71-5.55-3.6,9-3.6-9-1.71,5.55a8.67,8.67,0,0,1-1-.67,12.43,12.43,0,0,1-2-1.81c-0.32-.34-0.57-0.72-0.87-1.09s-0.51-.79-0.74-1.2a12.67,12.67,0,0,1-1-2.61,7.61,7.61,0,0,1-.28-1.39l-0.09-.75c0-.14,0-0.43,0-0.64a12.46,12.46,0,0,1,.89-5,13.52,13.52,0,0,1,1.88-3.27,13.84,13.84,0,0,1,1-1.12,14.42,14.42,0,0,0-1.19.94,14.71,14.71,0,0,0-2.63,3,14.19,14.19,0,0,0-2.11,5.28c0,0.28-.1.48-0.12,0.84l-0.06.75a10.24,10.24,0,0,0,0,1.66,15,15,0,0,0,.58,3.43c0.17,0.56.39,1.11,0.6,1.67s0.5,1.08.81,1.59a16.1,16.1,0,0,0,2.11,2.85,12.26,12.26,0,0,0,1.24,1.22,12.06,12.06,0,0,0,1.07.88h0a1.67,1.67,0,0,1-1.51,2l-0.65-.37a20.28,20.28,0,0,1-2-1.43,19.76,19.76,0,0,1-3.68-3.82,20,20,0,0,1-2.63-5,19.66,19.66,0,0,1-.71-2.77,21.27,21.27,0,0,1-.32-3,19.23,19.23,0,0,1,3.39-11.16,21.1,21.1,0,0,1,3.8-4.23,22,22,0,0,1,2.15-1.64c0.73-.48,1.49-0.9,2.2-1.3s1.46-.71,2.17-1l2.05-.7c2.13-.73-0.16-0.58-0.16-0.58-0.69.13-1.41,0.35-2.18,0.54s-1.53.53-2.36,0.82-1.62.72-2.45,1.16a24,24,0,0,0-2.45,1.54,22.95,22.95,0,0,0-8,9.83,23.76,23.76,0,0,0-1.63,6.6,24.23,24.23,0,0,0,0,3.39,22.57,22.57,0,0,0,.51,3.45,23.66,23.66,0,0,0,2.55,6.29,24.08,24.08,0,0,0,4.05,5.12,24.52,24.52,0,0,0,2.31,2l12.9,8.28,12.9-8.28a24.53,24.53,0,0,0,2.31-2,24.08,24.08,0,0,0,4.05-5.12,23.66,23.66,0,0,0,2.55-6.29,22.56,22.56,0,0,0,.51-3.45A24.22,24.22,0,0,0,476.18,451.46Z" transform="translate(-431.47 -430.96)"/></svg>