<svg id="Layer_1" data-name="Layer 1" xmlns="http://www.w3.org/2000/svg" viewBox="0 0 48.99 42.51"><defs><style>.cls-1{fill:#fff;}</style></defs><title>Abilities_Icons_Grux_Whirlwind</title><path class="cls-1" d="M384.66,132.23l-0.15-5.7a8,8,0,0,1-5.48-1.91h0l-10.22-10.22,3.32-3.32s7.62-8.28,10.46,4.94l-0.82,2.19,2.5-.77a17.73,17.73,0,1,0-34.89,0l2.5,0.77L351.07,116h0c2.85-13.22,10.46-4.94,10.46-4.94h0l3.32,3.32-10.22,10.22a8,8,0,0,1-5.48,1.91l-0.15,5.7h0l5.7-.15a8,8,0,0,1,1.91-5.48h0l10.22-10.22,10.22,10.22a8,8,0,0,1,1.91,5.48l5.7,0.15h0Zm-21.15-23.12s-7.55-7,3.32-10.06c10.87,3.1,3.32,10.05,3.32,10.05h0l-3.32,3.32Z" transform="translate(-342.39 -89.73)"/><path class="cls-1" d="M391.36,113.88l0-1.07v-0.54c0-.18,0-0.36-0.06-0.54-0.1-.72-0.16-1.47-0.31-2.21s-0.34-1.49-.54-2.24a23.82,23.82,0,0,0-4.61-8.64,24.64,24.64,0,0,0-13.45-8.27,11,11,0,0,0-1.37-.26l-1.4-.21c-0.46-.06-0.88-0.06-1.32-0.09l-1.37-.07a25.06,25.06,0,0,0-10.62,2.44,24.67,24.67,0,0,0-8.3,6.47,23.84,23.84,0,0,0-4.61,8.64c-0.21.75-.36,1.51-0.54,2.24s-0.22,1.51-.31,2.25c0,0.18,0,.37-0.06.55v0.52l0,1v0.82a0.77,0.77,0,0,0,0,.1v0.13l0.06,1a25.17,25.17,0,0,0,.61,3.82,26.29,26.29,0,0,0,1.08,3.3,23.48,23.48,0,0,0,2.73,4.88l0.28,0.36,0-.88a25.25,25.25,0,0,1-2.1-4.7,24.5,24.5,0,0,1-1.13-6.84q0-.48,0-1v-0.12s0-.08,0,0v-0.06l0-.25,0-.51,0.08-1,0-.52c0-.17.06-0.33,0.09-0.49,0.14-.66.22-1.32,0.39-2s0.37-1.36.59-2a23,23,0,0,1,12.13-13.42,22.49,22.49,0,0,1,9.54-2.11l1.24,0.06c0.43,0,.89,0,1.29.08l1.19,0.18a8.82,8.82,0,0,1,1.19.22,22,22,0,0,1,4.64,1.57,23,23,0,0,1,12.13,13.41,25.08,25.08,0,0,1,1.26,8,24.53,24.53,0,0,1-1.13,6.83,25.19,25.19,0,0,1-2.19,4.86l0,0.84,0.37-.48a23.45,23.45,0,0,0,2.73-4.88,26.29,26.29,0,0,0,1.08-3.3,25.14,25.14,0,0,0,.61-3.83l0.06-1C391.39,114.57,391.36,114.24,391.36,113.88Z" transform="translate(-342.39 -89.73)"/></svg>