<svg id="Layer_1" data-name="Layer 1" xmlns="http://www.w3.org/2000/svg" viewBox="0 0 48.71 36.9"><defs><style>.cls-1{fill:#fff;}</style></defs><title>Abilities_Icons_Steel_ForceShield</title><path class="cls-1" d="M115.75,28.49a5.77,5.77,0,0,0-3.56-5.33l8.76-14.6H99l8.76,14.6A5.77,5.77,0,1,0,115.75,28.49Z" transform="translate(-85.62 -6.55)"/><polygon class="cls-1" points="37.28 36.85 47.34 36.9 47.34 13.57 37.28 29.46 37.28 36.85"/><polygon class="cls-1" points="1.38 36.9 11.43 36.9 11.43 29.46 1.38 13.57 1.38 36.9"/><path class="cls-1" d="M100.92,28.49a9,9,0,0,1,2.17-5.88L93.19,6.55H85.62v5l20.33,31.94h2V37.31A9,9,0,0,1,100.92,28.49Z" transform="translate(-85.62 -6.55)"/><path class="cls-1" d="M126.77,6.55l-9.91,16.06a9,9,0,0,1-4.56,14.62v6.22H114l20.33-31.94v-5h-7.57Z" transform="translate(-85.62 -6.55)"/></svg>