<svg id="Layer_1" data-name="Layer 1" xmlns="http://www.w3.org/2000/svg" viewBox="0 0 48.86 48.86"><defs><style>.cls-1{fill:#dbbd67;}</style></defs><title>Abilities_Icons_Grux_ResonatingBlow</title><path class="cls-1" d="M199.3,86.78l0,0.24a12.2,12.2,0,0,1,7,18.16c-0.69,1-3.15,4-6.23,1.31h0a6.08,6.08,0,0,0-8.29,0h0c-3.08,2.73-5.54-.3-6.23-1.31a12.19,12.19,0,0,1,7-18.16l0-.23a24.43,24.43,0,0,0,0,48.37l0-.23a12.19,12.19,0,0,1-7-18.16c0.69-1,3.15-4,6.23-1.31h0a6.08,6.08,0,0,0,8.29,0h0c3.08-2.73,5.54.3,6.23,1.31a12.2,12.2,0,0,1-7,18.16l0,0.24A24.43,24.43,0,0,0,199.3,86.78ZM174.45,111a21.44,21.44,0,0,1,6.67-15.54,14.87,14.87,0,0,0,.4,8,16.19,16.19,0,0,0,0,15.08,14.87,14.87,0,0,0-.39,8A21.44,21.44,0,0,1,174.45,111Zm36.2,15.66a14.89,14.89,0,0,0-.37-8.12,16.22,16.22,0,0,0,0-15.09,14.89,14.89,0,0,0,.36-8.13A21.46,21.46,0,0,1,210.65,126.65Z" transform="translate(-171.52 -86.55)"/><path class="cls-1" d="M195.9,135.41h0Z" transform="translate(-171.52 -86.55)"/><path class="cls-1" d="M195.9,86.55h0Z" transform="translate(-171.52 -86.55)"/></svg>