<svg id="Layer_1" data-name="Layer 1" xmlns="http://www.w3.org/2000/svg" viewBox="0 0 32.71 48.13"><defs><style>.cls-1{fill:#dbbd67;}</style></defs><title>Abilities_Icon_Kallari_DeathSentence</title><path class="cls-1" d="M198.71,536.77h0V521.92l-2.76-4-2.76,4v14.86a4.29,4.29,0,0,1,2.35,2.73,2.51,2.51,0,0,0,0,4.95,4.29,4.29,0,0,1-2.35,2.73V562l2.76,4,2.76-4V547.19h0a4.29,4.29,0,0,1-2.35-2.73,2.51,2.51,0,0,0,0-5A4.29,4.29,0,0,1,198.71,536.77Z" transform="translate(-179.59 -517.91)"/><path class="cls-1" d="M188.47,526.8a10.94,10.94,0,0,0-1.28.76l-0.76.51-0.74.59a17.29,17.29,0,0,0-2.77,2.87,17.62,17.62,0,0,0-1.14,1.76l-0.51.93-0.43,1a7.2,7.2,0,0,0-.38,1l-0.33,1a17.93,17.93,0,0,0-.4,2.13l-0.12,1.07v1.61c0,0.24,0,.36,0,0.54,0,0.34,0,.66.1,1a15.8,15.8,0,0,0,1.06,4,15.09,15.09,0,0,0,1.84,3.32,15.31,15.31,0,0,0,2.25,2.51,13.21,13.21,0,0,0,1.16.94,11.57,11.57,0,0,0,1.11.75,10.94,10.94,0,0,0,1,.58,8.25,8.25,0,0,0,.9.43,11.71,11.71,0,0,0,1.29.5l0.46,0.16-0.45-.2a11.61,11.61,0,0,1-1.24-.61,8.08,8.08,0,0,1-.85-0.5,10.66,10.66,0,0,1-1-.65,11.21,11.21,0,0,1-1-.82,12.71,12.71,0,0,1-1-1,14.6,14.6,0,0,1-1.94-2.57,14.09,14.09,0,0,1-1.46-3.24,14.58,14.58,0,0,1-.66-3.68c0-.31,0-0.66,0-1,0-.15,0-0.37,0-0.47l0-.48,0.09-1,0.19-.95a16.05,16.05,0,0,1,.51-1.85l0.36-.88a5.79,5.79,0,0,1,.4-0.85l0.44-.82,0.51-.77a15.24,15.24,0,0,1,1.1-1.42,14.62,14.62,0,0,1,2.53-2.22l0.65-.44,0.67-.37c1.87-1,3,1.21,3,1.21v-7.47A16.27,16.27,0,0,1,188.47,526.8Z" transform="translate(-179.59 -517.91)"/><path class="cls-1" d="M212.26,541.35c0-.34,0-0.66-0.1-1a15.8,15.8,0,0,0-1.06-4,15.09,15.09,0,0,0-1.84-3.32,15.31,15.31,0,0,0-2.25-2.51,13.21,13.21,0,0,0-1.16-.94,11.58,11.58,0,0,0-1.11-.75,10.94,10.94,0,0,0-1-.58,8.25,8.25,0,0,0-.9-0.43,11.71,11.71,0,0,0-1.29-.5l-0.46-.16,0.45,0.2a11.61,11.61,0,0,1,1.24.61,8.07,8.07,0,0,1,.85.5,10.66,10.66,0,0,1,1,.65,11.21,11.21,0,0,1,1,.82,12.71,12.71,0,0,1,1,1,14.61,14.61,0,0,1,1.94,2.57,14.09,14.09,0,0,1,1.46,3.24,14.58,14.58,0,0,1,.66,3.68c0,0.31,0,.66,0,1,0,0.15,0,.37,0,0.47l0,0.48-0.09,1-0.19.95a16.06,16.06,0,0,1-.51,1.85l-0.36.88a5.79,5.79,0,0,1-.4.85l-0.44.82-0.51.77a15.23,15.23,0,0,1-1.1,1.42,14.62,14.62,0,0,1-2.53,2.22l-0.65.44-0.67.37h0c-1.87,1-3-1.21-3-1.21v1.94h0v5.54a15.13,15.13,0,0,1,3.57-3.15l0.28-.16,0,0h0c0.21-.13.43-0.25,0.64-0.4l0.76-.51,0.74-.59a17.29,17.29,0,0,0,2.77-2.87,17.62,17.62,0,0,0,1.14-1.76l0.51-.93,0.43-1a7.19,7.19,0,0,0,.38-1l0.33-1a17.92,17.92,0,0,0,.4-2.13l0.12-1.07v-1.61C212.3,541.65,212.28,541.53,212.26,541.35Z" transform="translate(-179.59 -517.91)"/></svg>