<svg id="Layer_1" data-name="Layer 1" xmlns="http://www.w3.org/2000/svg" viewBox="0 0 48.86 43.16"><defs><style>.cls-1{fill:#dbbd67;}</style></defs><title>Abilities_Icon_Murdock_DevastatingBlast</title><circle class="cls-1" cx="24.43" cy="21.59" r="4.75"/><path class="cls-1" d="M176.75,193.57A19.14,19.14,0,0,1,182,183.46l0.67,0.68,0.22-.21a18.44,18.44,0,0,1,6.76-4.23l0.29-.1-1.48-4.2-0.29.1a22.93,22.93,0,0,0-8.4,5.26l-0.22.21,0.68,0.69A21.47,21.47,0,0,0,174.28,193a2.19,2.19,0,0,1-2.12,1.63h-0.64v4.64h0.64a2.17,2.17,0,0,1,2.1,1.53,21.66,21.66,0,0,0,5.95,11.47l-0.68.69,0.22,0.21a22.93,22.93,0,0,0,8.4,5.26l0.29,0.1,1.48-4.2-0.29-.1a18.44,18.44,0,0,1-6.76-4.23l-0.22-.21-0.67.68a19.32,19.32,0,0,1-5.26-10.21,4.71,4.71,0,0,0-3.2-3.3A4.82,4.82,0,0,0,176.75,193.57Z" transform="translate(-171.52 -175.4)"/><path class="cls-1" d="M219.73,194.66a2.17,2.17,0,0,1-2.1-1.53,21.65,21.65,0,0,0-5.95-11.47l0.68-.69-0.22-.21a22.94,22.94,0,0,0-8.4-5.26l-0.29-.1L202,179.6l0.29,0.1a18.45,18.45,0,0,1,6.76,4.23l0.22,0.21,0.67-.68a19.32,19.32,0,0,1,5.26,10.21,4.71,4.71,0,0,0,3.2,3.31,4.82,4.82,0,0,0-3.22,3.41,19.14,19.14,0,0,1-5.23,10.11l-0.67-.68L209,210a18.45,18.45,0,0,1-6.76,4.23l-0.29.1,1.48,4.2,0.29-.1a22.94,22.94,0,0,0,8.4-5.26l0.22-.21-0.68-.69a21.47,21.47,0,0,0,5.93-11.37,2.19,2.19,0,0,1,2.12-1.63h0.64v-4.64h-0.64Z" transform="translate(-171.52 -175.4)"/></svg>