<svg id="Layer_1" data-name="Layer 1" xmlns="http://www.w3.org/2000/svg" viewBox="0 0 43.36 49.44"><defs><style>.cls-1{fill:#dbbd67;}</style></defs><title>Abilities_Icon_Rampage_Enrage</title><path class="cls-1" d="M217.62,456a21.68,21.68,0,0,0-14.72-20.53h0s-5.62-2-7-4.69h0c-1.35,2.69-7,4.69-7,4.69h0a21.63,21.63,0,0,0-12.81,29.38,19.94,19.94,0,0,1,7.7-18.91l1.4-1a11.85,11.85,0,0,0,2.76-2.22h0a7.18,7.18,0,0,0,2-3.67l1.68,3.46,0,0.05c1.27,2.82-1.54,5.1-3.35,6a15.27,15.27,0,0,0-5.65,21,13.12,13.12,0,0,1-.22-2.31,13.39,13.39,0,0,1,5.61-10.88l0.2-.12c0.21-.12,3.56-1.44,4.26,2.27l3.34,21.67,3.34-21.67c0.7-3.71,4.05-2.39,4.26-2.27l0.2,0.12a13.39,13.39,0,0,1,5.61,10.88,13.12,13.12,0,0,1-.22,2.31,15.27,15.27,0,0,0-5.65-21c-1.81-.87-4.62-3.15-3.35-6l0-.05,1.68-3.46a7.18,7.18,0,0,0,2,3.67h0a11.85,11.85,0,0,0,2.76,2.22l1.4,1a19.94,19.94,0,0,1,7.7,18.91A21.48,21.48,0,0,0,217.62,456Z" transform="translate(-174.27 -430.76)"/><path class="cls-1" d="M192.92,458.48c-0.47-2.49-2.09-2.86-3-2.86a4.18,4.18,0,0,0-1.71.37l-0.21.13a13.77,13.77,0,0,0-5.75,11.15c0,0.2,0,.4,0,0.6a15,15,0,0,1,6.33-19c1.93-.93,4.85-3.33,3.48-6.38l-2.14-4.4-0.17,1a7.07,7.07,0,0,1-1.68,3.27l0,0-0.24.27a11.52,11.52,0,0,1-2.68,2.15l-1.42,1a20.13,20.13,0,0,0-8.06,16.19q0,0.37,0,.75a21,21,0,0,1-1.06-6.62,21.35,21.35,0,0,1,14.5-20.23l1.08-.37-0.1,0c1.57-.66,4.6-2.12,5.88-4l0,0h0c1.29,1.85,4.29,3.29,5.85,3.94l-0.1,0,1.08,0.37A21.35,21.35,0,0,1,217.31,456a21,21,0,0,1-1.06,6.62q0-.37,0-0.75a20.13,20.13,0,0,0-8.05-16.19l-1.41-1a11.61,11.61,0,0,1-2.7-2.17l-0.25-.29,0,0a7.07,7.07,0,0,1-1.66-3.25L202,438l-2.14,4.4c-1.37,3,1.55,5.45,3.5,6.39a15,15,0,0,1,6.31,19c0-.2,0-0.4,0-0.6a13.76,13.76,0,0,0-5.74-11.14l-0.23-.14a4.17,4.17,0,0,0-1.71-.37c-0.93,0-2.55.37-3,2.85l-3,19.65Z" transform="translate(-174.27 -430.76)"/><path class="cls-1" d="M192.78,459.47" transform="translate(-174.27 -430.76)"/><path class="cls-1" d="M192.78,459.47" transform="translate(-174.27 -430.76)"/><path class="cls-1" d="M192.78,459.47" transform="translate(-174.27 -430.76)"/><path class="cls-1" d="M192.78,459.47" transform="translate(-174.27 -430.76)"/></svg>