<svg id="Layer_1" data-name="Layer 1" xmlns="http://www.w3.org/2000/svg" viewBox="0 0 48.63 45.39"><defs><style>.cls-1{fill:#acab9c;}</style></defs><title>Ability_Sevarog_SoulTap</title><path id="P" class="cls-1" d="M49.21,24.72h0ZM24.86,31.9A6.9,6.9,0,0,1,18,26.1C12.35,25.62,2,24.75.79,24.72,2,24.66,12.29,24,18.1,23.57a6.92,6.92,0,0,1,13.52,0c5.75,0.39,16.41,1.11,17.59,1.17-1.2,0-11.92.93-17.54,1.42A6.9,6.9,0,0,1,24.86,31.9ZM0.69,24.72h0Zm35.45-5.13c2.31-.19,10.05-1.77,10.05-1.77L35.33,21.5s0,0.22,0,.55a11,11,0,0,0-7.23-7.29c0.52-.18,1-0.37,1.25-0.5,1.79-.85,2.88-11.91,2.87-12s-0.06,11.14.32,11.6l1.05,1.28,12.48-4.6s-9,4.88-11.41,6c-0.55.27-.26,0.51-0.1,1.42C34.68,18.7,34.6,19.71,36.13,19.59ZM14.32,22c0-.33,0-0.55,0-0.55L3.47,17.83s7.74,1.58,10.05,1.77c1.54,0.12,1.45-.89,1.57-1.56,0.16-.9.45-1.14-0.1-1.42-2.38-1.15-11.41-6-11.41-6l12.48,4.6,1.05-1.28c0.38-.46.32-11.6,0.32-11.6s1.08,11.1,2.87,12c0.27,0.13.74,0.32,1.25,0.5A11,11,0,0,0,14.32,22h0Zm-1,8.36C11,30.59,3.25,32.17,3.25,32.17L14.1,28.5s0-.22,0-0.55a11,11,0,0,0,7.23,7.29c-0.52.18-1,.37-1.25,0.5-1.79.85-2.88,11.91-2.87,12s0.06-11.14-.32-11.6l-1.05-1.28L3.35,39.42s9-4.88,11.41-6c0.55-.27.26-0.51,0.1-1.42C14.75,31.3,14.84,30.29,13.3,30.41ZM35.11,28c0,0.33,0,.55,0,0.55L46,32.18s-7.74-1.58-10.05-1.77c-1.54-.12-1.45.89-1.57,1.56-0.16.9-.45,1.14,0.1,1.42,2.38,1.15,11.41,6,11.41,6l-12.48-4.6L32.33,36.1C31.95,36.56,32,47.7,32,47.7s-1.08-11.1-2.87-12c-0.27-.13-0.74-0.32-1.25-0.5A11,11,0,0,0,35.11,28h0Z" transform="translate(-0.69 -2.3)"/></svg>