<?xml version="1.0" encoding="utf-8"?>
<!-- Generator: Adobe Illustrator 19.2.1, SVG Export Plug-In . SVG Version: 6.00 Build 0)  -->
<svg version="1.1" id="Layer_1" xmlns="http://www.w3.org/2000/svg" xmlns:xlink="http://www.w3.org/1999/xlink" x="0px" y="0px"
	 viewBox="0 0 50 50" style="enable-background:new 0 0 50 50;" xml:space="preserve">
<style type="text/css">
	.st0{fill:#FFFFFF;}
</style>
<g id="Image_xA0_5">
	<g>
		<path class="st0" d="M24.9,26l-5.5,5.7c-5.2,5.7-1.5,12.3-1.5,12c0.3,1.1,1.7,2.1,2.2,2.9c-1-2.5-1.8-8.8,2.1-7.1
			c1.5,0.7,2.1,8.5,2.7,10.6c0.5-2,1.1-9.9,2.7-10.6c4-1.7,3.1,4.6,2.1,7.1c0.5-0.8,1.9-1.8,2.2-2.9c-0.1,0.3,3.7-6.3-1.5-12
			L24.9,26z M25,1.2c-12,0-21.7,9.7-21.7,21.6c0,4.1,1.2,8,3.2,11.2c0.5-1.8,0.4-4.1-0.6-6.5c1.3,2.1,5,4.6,5.7,7.5
			c0.1,0.6,0.2,1.2,0.2,1.9c0.1,0,0.1-0.1,0.2-0.1c3.7-3.8-0.5-6.7-3.5-10.6c-1.6-2-2.1-5.2-1.5-7.5c0.7-2.9,4.4-5.4,5.7-7.5
			c-2.6,6.4,0.8,11.9,5.5,9.4c3.8-2,5.5-13,6.9-18.1c1.4,5.2,3.1,16.1,6.9,18.1c4.7,2.5,8.1-3,5.5-9.4c1.3,2.1,5,4.6,5.7,7.5
			c0.6,2.4,0.1,5.5-1.5,7.5c-2.9,3.8-6.9,6.6-3.9,10.2c0-0.5,0.1-0.9,0.2-1.3c0.7-2.9,4.4-5.4,5.7-7.5c-1.1,2.7-1.1,5.2-0.4,7
			c2.2-3.4,3.5-7.4,3.5-11.8C46.7,10.9,37,1.2,25,1.2z"/>
	</g>
</g>
</svg>
