<svg id="Layer_1" data-name="Layer 1" xmlns="http://www.w3.org/2000/svg" viewBox="0 0 36.13 49.13"><defs><style>.cls-1{fill:#fff;}</style></defs><title>Abilities_Icon_Rampage_Pounce</title><path class="cls-1" d="M354.06,452h0v4.73c0,9.32,5.89,10.47,8,10.58h3.61v-4.86h-3.45a0.87,0.87,0,0,0-.23,0,0.22,0.22,0,0,1-.22,0l-0.41-.29c-0.26-.17-0.48-0.36-0.67-0.51-0.37-.3-0.58-0.51-0.58-0.51s0.21-.21.58-0.51c0.19-.15.41-0.33,0.67-0.51l0.41-.29a0.22,0.22,0,0,1,.22,0,0.87,0.87,0,0,0,.23,0h3.45v-3.42h-3.45a0.87,0.87,0,0,0-.23,0,0.22,0.22,0,0,1-.22,0l-0.41-.29c-0.26-.17-0.48-0.36-0.67-0.51-0.37-.3-0.58-0.51-0.58-0.51s0.21-.21.58-0.51c0.19-.15.41-0.33,0.67-0.51l0.41-.29a0.22,0.22,0,0,1,.22,0,0.87,0.87,0,0,0,.23,0h3.45v-8.92C362.55,449.74,354.06,452,354.06,452Z" transform="translate(-348.82 -430.92)"/><path class="cls-1" d="M371.69,467.28c2.12-.11,8-1.26,8-10.58V452s-8.49-2.22-11.62-7.13v8.92h3.45a1.08,1.08,0,0,0,.23,0,0.2,0.2,0,0,1,.22,0l0.41,0.29c0.26,0.17.48,0.36,0.67,0.5,0.37,0.3.58,0.5,0.58,0.5s-0.21.2-.58,0.5c-0.19.15-.41,0.33-0.67,0.5l-0.41.29a0.2,0.2,0,0,1-.22,0,1.08,1.08,0,0,0-.23,0h-3.45v3.42h3.45a1.08,1.08,0,0,0,.23,0,0.2,0.2,0,0,1,.22,0l0.41,0.29c0.26,0.17.48,0.36,0.67,0.5,0.37,0.3.58,0.5,0.58,0.5s-0.21.2-.58,0.5c-0.19.15-.41,0.33-0.67,0.5l-0.41.29a0.2,0.2,0,0,1-.22,0,1.09,1.09,0,0,0-.23,0h-3.45v4.86h3.61Z" transform="translate(-348.82 -430.92)"/><path class="cls-1" d="M384.54,446.85c-0.72-.47-1.46-1-2.16-1.56s-1.4-1.12-2.05-1.74l-1-.92c-0.32-.31-0.67-0.59-1-0.9l-1-.93-0.91-1c-0.32-.32-0.58-0.68-0.87-1a11.37,11.37,0,0,1-.81-1.07c-0.25-.37-0.53-0.73-0.76-1.11l-0.67-1.17c-0.22-.39-0.37-0.81-0.56-1.22-0.09-.21-0.19-0.41-0.26-0.62l-0.19-.64a7.44,7.44,0,0,1-.34-1.32l-0.11-.73h-0.09v0.74A7.73,7.73,0,0,0,372,433l0.11,0.7c0,0.23.12,0.45,0.19,0.67,0.14,0.44.25,0.91,0.43,1.34l0.55,1.3c0.19,0.43.43,0.83,0.65,1.25a12.17,12.17,0,0,0,.73,1.21c0.26,0.39.5,0.8,0.79,1.17l0.84,1.13,0.9,1.08a16.64,16.64,0,0,0,2,2c0.71,0.62,1.42,1.22,2.16,1.8s1.23,0.93,1.89,1.38v8.71c0,0.75,0,1.57-.13,2.27l-0.13,1.07c-0.06.36-.15,0.71-0.22,1.07a7,7,0,0,1-.28,1.05c-0.12.34-.21,0.7-0.34,1l-0.43,1c-0.15.33-.34,0.63-0.51,0.94a7.18,7.18,0,0,1-.59.89l-0.31.44-0.35.4a6.81,6.81,0,0,1-.74.77,7.76,7.76,0,0,1-.81.69,11.59,11.59,0,0,1-5.89,2.33l-0.53.05h-9.51a6.62,6.62,0,0,1-1-.05l-0.55-.05-0.49-.09a7.31,7.31,0,0,1-1-.23,7.15,7.15,0,0,1-1-.32,6.7,6.7,0,0,1-1-.4,6.35,6.35,0,0,1-.91-0.49,6.57,6.57,0,0,1-.86-0.57,7.11,7.11,0,0,1-.8-0.64,11.87,11.87,0,0,1-1.42-1.5l-0.6-.84c-0.18-.29-0.34-0.6-0.52-0.9a7.4,7.4,0,0,1-.45-0.94,7.29,7.29,0,0,1-.38-1l-0.32-1-0.23-1a20.17,20.17,0,0,1-.31-2.1c0-.71-0.07-1.42-0.09-2.15V448c0.65-.45,1.27-0.9,1.89-1.38s1.45-1.18,2.16-1.8c0.35-.31.71-0.61,1-1s0.65-.68.95-1l0.9-1.08,0.84-1.13c0.29-.37.53-0.78,0.79-1.17a12.14,12.14,0,0,0,.72-1.21c0.22-.42.46-0.82,0.65-1.25l0.55-1.29c0.18-.43.29-0.89,0.43-1.34a6.8,6.8,0,0,0,.3-1.37,7.75,7.75,0,0,0,.16-1.38v-0.74h-0.09l-0.11.72a7.55,7.55,0,0,1-.34,1.32l-0.19.65c-0.07.21-.18,0.42-0.26,0.62-0.19.41-.34,0.83-0.56,1.23l-0.66,1.17c-0.23.38-.51,0.74-0.76,1.11a11.35,11.35,0,0,1-.82,1.07c-0.29.34-.55,0.7-0.87,1l-0.92,1-1,.93c-0.32.31-.68,0.59-1,0.9l-1,.92c-0.65.62-1.35,1.18-2.05,1.73s-1.44,1.09-2.16,1.56l-0.4.26v9.37c0,0.75,0,1.53.09,2.3a21.9,21.9,0,0,0,.34,2.3l0.25,1.14,0.36,1.12a8.67,8.67,0,0,0,.43,1.1,8.86,8.86,0,0,0,.51,1.07c0.2,0.34.38,0.69,0.59,1l0.69,1a13.63,13.63,0,0,0,1.64,1.73,8.66,8.66,0,0,0,.93.75,8,8,0,0,0,1,.66,7.78,7.78,0,0,0,1.05.56,8.29,8.29,0,0,0,1,.44h0l0,0a9.18,9.18,0,0,0,.93.31c0.39,0.14.87,0.33,1.41,0.58,2.39,1.08,5.84,4.07,6.77,7.49,0.92-3.42,4.37-6.41,6.77-7.49,0.53-.24,1-0.43,1.39-0.57h0c0.3-.09.59-0.19,0.88-0.3l0.11,0h0a12.94,12.94,0,0,0,3.39-1.89,9.39,9.39,0,0,0,.94-0.8,8.31,8.31,0,0,0,.85-0.89l0.41-.46,0.36-.5a8.66,8.66,0,0,0,.67-1c0.19-.36.42-0.71,0.58-1.08l0.49-1.12c0.15-.38.25-0.77,0.38-1.15a8.23,8.23,0,0,0,.31-1.17c0.08-.39.18-0.78,0.24-1.18l0.15-1.21c0.12-.82.08-1.55,0.13-2.33v-9.71Z" transform="translate(-348.82 -430.92)"/></svg>