<svg id="Layer_1" data-name="Layer 1" xmlns="http://www.w3.org/2000/svg" viewBox="0 0 49.55 38.61"><defs><style>.cls-1{fill:#fff;}</style></defs><title>Abilities_Icon_Dekker_SlowField</title><path class="cls-1" d="M130.58,791.86h0a36.78,36.78,0,0,0-2.34-3.05c-1.49-4-10.13-6.12-18.3-6.12s-17,2.2-18.35,6.29c-1.21,1.43-2.2,2.89-2.2,2.89A24.63,24.63,0,0,0,85.2,805.6h0c0,4.87,3.51,9.23,9,12.1h0q0.87,0.46,1.81.86l0.23,0.1q0.83,0.35,1.7.66l0.58,0.2q1.14,0.38,2.35.68l1.22,0.28c1,0.21,2,.38,3,0.51q1.09,0.14,2.22.21l1.36,0.07,1.27,0,1.27,0c11.4-.37,20.77-5.61,23-12.5a10.23,10.23,0,0,0,.5-3.16A24.63,24.63,0,0,0,130.58,791.86Zm-31-5.52a39.12,39.12,0,0,1,10.36-1.26,37.69,37.69,0,0,1,11.14,1.49c3.18,1.12,4.86,2.56,4.86,3.51,0,0.66-.8,1.56-2.35,2.42l-0.39.2a26.15,26.15,0,0,1-7.53,1.95,6.87,6.87,0,0,0-11.38,0,28.36,28.36,0,0,1-6.76-1.6c-0.42-.19-0.81-0.37-1.15-0.57-1.55-.86-2.35-1.76-2.35-2.42C94,789.05,95.93,787.48,99.57,786.33Zm26.77,28.54A31,31,0,0,1,110,819.13a31,31,0,0,1-16.36-4.26c-4-2.55-6.25-5.84-6.25-9.26,0-3.26,2-6.4,5.73-8.9,1.72-1,4.49-.83,6.15-0.59a35.67,35.67,0,0,0,4.06.82,6.87,6.87,0,1,0,13.35,0,35.79,35.79,0,0,0,3.82-.77c1.62-.25,4.58-0.5,6.39.55,3.69,2.5,5.73,5.64,5.73,8.9C132.59,809,130.37,812.32,126.34,814.87Z" transform="translate(-85.2 -782.68)"/></svg>