<svg id="Layer_1" data-name="Layer 1" xmlns="http://www.w3.org/2000/svg" viewBox="0 0 48.62 48.09"><defs><style>.cls-1{fill:#acab9c;}</style></defs><title>Abilities_Icon_FengMao_TheBalance</title><path class="cls-1" d="M445.33,647.15a14.86,14.86,0,0,1,7.82-19.48,11.25,11.25,0,0,0-.23-20.8h0a11.23,11.23,0,0,0-8.62.09,24.31,24.31,0,0,0,6,46.4A14.75,14.75,0,0,1,445.33,647.15Zm-7.44-10.59-0.16-.35a17.55,17.55,0,0,1,9.24-23,4.44,4.44,0,0,1,3.42,0h0a4.47,4.47,0,0,1,.09,8.26A21.61,21.61,0,0,0,437.89,636.55Z" transform="translate(-429.55 -605.27)"/><path class="cls-1" d="M476.21,619.77a24.37,24.37,0,0,0-18.81-14.5A14.84,14.84,0,0,1,454.56,631a11.26,11.26,0,0,0,8.84,20.71A24.34,24.34,0,0,0,476.21,619.77Zm-13.7,29.82A9,9,0,1,1,455.45,633a17.12,17.12,0,0,0,9-22.45q-0.17-.41-0.37-0.8A22,22,0,0,1,462.51,649.59Z" transform="translate(-429.55 -605.27)"/><path class="cls-1" d="M457.82,638.59a3,3,0,0,0,2.33,5.46,16,16,0,0,0,9.57-17A23,23,0,0,1,457.82,638.59Z" transform="translate(-429.55 -605.27)"/></svg>