<svg id="Layer_1" data-name="Layer 1" xmlns="http://www.w3.org/2000/svg" viewBox="0 0 48.67 48.14"><defs><style>.cls-1{fill:#fff;}</style></defs><title>Abilities_Icon_Gideon_CosmicRift</title><path class="cls-1" d="M22.12,260.59H20.74v11a14.05,14.05,0,0,0,1.39.34V260.59Z" transform="translate(-0.67 -258.91)"/><path class="cls-1" d="M29.26,270.86V260.59H27.88v11.34a14.06,14.06,0,0,0,1.39-.34v-0.74Z" transform="translate(-0.67 -258.91)"/><path class="cls-1" d="M44.7,282.15c0-3-2-5.67-5.22-7.69v0s-1.58-.87-2.18-4h0c-0.52-2-2.85-3.72-6.11-4.69v4.12a6.51,6.51,0,0,1,2.4,1.43c-0.78.89-3.74,2.46-8.58,2.46s-7.79-1.58-8.58-2.46a6.51,6.51,0,0,1,2.4-1.43V265.7c-3.26,1-5.59,2.68-6.11,4.69h0c-0.6,3.17-2.18,4-2.18,4v0c-3.23,2-5.22,4.72-5.22,7.69,0,0-.44,4.74-4.64,5.35,0,0,5-.92,8.13,1.13h0a22.87,22.87,0,0,0,10.92,4.5h0s5.3,3,5.3,6.17c0-3.14,5.3-6.17,5.3-6.17h0a22.87,22.87,0,0,0,10.92-4.5h0c3.14-2.05,8.13-1.13,8.13-1.13C45.13,286.88,44.7,282.15,44.7,282.15Zm-25.55,4.78s-0.51,1-1.14,2a20.49,20.49,0,0,1-5.27-2c-2.47-1.43-3.94-3.22-3.94-4.78s1.47-3.36,3.94-4.78a8.08,8.08,0,0,1,5.43-.77h0l0.27,0.09h0s2.7,0.94,2.7,2.95A21.42,21.42,0,0,1,19.15,286.93Zm18.11,0A20.49,20.49,0,0,1,32,289c-0.63-1-1.14-2-1.14-2h0a21.42,21.42,0,0,1-2-7.3h0c0-2,2.71-2.95,2.71-2.95h0l0.27-.09h0a8.08,8.08,0,0,1,5.43.77c2.47,1.43,3.94,3.22,3.94,4.78S39.73,285.5,37.26,286.93Z" transform="translate(-0.67 -258.91)"/><path class="cls-1" d="M36.16,294.48l0,0Q36,294.19,35.82,294a30.06,30.06,0,0,1-4.38,1.16c1.54,0.93,2.47,2.12,2.47,3.22,0,2.25-3.87,4.87-8.86,4.87H24.94c-5,0-8.86-2.62-8.86-4.87,0-1.1.94-2.29,2.47-3.22A30.06,30.06,0,0,1,14.18,294q-0.19.23-.36,0.47l0,0,0,0a6.64,6.64,0,0,0-1.32,3.9c0,4.81,5.58,8.7,12.46,8.7h0.12c6.88,0,12.46-3.9,12.46-8.7a6.64,6.64,0,0,0-1.32-3.9Z" transform="translate(-0.67 -258.91)"/><path class="cls-1" d="M25.75,272.22V258.91h-1.5v13.31l0.75,0Z" transform="translate(-0.67 -258.91)"/></svg>