<svg id="Layer_1" data-name="Layer 1" xmlns="http://www.w3.org/2000/svg" viewBox="0 0 44.3 47.88"><defs><style>.cls-1{fill:#fff;}.cls-2{fill:none;stroke:#fff;stroke-miterlimit:10;stroke-width:3px;}</style></defs><title>Abilities_Icon_Howitzer_Detonator</title><path class="cls-1" d="M113.53,704.12l-3.21-12.06a0.36,0.36,0,0,0-.69,0l-3.21,12.06A12.37,12.37,0,0,1,113.53,704.12Z" transform="translate(-87.83 -691.79)"/><path class="cls-1" d="M89,727.83a0.36,0.36,0,0,0,.35.6l12.06-3.25A12.49,12.49,0,0,1,97.82,719Z" transform="translate(-87.83 -691.79)"/><path class="cls-1" d="M131,727.83L122.13,719a12.49,12.49,0,0,1-3.56,6.16l12.06,3.25A0.36,0.36,0,0,0,131,727.83Z" transform="translate(-87.83 -691.79)"/><path class="cls-1" d="M118.67,718a6.44,6.44,0,0,0,.77-2.16,4.55,4.55,0,1,0-4.58-7.32,6.43,6.43,0,0,0-1.83-.27h-6.21a6.46,6.46,0,0,0-1.77.25,4.56,4.56,0,1,0-4.64,7.32,6.42,6.42,0,0,0,.78,2.18l3.1,5.38a6.41,6.41,0,0,0,1.24,1.53,4.56,4.56,0,1,0,8.85-.06,6.44,6.44,0,0,0,1.18-1.48Zm-8.7,2.17a3.9,3.9,0,1,1,3.9-3.9A3.9,3.9,0,0,1,110,720.13Z" transform="translate(-87.83 -691.79)"/><path class="cls-2" d="M115.78,731.72a8.21,8.21,0,0,1-11.55.05" transform="translate(-87.83 -691.79)"/><path class="cls-2" d="M120.5,703.46a8.21,8.21,0,0,1,5.82,10" transform="translate(-87.83 -691.79)"/><path class="cls-2" d="M93.66,713.5a8.21,8.21,0,0,1,5.73-10" transform="translate(-87.83 -691.79)"/><path class="cls-2" d="M118.66,734.57a12.28,12.28,0,0,1-17.36,0" transform="translate(-87.83 -691.79)"/><path class="cls-2" d="M121.53,699.54a12.28,12.28,0,0,1,8.68,15" transform="translate(-87.83 -691.79)"/><path class="cls-2" d="M89.75,714.57a12.28,12.28,0,0,1,8.68-15" transform="translate(-87.83 -691.79)"/></svg>