<svg id="Layer_1" data-name="Layer 1" xmlns="http://www.w3.org/2000/svg" viewBox="0 0 48.74 48.49"><defs><style>.cls-1{fill:#fff;}</style></defs><title>Abilities_Icon_Twinblast_Tumble</title><ellipse class="cls-1" cx="33.88" cy="14.61" rx="11.04" ry="10.96"/><path class="cls-1" d="M347.19,979.9l2,2,22.33-22.2a13.26,13.26,0,0,1-1.1-2.92Z" transform="translate(-342.51 -946.07)"/><path class="cls-1" d="M350,992.54l2,2,28.19-28a13.45,13.45,0,0,1-2.94-1.1Z" transform="translate(-342.51 -946.07)"/><path class="cls-1" d="M369.55,989.13A21.78,21.78,0,0,1,362,987.8l-0.25-.09,1.4-1.39,0.1,0a20,20,0,0,0,20.39-4.78,19.6,19.6,0,0,0,5.56-17.23v-0.08a13.13,13.13,0,0,0,.51-3.59l0.33-.13a21.4,21.4,0,0,1-5.16,22.28,21.65,21.65,0,0,1-15.35,6.31h0Z" transform="translate(-342.51 -946.07)"/><path class="cls-1" d="M389.89,960.6s0,0,0,.07a13.26,13.26,0,0,1-.52,3.64,19.77,19.77,0,0,1-5.61,17.38,20.22,20.22,0,0,1-20.56,4.82l-1.13,1.12a21.57,21.57,0,0,0,29-20A21.16,21.16,0,0,0,389.89,960.6Z" transform="translate(-342.51 -946.07)"/><path class="cls-1" d="M349.12,974.88a21.31,21.31,0,0,1-1.27-7.28,21.73,21.73,0,0,1,28.4-20.48l-0.05.34a13.4,13.4,0,0,0-3.73.58h-0.08a20.33,20.33,0,0,0-2.83-.2,19.87,19.87,0,0,0-19.94,19.76,19.53,19.53,0,0,0,1,6l0,0.1-1.39,1.38Z" transform="translate(-342.51 -946.07)"/><path class="cls-1" d="M349.44,967.6a20,20,0,0,1,20.11-19.94,20.32,20.32,0,0,1,2.86.2,13.55,13.55,0,0,1,3.78-.59,21.67,21.67,0,0,0-6.64-1A21.45,21.45,0,0,0,348,967.6a21.16,21.16,0,0,0,1.26,7.22l1.13-1.12A19.7,19.7,0,0,1,349.44,967.6Z" transform="translate(-342.51 -946.07)"/><path class="cls-1" d="M373,962l-30.52,30.52,2,2L375.07,964A13.57,13.57,0,0,1,373,962Z" transform="translate(-342.51 -946.07)"/></svg>