<svg id="Layer_1" data-name="Layer 1" xmlns="http://www.w3.org/2000/svg" viewBox="0 0 42.76 48.55"><defs><style>.cls-1{fill:#acab9c;}</style></defs><title>Abilities_Icon_Muriel_ClutchSave</title><path class="cls-1" d="M453.88,891.81l-1.53,4.28a10.33,10.33,0,0,0,0,6.9l1.53,4.28,1.53-4.28a10.33,10.33,0,0,0,0-6.9Z" transform="translate(-432.48 -858.7)"/><path class="cls-1" d="M453.88,874.16l1.53-4.28a10.33,10.33,0,0,0,0-6.9l-1.53-4.28L452.36,863a10.33,10.33,0,0,0,0,6.9Z" transform="translate(-432.48 -858.7)"/><path class="cls-1" d="M475.22,877.33l0-.16a0.83,0.83,0,0,0-1-.7l-10.5,2.24a2,2,0,0,1-1.85-.57l-1.71-1.73c0-.36,0-0.72,0-1.08v-5.72l-3.53,4.2a12,12,0,0,0-2.11,3.71,12.77,12.77,0,0,0-.71,3.69,12.77,12.77,0,0,0-.71-3.69,12,12,0,0,0-2.11-3.71l-3.53-4.2v5.72c0,0.36,0,.72,0,1.08l-1.71,1.73a2,2,0,0,1-1.85.57l-10.5-2.24a0.83,0.83,0,0,0-1,.7l0,0.16a0.92,0.92,0,0,0,.56,1.06l11.37,3.83a1,1,0,0,0,1.27-1v-0.3a8,8,0,0,1,1.93-2.21l-1.1,5.64a2.32,2.32,0,0,1-1.16,1.62L435,891.48a1,1,0,0,0-.39,1.19l0.05,0.13a0.8,0.8,0,0,0,1,.47l12.19-5.2a1.12,1.12,0,0,0,.57-1.38l-0.22-.68a14.3,14.3,0,0,1,.64-5c0.13,0.26.27,0.51,0.41,0.76l1.3,4a2.55,2.55,0,0,1-.17,2l-6.67,12.57a1,1,0,0,0,.05,1,0.78,0.78,0,0,0,1.33,0l8.75-13.74,8.75,13.74a0.78,0.78,0,0,0,1.33,0,1,1,0,0,0,.05-1l-6.67-12.57a2.55,2.55,0,0,1-.17-2l1.3-4c0.15-.25.28-0.5,0.41-0.76a14.3,14.3,0,0,1,.64,5l-0.22.68a1.12,1.12,0,0,0,.57,1.38l12.19,5.2a0.8,0.8,0,0,0,1-.47l0.05-.13a1,1,0,0,0-.39-1.19l-10.42-5.54a2.32,2.32,0,0,1-1.16-1.62l-1.1-5.64a8,8,0,0,1,1.93,2.21v0.3a1,1,0,0,0,1.27,1l11.37-3.83A0.92,0.92,0,0,0,475.22,877.33Z" transform="translate(-432.48 -858.7)"/></svg>