<svg id="Layer_3" data-name="Layer 3" xmlns="http://www.w3.org/2000/svg" viewBox="0 0 89.67 87.44"><defs><style>.cls-1{fill:#fff;}</style></defs><title>icon_ranger</title><g id="Rounded_Rectangle_25" data-name="Rounded Rectangle 25"><path class="cls-1" d="M60.67,63.4a23,23,0,0,0-6,1.3c-5.67,2.15-4.74,6.07-4.74,6.07s1.5-1.36,5.46-1.88C59.67,68.33,61.42,63.35,60.67,63.4ZM39,64.7a23,23,0,0,0-6-1.3c-0.75-.05,1,4.93,5.32,5.49,4,0.52,5.46,1.88,5.46,1.88S44.64,66.86,39,64.7Zm36.25-1.3c0-25.29-12.87-45.79-28.76-45.79S17.71,38.11,17.71,63.4c0,10.73-19.16,10.73-15.28,18.54,3.08,6.18,14.46,14.44,25.22,20.24a68,68,0,0,1-1.85-16c0-21.47,9.35-38.87,20.89-38.87s20.89,17.4,20.89,38.87a67.93,67.93,0,0,1-1.9,16.2C76,97,86.59,89.35,89.6,83.06,93.27,75.37,75.22,73.81,75.22,63.4Z" transform="translate(-1.16 -16.28)"/></g></svg>