<svg id="Layer_3" data-name="Layer 3" xmlns="http://www.w3.org/2000/svg" viewBox="0 0 87.59 104.76"><defs><style>.cls-1{fill:#fff;}</style></defs><title>icon_caster</title><g id="Rounded_Rectangle_8_copy_3" data-name="Rounded Rectangle 8 copy 3"><path class="cls-1" d="M46,69.23s-1.55-15.24,7.74-21c10.72-6.67,9.93-18.48-3.25-28.06-6.37-4.62-4.16-12.53-4.16-12.53s-6,5.28-8.13,12.16c-4.28,13.82,14.16,7-1.23,27.09C26.8,60.18,46,69.23,46,69.23ZM89.79,36.29c0,0.59-4.36-2.24-7.44,7.71-1.93,6.25-3.44,17.63-3.44,17.63A46.28,46.28,0,0,1,73,70a38.44,38.44,0,0,1-6.33,5.37l-1-1.1s5.92-7.85,8.4-12.67c3.11-6-.25-7.89-0.43-8.1-0.18.22-1.43,2.35-1.88,3C69.89,59.24,65.62,65.65,61,70c-5.26,5-7.56,5.66-11,9.36-0.72.77-1.2,2.56-1.51,4.87v4.52l8,18s1,1.5,1.69,1.51,1.22-1.47,1.22-1.47S59,95,62.66,92.75C71.43,87.47,79,86.52,81,79.12a122.81,122.81,0,0,1,5.78-16,60.26,60.26,0,0,1,0-14.32C87.21,45.31,89.89,37.42,89.79,36.29Zm-46.27,48c-0.31-2.31-.79-4.1-1.51-4.87C38.55,75.68,36.25,75,31,70c-4.61-4.38-8.88-10.79-10.77-13.5-0.45-.65-1.7-2.78-1.88-3-0.19.21-3.55,2.06-.43,8.1,2.48,4.82,8.4,12.67,8.4,12.67l-1,1.1A38.44,38.44,0,0,1,19,70a46.28,46.28,0,0,1-5.92-8.4S11.57,50.25,9.64,44c-3.07-10-7.49-7.12-7.44-7.71-0.09,1.13,2.58,9,3,12.53a60.25,60.25,0,0,1,0,14.32,122.8,122.8,0,0,1,5.78,16c2,7.4,9.55,8.36,18.32,13.63,3.71,2.23,3.31,14,3.31,14s0.47,1.48,1.22,1.47,1.69-1.51,1.69-1.51l8-18V84.26ZM46.25,95.8a0.36,0.36,0,0,0-.47,0l-4.9,11.14a0.29,0.29,0,0,0,0,.41l4.94,5a0.36,0.36,0,0,0,.47,0l4.9-4.91a0.29,0.29,0,0,0,0-.41Z" transform="translate(-2.2 -7.62)"/></g></svg>