<svg id="Layer_3" data-name="Layer 3" xmlns="http://www.w3.org/2000/svg" viewBox="0 0 87.59 120"><defs><style>.cls-1{fill:#fff;}</style></defs><title>icon_caster</title><g id="Rounded_Rectangle_8_copy_3" data-name="Rounded Rectangle 8 copy 3"><path class="cls-1" d="M48.2,104c-0.4-0.4-1-0.4-1.4,0l-5.9,5.9c-0.4,0.4-0.4,1,0,1.4l5.9,5.9c0.4,0.4,1,0.4,1.4,0l5.9-5.9
		c0.4-0.4,0.4-1,0-1.4L48.2,104z M30.7,20.3l6.8,4.8c1,0.7,2.4,0.5,3.1-0.5l7.6-12.2c0.7-1,0.5-2.4-0.5-3.1l-6.8-4.8
		c-1-0.7-2.4-0.5-3.1,0.5l-7.6,12.2C29.4,18.2,29.7,19.6,30.7,20.3z M49.6,50.2l5.5,3.5c1,0.7,1.9,0,2.6-1l16-21.9
		c0.7-1,0.5-2.4-0.5-3.1l-6.4-4.4c-1-0.7-2.4-0.5-3.1,0.5L49,47.2C48.3,48.2,48.6,49.5,49.6,50.2z M48.7,31.6c0,0,1.6,1.2,1.3,2.2
		c-0.2,1-4,8.4-4,8.4s-0.8,1.5-1.8,1.8c-0.8,0.2-8.7-0.5-11.4-0.8l-0.1,0.1c-0.7,1-0.5,2.4,0.5,3.1l7.3,4.4c1,0.7,2.4,0.5,3.1-0.5
		L61.8,22c0.7-1,0.5-2.4-0.5-3.1l-6.8-4.8c-1-0.7-2.4-0.5-3.1,0.5l-8.6,13.2L48.7,31.6z M84.6,37.4l-6.4-4.4c-1-0.7-2.4-0.5-3.1,0.5
		L62.7,52.4c-0.7,1-0.5,2.4,0.5,3.1l5.5,3.5c1,0.7,1.9,0,2.6-1l13.8-17.5C85.8,39.5,85.6,38.1,84.6,37.4z M70.7,63.3
		c-2.5,0.9-10.6-5.1-10.6-5.1s-2.3-1.8-3.1,0.2c-0.2,0.5-2.2-0.9-2.2-0.9l-8.4-4.4L45.1,54l0.9,1.3c0,0,5.2,7.6,7.9,11
		c1.5,1.8,1.3,1.3,1,6.2c-0.5,6.3-0.1,8.2-0.3,17.2c-5,0.6-2.5-17.5-2.4-20.2c0-0.7-1.8-2.6-1.8-2.6s-6.6-8.2-7.5-9.7
		c-0.9-1.5-3.5-2.6-3.5-2.6S26.1,46,25.8,45.2c-1.8-5.4,4.6-5.5,4.4-5.3c0.4-0.4,3.1,0,3.1,0s7.9,0.9,8.8,0.9c0.9,0,1.8-1.8,1.8-1.8
		s1.5-2.9,1.8-3.5c0.8-1.8-0.9-2.6-0.9-2.6s-18.6-10.3-19.4-11s-2.8-0.6-3.5,0C21.1,22.5,4.7,47.1,5.1,49.6
		c0.7,4.1,20.7,21.3,22,23.8c1.3,2.5-2.2,30.4-2.2,30.4l5.6-0.1l13.3-13.3c1.7-1.7,4.5-1.7,6.2,0l13,13l5.5-0.1
		c0,0-1.6-16.7-0.9-20.2c0.7-3.5,6.6-8.8,6.6-8.8l5.3-22C79.5,52.3,72.8,62.5,70.7,63.3z" transform="translate(-2.2 0)"/></g></svg>