<svg id="Layer_3" data-name="Layer 3" xmlns="http://www.w3.org/2000/svg" viewBox="0 0 89.67 87.44"><defs><style>.cls-1{fill:#fff;}</style></defs><title>icon_ranger</title><g id="Rounded_Rectangle_25" data-name="Rounded Rectangle 25"><path class="cls-1" d="M37.08,75.83a1.1,1.1,0,0,0,0-1.56L16.8,53a1.1,1.1,0,1,0-1.59,1.52L35.52,75.8A1.1,1.1,0,0,0,37.08,75.83ZM74.47,53L54.15,74.27a1.1,1.1,0,0,0,1.59,1.52L76.06,54.55A1.1,1.1,0,0,0,74.47,53Zm15.46-2.6c-0.7,1-4-.51-4-0.51l-2.52-1-1.23-4.21s-0.91-.4-1.05.16-3,2-3,2l-4.23-2.38s-1.08-1.76.42-4.52c1.71-3.13-3.34-11.24-9.19-12.33-6.49-1.21-10.07,1-12.31,2.56l0.7,1.49a1.82,1.82,0,0,1,0,2.58l-6.08,6.08V30.54L50.8,27.2a1.18,1.18,0,0,0,0-1.67l-4.15-8.91a1.17,1.17,0,0,0-1.66,0l-4.15,8.91a1.18,1.18,0,0,0,0,1.67l3.34,3.34v9.82l-6.09-6.09a1.82,1.82,0,0,1,0-2.58L38.87,30c-2.25-1.56-5.8-3.53-12-2.36C21,28.74,15.94,36.85,17.65,40c1.51,2.76.42,4.52,0.42,4.52l-4.23,2.38s-2.85-1.42-3-2-1.05-.16-1.05-0.16L8.56,49,6,49.92s-3.27,1.52-4,.51S1.16,51,1.16,51s1.89,3.7,4.4,3.46,7.65-1.28,8.36-2.71c1.27-2.54,9.83-4.69,10.67-6.5a2.18,2.18,0,0,0-.93-2.79c-0.66-.12-1.91-8.85,5.62-10.13,5.76-1,10.08,9.65,11,10.65,0.44,1.1,1.94,5.59,3.73,5.59l0.18,0v48c0,0.91.74,0.92,1.65,0.92s1.65,0,1.65-.92v-48a5.43,5.43,0,0,0,.55.05c1.79,0,3.29-4.49,3.73-5.59,0.87-1,5.19-11.63,11-10.65,7.53,1.28,6.29,10,5.62,10.13a2.18,2.18,0,0,0-.93,2.79c0.84,1.8,9.4,4,10.67,6.5,0.72,1.43,5.79,2.46,8.36,2.71S90.84,51,90.84,51,90.63,49.42,89.93,50.43ZM50,83.78l2.87,2.91c0.57,0.47.85-.38,0.85-0.86V80a1.83,1.83,0,0,0-.85-1.2L50,75.91c-0.88-.4-0.85.38-0.85,0.86v5.64A2.12,2.12,0,0,0,50,83.78Zm-11.6,2.91,2.87-2.91a2.12,2.12,0,0,0,.85-1.37V76.76c0-.47,0-1.25-0.85-0.86l-2.87,2.91a1.83,1.83,0,0,0-.85,1.2v5.82C37.55,86.3,37.82,87.16,38.39,86.69ZM55,91.45L50.56,87c-1.35-.61-1.3.59-1.3,1.31V97a3.25,3.25,0,0,0,1.3,2.1L55,103.51c0.88,0.72,1.3-.59,1.3-1.31V93.28A2.8,2.8,0,0,0,55,91.45ZM41.07,87l-4.43,4.46a2.8,2.8,0,0,0-1.3,1.84v8.92c0,0.72.42,2,1.3,1.31l4.43-4.46a3.25,3.25,0,0,0,1.3-2.1V88.3C42.38,87.58,42.43,86.38,41.07,87Z" transform="translate(-1.16 -16.28)"/></g></svg>