<svg id="Layer_3" data-name="Layer 3" xmlns="http://www.w3.org/2000/svg" viewBox="0 0 87.59 120"><defs><style>.cls-1{fill:#fff;}</style></defs><title>icon_caster</title><g id="Rounded_Rectangle_8_copy_3" data-name="Rounded Rectangle 8 copy 3"><path class="cls-1" d="M8.7,75.3c-2.2-4.7,3.3,12.1,19.9,27.9c6.6,6.3,16.9,13.7,17.4,14.4v-4.1
			c-0.7-0.4-9.2-6-15.9-12.3C22.6,94.4,11.2,80.5,8.7,75.3z M83.3,75.3c-2.5,5.2-13.9,19.1-21.3,26c-6.8,6.2-15.2,11.8-15.9,12.3
			v4.1c0.4-0.7,10.8-8.1,17.4-14.4C80,87.4,85.4,70.6,83.3,75.3z M65.8,11.5C57.3,8.8,48.7,4,46,2.4c-2.7,1.6-11.3,6.3-19.8,9
			c-10.3,3.3-20.7,3.5-20.7,3.5v44.3c0,0,5.4,14.8,14.4,26.1c11,13.7,26.1,24.3,26.1,24.3s0,0,0,0c0,0,0,0,0,0s15.1-10.6,26.1-24.3
			c9.1-11.3,14.4-26.1,14.4-26.1V14.9C86.6,14.9,76.2,14.7,65.8,11.5z M81.2,57.5c0,0-4.7,12.8-12.5,22.5C59.1,91.8,46,101,46,101
			s0,0,0,0c0,0,0,0,0,0s-13.1-9.2-22.7-21c-7.8-9.7-12.5-22.5-12.5-22.5V19.2c0,0,9-0.2,18-3c7.4-2.3,14.8-6.4,17.2-7.8
			c2.4,1.4,9.8,5.5,17.2,7.8c9,2.8,18,3,18,3V57.5z M46,13.6c-2.1,1.2-8.5,4.8-15,6.8C23.2,22.8,15.4,23,15.4,23v33.3
			c0,0,4.1,11.1,10.9,19.6C34,85.4,44.5,93,45.9,93.9c-0.1-0.1-0.2-0.3-0.3-0.6c-0.1-2.6-1-41.2-4.5-47.2c1.3,1,3.2,1.7,5,1.7
			c1.8,0,3.6-0.5,5-1.7c-3.5,6.1-4.4,44.2-4.5,47.1C46.3,93.8,46.2,94,46,94c0,0-0.1,0-0.1,0C46,94,46,94,46,94s0,0,0,0c0,0,0,0,0,0
			s11.4-8,19.7-18.3c6.8-8.4,10.9-19.6,10.9-19.6V23c0,0-7.8-0.2-15.7-2.6C54.5,18.4,48.1,14.8,46,13.6z M37.9,40.2v0.6
			c-6.3-6.6-21.7-16.6-22.3-17c-0.1-0.2-0.1-0.3,0-0.4c0-0.1,0.1-0.1,0.2-0.2c2.1,1,18.7,8.4,27,9.8C39.9,34.2,37.9,36.9,37.9,40.2z
			 M46,45.4c-3,0-5.4-2.3-5.4-5.2c0-2.9,2.4-5.2,5.4-5.2c3,0,5.4,2.3,5.4,5.2C51.4,43,49,45.4,46,45.4z M76.4,23.4
			c0.1,0.1,0.1,0.2,0,0.4c-0.6,0.4-16,10.3-22.3,17v-0.6c0-3.3-2-6-4.9-7.2c8.3-1.4,24.9-8.8,27-9.8C76.3,23.3,76.4,23.3,76.4,23.4z" transform="translate(-2.2 0)"/></g></svg>